<?xml version="1.0" encoding="UTF-8" standalone="no"?>
<!-- Generator: Adobe Illustrator 25.2.1, SVG Export Plug-In . SVG Version: 6.00 Build 0)  -->

<svg
   width="24px"
   height="24px"
   version="1.1"
   id="Layer_1"
   x="0px"
   y="0px"
   viewBox="0 0 74.4 74.4"
   style="enable-background:new 0 0 74.4 74.4;"
   xml:space="preserve"
   preserveAspectRatio="xMinYMid meet"
   sodipodi:docname="icon.svg"
   inkscape:version="1.2.1 (9c6d41e4, 2022-07-14)"
   xmlns:inkscape="http://www.inkscape.org/namespaces/inkscape"
   xmlns:sodipodi="http://sodipodi.sourceforge.net/DTD/sodipodi-0.dtd"
   xmlns="http://www.w3.org/2000/svg"
   xmlns:svg="http://www.w3.org/2000/svg"><defs
   id="defs93"><inkscape:path-effect
     effect="fillet_chamfer"
     id="path-effect11754"
     is_visible="true"
     lpeversion="1"
     nodesatellites_param="F,0,0,1,0,10,0,1 @ F,0,0,1,0,10,0,1 @ F,0,0,1,0,10,0,1 @ F,0,0,1,0,10,0,1"
     unit="px"
     method="auto"
     mode="F"
     radius="10"
     chamfer_steps="1"
     flexible="false"
     use_knot_distance="true"
     apply_no_radius="true"
     apply_with_radius="true"
     only_selected="false"
     hide_knots="false" /><inkscape:path-effect
     effect="fillet_chamfer"
     id="path-effect11738"
     is_visible="true"
     lpeversion="1"
     nodesatellites_param="F,0,0,1,0,0,0,1 @ F,0,0,1,0,0,0,1 @ F,0,0,1,0,0,0,1 @ F,0,0,1,0,0,0,1 @ F,0,0,1,0,0,0,1 @ F,0,0,1,0,0,0,1 @ F,0,0,1,0,0,0,1 @ F,0,0,1,0,0,0,1"
     unit="px"
     method="auto"
     mode="F"
     radius="0"
     chamfer_steps="1"
     flexible="false"
     use_knot_distance="true"
     apply_no_radius="true"
     apply_with_radius="true"
     only_selected="false"
     hide_knots="false" /><inkscape:path-effect
     effect="bspline"
     id="path-effect11734"
     is_visible="true"
     lpeversion="1"
     weight="33.333333"
     steps="2"
     helper_size="0"
     apply_no_weight="true"
     apply_with_weight="true"
     only_selected="false" /></defs><sodipodi:namedview
   id="namedview91"
   pagecolor="#ffffff"
   bordercolor="#000000"
   borderopacity="0.25"
   inkscape:showpageshadow="2"
   inkscape:pageopacity="0.0"
   inkscape:pagecheckerboard="0"
   inkscape:deskcolor="#d1d1d1"
   showgrid="false"
   inkscape:zoom="19.666667"
   inkscape:cx="9.8135592"
   inkscape:cy="10.423729"
   inkscape:window-width="1440"
   inkscape:window-height="900"
   inkscape:window-x="0"
   inkscape:window-y="278"
   inkscape:window-maximized="0"
   inkscape:current-layer="Layer_1" />

<rect
   style="fill:#11a676;fill-opacity:1;stroke-width:3.1"
   id="rect11752"
   width="74.557625"
   height="74.400002"
   x="-2.6028694e-08"
   y="0"
   inkscape:path-effect="#path-effect11754"
   d="m 10,0 h 54.557625 a 10,10 45 0 1 10,10 v 54.400002 a 10,10 135 0 1 -10,10 H 10 A 10,10 45 0 1 -2.6028694e-8,64.400002 V 10 A 10,10 135 0 1 10,0 Z" /><g
   id="g1486"
   transform="matrix(0.02786151,0,0,0.02786151,12.124641,12.124627)"
   style="fill:#ffffff"><g
     id="g1450"
     style="fill:#ffffff">
	<path
   fill="#333333"
   d="M 1704.994,208.972 H 1381.711 V 92.869 c 0,-46.782 -38.061,-84.844 -84.844,-84.844 H 1164.02 c -46.783,0 -84.844,38.062 -84.844,84.844 V 208.972 H 720.82 V 92.869 C 720.82,46.087 682.759,8.025 635.976,8.025 H 503.129 c -46.782,0 -84.844,38.062 -84.844,84.844 V 208.972 H 95.006 c -46.935,0 -85.123,38.061 -85.123,84.844 v 265.97 1147.346 c 0,46.783 38.188,84.844 85.123,84.844 h 1609.988 c 46.932,0 85.123,-38.061 85.123,-84.844 V 559.785 293.815 c 0,-46.783 -38.191,-84.843 -85.123,-84.843 z m -563.302,62.516 V 208.972 92.869 c 0,-12.311 10.013,-22.327 22.327,-22.327 h 132.848 c 12.307,0 22.327,10.017 22.327,22.327 v 116.103 62.516 107.171 c 0,12.311 -10.021,22.327 -22.327,22.327 H 1164.02 c -12.314,0 -22.327,-10.017 -22.327,-22.327 V 271.488 Z m -660.89,0 V 208.972 92.869 c 0,-12.311 10.017,-22.327 22.327,-22.327 h 132.848 c 12.311,0 22.327,10.017 22.327,22.327 v 116.103 62.516 107.171 c 0,12.311 -10.017,22.327 -22.327,22.327 H 503.129 c -12.311,0 -22.327,-10.017 -22.327,-22.327 z m 1246.799,1435.643 c 0,12.307 -10.144,22.328 -22.606,22.328 H 95.006 c -12.463,0 -22.606,-10.021 -22.606,-22.328 V 591.043 h 1655.201 z m 0,-1178.605 H 72.4 V 293.815 c 0,-12.311 10.143,-22.328 22.606,-22.328 h 323.279 v 107.171 c 0,46.782 38.062,84.844 84.844,84.844 h 132.848 c 46.783,0 84.844,-38.062 84.844,-84.844 v -107.17 h 358.355 v 107.171 c 0,46.782 38.061,84.844 84.844,84.844 h 132.848 c 46.783,0 84.844,-38.062 84.844,-84.844 V 271.488 h 323.283 c 12.463,0 22.606,10.017 22.606,22.328 z"
   id="path1430"
   style="fill:#ffffff" />
	<path
   fill="#333333"
   d="m 378.358,914.669 h 125.835 c 35.139,0 63.729,-28.592 63.729,-63.731 V 725.101 c 0,-35.142 -28.589,-63.731 -63.729,-63.731 H 378.358 c -35.144,0 -63.733,28.589 -63.733,63.731 v 125.837 c 0,35.139 28.589,63.731 63.733,63.731 z m -1.216,-189.568 c 0,-0.669 0.545,-1.215 1.216,-1.215 h 125.835 c 0.667,0 1.212,0.545 1.212,1.215 v 125.837 c 0,0.669 -0.545,1.212 -1.212,1.212 H 378.358 c -0.671,0 -1.216,-0.543 -1.216,-1.212 z"
   id="path1432"
   style="fill:#ffffff" />
	<path
   fill="#333333"
   d="m 837.079,914.669 h 125.838 c 35.14,0 63.729,-28.592 63.729,-63.731 V 725.101 c 0,-35.142 -28.589,-63.731 -63.729,-63.731 H 837.079 c -35.144,0 -63.733,28.589 -63.733,63.731 v 125.837 c 0,35.139 28.59,63.731 63.733,63.731 z m -1.216,-189.568 c 0,-0.669 0.545,-1.215 1.216,-1.215 h 125.838 c 0.671,0 1.212,0.545 1.212,1.215 v 125.837 c 0,0.669 -0.541,1.212 -1.212,1.212 H 837.079 c -0.671,0 -1.216,-0.543 -1.216,-1.212 z"
   id="path1434"
   style="fill:#ffffff" />
	<path
   fill="#333333"
   d="m 1295.803,914.669 h 125.836 c 35.147,0 63.736,-28.592 63.736,-63.731 V 725.101 c 0,-35.142 -28.589,-63.731 -63.736,-63.731 h -125.836 c -35.139,0 -63.729,28.589 -63.729,63.731 v 125.837 c 0,35.139 28.59,63.731 63.729,63.731 z m -1.212,-189.568 c 0,-0.669 0.54,-1.215 1.212,-1.215 h 125.836 c 0.672,0 1.221,0.545 1.221,1.215 v 125.837 c 0,0.669 -0.549,1.212 -1.221,1.212 h -125.836 c -0.654,0 -1.212,-0.556 -1.212,-1.212 z"
   id="path1436"
   style="fill:#ffffff" />
	<path
   fill="#333333"
   d="m 378.358,1278.83 h 125.835 c 35.139,0 63.729,-28.589 63.729,-63.729 v -125.835 c 0,-35.147 -28.589,-63.737 -63.729,-63.737 H 378.358 c -35.144,0 -63.733,28.59 -63.733,63.737 v 125.835 c 0,35.14 28.589,63.729 63.733,63.729 z m -1.216,-189.563 c 0,-0.676 0.545,-1.221 1.216,-1.221 h 125.835 c 0.667,0 1.212,0.545 1.212,1.221 v 125.835 c 0,0.668 -0.545,1.213 -1.212,1.213 H 378.358 c -0.659,0 -1.216,-0.559 -1.216,-1.213 z"
   id="path1438"
   style="fill:#ffffff" />
	<path
   fill="#333333"
   d="m 837.079,1278.83 h 125.838 c 35.14,0 63.729,-28.589 63.729,-63.729 v -125.835 c 0,-35.147 -28.589,-63.737 -63.729,-63.737 H 837.079 c -35.144,0 -63.733,28.59 -63.733,63.737 v 125.835 c 0,35.14 28.59,63.729 63.733,63.729 z m -1.216,-189.563 c 0,-0.676 0.545,-1.221 1.216,-1.221 h 125.838 c 0.671,0 1.212,0.545 1.212,1.221 v 125.835 c 0,0.654 -0.558,1.213 -1.212,1.213 H 837.079 c -0.658,0 -1.216,-0.559 -1.216,-1.213 z"
   id="path1440"
   style="fill:#ffffff" />
	<path
   fill="#333333"
   d="m 1295.803,1278.83 h 125.836 c 35.147,0 63.736,-28.589 63.736,-63.729 v -125.835 c 0,-35.147 -28.589,-63.737 -63.736,-63.737 h -125.836 c -35.139,0 -63.729,28.59 -63.729,63.737 v 125.835 c 0,35.14 28.59,63.729 63.729,63.729 z m -1.212,-189.563 c 0,-0.676 0.54,-1.221 1.212,-1.221 h 125.836 c 0.672,0 1.221,0.545 1.221,1.221 v 125.835 c 0,0.654 -0.559,1.213 -1.221,1.213 h -125.836 c -0.654,0 -1.212,-0.559 -1.212,-1.213 z"
   id="path1442"
   style="fill:#ffffff" />
	<path
   fill="#333333"
   d="m 378.358,1642.984 h 125.835 c 35.139,0 63.729,-28.59 63.729,-63.729 V 1453.42 c 0,-35.14 -28.589,-63.729 -63.729,-63.729 H 378.358 c -35.144,0 -63.733,28.589 -63.733,63.729 v 125.835 c 0,35.14 28.589,63.729 63.733,63.729 z m -1.216,-189.564 c 0,-0.672 0.545,-1.213 1.216,-1.213 h 125.835 c 0.667,0 1.212,0.541 1.212,1.213 v 125.835 c 0,0.672 -0.545,1.212 -1.212,1.212 H 378.358 c -0.671,0 -1.216,-0.54 -1.216,-1.212 z"
   id="path1444"
   style="fill:#ffffff" />
	<path
   fill="#333333"
   d="m 837.079,1642.984 h 125.838 c 35.14,0 63.729,-28.59 63.729,-63.729 V 1453.42 c 0,-35.14 -28.589,-63.729 -63.729,-63.729 H 837.079 c -35.144,0 -63.733,28.589 -63.733,63.729 v 125.835 c 0,35.14 28.59,63.729 63.733,63.729 z m -1.216,-189.564 c 0,-0.672 0.545,-1.213 1.216,-1.213 h 125.838 c 0.671,0 1.212,0.541 1.212,1.213 v 125.835 c 0,0.672 -0.541,1.212 -1.212,1.212 H 837.079 c -0.671,0 -1.216,-0.54 -1.216,-1.212 z"
   id="path1446"
   style="fill:#ffffff" />
	<path
   fill="#333333"
   d="m 1295.803,1642.984 h 125.836 c 35.147,0 63.736,-28.59 63.736,-63.729 V 1453.42 c 0,-35.14 -28.589,-63.729 -63.736,-63.729 h -125.836 c -35.139,0 -63.729,28.589 -63.729,63.729 v 125.835 c 0,35.14 28.59,63.729 63.729,63.729 z m -1.212,-189.564 c 0,-0.672 0.54,-1.213 1.212,-1.213 h 125.836 c 0.672,0 1.221,0.541 1.221,1.213 v 125.835 c 0,0.672 -0.549,1.212 -1.221,1.212 h -125.836 c -0.654,0 -1.212,-0.553 -1.212,-1.212 z"
   id="path1448"
   style="fill:#ffffff" />
</g><g
     id="g1452"
     style="fill:#ffffff">
</g><g
     id="g1454"
     style="fill:#ffffff">
</g><g
     id="g1456"
     style="fill:#ffffff">
</g><g
     id="g1458"
     style="fill:#ffffff">
</g><g
     id="g1460"
     style="fill:#ffffff">
</g><g
     id="g1462"
     style="fill:#ffffff">
</g></g></svg>
