<?xml version="1.0" encoding="UTF-8" standalone="no"?>
<!-- Generator: Adobe Illustrator 25.2.1, SVG Export Plug-In . SVG Version: 6.00 Build 0)  -->

<svg
   width="24px"
   height="24px"
   version="1.1"
   id="Layer_1"
   x="0px"
   y="0px"
   viewBox="0 0 74.4 74.4"
   style="enable-background:new 0 0 74.4 74.4;"
   xml:space="preserve"
   preserveAspectRatio="xMinYMid meet"
   sodipodi:docname="icon.svg"
   inkscape:version="1.2.1 (9c6d41e4, 2022-07-14)"
   xmlns:inkscape="http://www.inkscape.org/namespaces/inkscape"
   xmlns:sodipodi="http://sodipodi.sourceforge.net/DTD/sodipodi-0.dtd"
   xmlns="http://www.w3.org/2000/svg"
   xmlns:svg="http://www.w3.org/2000/svg"><defs
   id="defs93"><inkscape:path-effect
     effect="fillet_chamfer"
     id="path-effect11754"
     is_visible="true"
     lpeversion="1"
     nodesatellites_param="F,0,0,1,0,10,0,1 @ F,0,0,1,0,10,0,1 @ F,0,0,1,0,10,0,1 @ F,0,0,1,0,10,0,1"
     unit="px"
     method="auto"
     mode="F"
     radius="10"
     chamfer_steps="1"
     flexible="false"
     use_knot_distance="true"
     apply_no_radius="true"
     apply_with_radius="true"
     only_selected="false"
     hide_knots="false" /><inkscape:path-effect
     effect="fillet_chamfer"
     id="path-effect11738"
     is_visible="true"
     lpeversion="1"
     nodesatellites_param="F,0,0,1,0,0,0,1 @ F,0,0,1,0,0,0,1 @ F,0,0,1,0,0,0,1 @ F,0,0,1,0,0,0,1 @ F,0,0,1,0,0,0,1 @ F,0,0,1,0,0,0,1 @ F,0,0,1,0,0,0,1 @ F,0,0,1,0,0,0,1"
     unit="px"
     method="auto"
     mode="F"
     radius="0"
     chamfer_steps="1"
     flexible="false"
     use_knot_distance="true"
     apply_no_radius="true"
     apply_with_radius="true"
     only_selected="false"
     hide_knots="false" /><inkscape:path-effect
     effect="bspline"
     id="path-effect11734"
     is_visible="true"
     lpeversion="1"
     weight="33.333333"
     steps="2"
     helper_size="0"
     apply_no_weight="true"
     apply_with_weight="true"
     only_selected="false" /></defs><sodipodi:namedview
   id="namedview91"
   pagecolor="#ffffff"
   bordercolor="#000000"
   borderopacity="0.25"
   inkscape:showpageshadow="2"
   inkscape:pageopacity="0.0"
   inkscape:pagecheckerboard="0"
   inkscape:deskcolor="#d1d1d1"
   showgrid="false"
   inkscape:zoom="19.666667"
   inkscape:cx="9.8135592"
   inkscape:cy="10.423729"
   inkscape:window-width="1440"
   inkscape:window-height="900"
   inkscape:window-x="142"
   inkscape:window-y="152"
   inkscape:window-maximized="0"
   inkscape:current-layer="Layer_1" />

<rect
   style="fill:#399be2;fill-opacity:1;stroke-width:3.1"
   id="rect11752"
   width="74.557625"
   height="74.400002"
   x="-2.6028694e-08"
   y="0"
   inkscape:path-effect="#path-effect11754"
   d="m 10,0 h 54.557625 a 10,10 45 0 1 10,10 v 54.400002 a 10,10 135 0 1 -10,10 H 10 A 10,10 45 0 1 -2.6028694e-8,64.400002 V 10 A 10,10 135 0 1 10,0 Z" /><g
   id="g1010"
   transform="matrix(0.18988117,0,0,0.18988117,11.011969,11.011969)"
   style="fill:#ffffff"><g
     id="g955"
     style="fill:#ffffff">
	<path
   d="m 191.344,20.922 -95.155,95.155 c -0.756,0.756 -1.297,1.699 -1.565,2.734 l -8.167,31.454 c -0.534,2.059 0.061,4.246 1.565,5.751 1.14,1.139 2.671,1.757 4.242,1.757 0.503,0 1.009,-0.063 1.508,-0.192 l 31.454,-8.168 c 1.035,-0.269 1.979,-0.81 2.734,-1.565 l 95.153,-95.153 c 0.002,-0.002 0.004,-0.003 0.005,-0.004 0.001,-0.001 0.003,-0.004 0.004,-0.005 L 242.278,33.53 c 2.344,-2.343 2.344,-6.142 0.001,-8.484 L 218.994,1.758 C 217.868,0.632 216.343,0 214.751,0 c -1.591,0 -3.117,0.632 -4.242,1.758 l -19.155,19.155 c -0.002,0.002 -0.004,0.003 -0.005,0.004 -10e-4,10e-4 -0.003,0.004 -0.005,0.005 z m -70.713,117.286 -19.993,5.192 5.191,-19.993 89.762,-89.762 14.801,14.802 z M 214.751,14.485 229.552,29.287 218.877,39.962 204.076,25.16 Z"
   id="path951"
   style="fill:#ffffff" />
	<path
   d="m 238.037,65.022 c -3.313,0 -6,2.687 -6,6 V 263.835 H 43.799 V 34.417 h 111.063 c 3.313,0 6,-2.687 6,-6 0,-3.313 -2.687,-6 -6,-6 H 37.799 c -3.313,0 -6,2.687 -6,6 v 241.419 c 0,3.313 2.687,6 6,6 h 200.238 c 3.313,0 6,-2.687 6,-6 V 71.022 c 0,-3.313 -2.686,-6 -6,-6 z"
   id="path953"
   style="fill:#ffffff" />
</g><g
     id="g957"
     style="fill:#ffffff">
</g><g
     id="g959"
     style="fill:#ffffff">
</g><g
     id="g961"
     style="fill:#ffffff">
</g><g
     id="g963"
     style="fill:#ffffff">
</g><g
     id="g965"
     style="fill:#ffffff">
</g><g
     id="g967"
     style="fill:#ffffff">
</g><g
     id="g969"
     style="fill:#ffffff">
</g><g
     id="g971"
     style="fill:#ffffff">
</g><g
     id="g973"
     style="fill:#ffffff">
</g><g
     id="g975"
     style="fill:#ffffff">
</g><g
     id="g977"
     style="fill:#ffffff">
</g><g
     id="g979"
     style="fill:#ffffff">
</g><g
     id="g981"
     style="fill:#ffffff">
</g><g
     id="g983"
     style="fill:#ffffff">
</g><g
     id="g985"
     style="fill:#ffffff">
</g></g></svg>
