<?xml version="1.0" encoding="UTF-8" standalone="no"?>
<!-- Generator: Adobe Illustrator 25.2.1, SVG Export Plug-In . SVG Version: 6.00 Build 0)  -->

<svg
   width="24px"
   height="24px"
   version="1.1"
   id="Layer_1"
   x="0px"
   y="0px"
   viewBox="0 0 74.4 74.4"
   style="enable-background:new 0 0 74.4 74.4;"
   xml:space="preserve"
   preserveAspectRatio="xMinYMid meet"
   sodipodi:docname="icon.svg"
   inkscape:version="1.2.1 (9c6d41e4, 2022-07-14)"
   xmlns:inkscape="http://www.inkscape.org/namespaces/inkscape"
   xmlns:sodipodi="http://sodipodi.sourceforge.net/DTD/sodipodi-0.dtd"
   xmlns="http://www.w3.org/2000/svg"
   xmlns:svg="http://www.w3.org/2000/svg"><defs
   id="defs93"><inkscape:path-effect
     effect="fillet_chamfer"
     id="path-effect11754"
     is_visible="true"
     lpeversion="1"
     nodesatellites_param="F,0,0,1,0,10,0,1 @ F,0,0,1,0,10,0,1 @ F,0,0,1,0,10,0,1 @ F,0,0,1,0,10,0,1"
     unit="px"
     method="auto"
     mode="F"
     radius="10"
     chamfer_steps="1"
     flexible="false"
     use_knot_distance="true"
     apply_no_radius="true"
     apply_with_radius="true"
     only_selected="false"
     hide_knots="false" /><inkscape:path-effect
     effect="fillet_chamfer"
     id="path-effect11738"
     is_visible="true"
     lpeversion="1"
     nodesatellites_param="F,0,0,1,0,0,0,1 @ F,0,0,1,0,0,0,1 @ F,0,0,1,0,0,0,1 @ F,0,0,1,0,0,0,1 @ F,0,0,1,0,0,0,1 @ F,0,0,1,0,0,0,1 @ F,0,0,1,0,0,0,1 @ F,0,0,1,0,0,0,1"
     unit="px"
     method="auto"
     mode="F"
     radius="0"
     chamfer_steps="1"
     flexible="false"
     use_knot_distance="true"
     apply_no_radius="true"
     apply_with_radius="true"
     only_selected="false"
     hide_knots="false" /><inkscape:path-effect
     effect="bspline"
     id="path-effect11734"
     is_visible="true"
     lpeversion="1"
     weight="33.333333"
     steps="2"
     helper_size="0"
     apply_no_weight="true"
     apply_with_weight="true"
     only_selected="false" /><style
     id="style204">.cls-1{fill:#336;}.cls-2{fill:#fff;}</style><style
     id="style577">.cls-1{fill:#06c;}.cls-2{fill:#fff;}</style><style
     id="style766">.cls-1{fill:#06c;}.cls-2{fill:#fff;}</style><style
     id="style1038">.cls-1{fill:#fff;}.cls-2{fill:#98ca00;}</style><style
     id="style1258">.cls-1{fill:#9c0;}.cls-2{fill:#fff;}</style><style
     id="style1494">.cls-1{fill:#9c0;}.cls-2{fill:#fff;}</style></defs><sodipodi:namedview
   id="namedview91"
   pagecolor="#ffffff"
   bordercolor="#000000"
   borderopacity="0.25"
   inkscape:showpageshadow="2"
   inkscape:pageopacity="0.0"
   inkscape:pagecheckerboard="0"
   inkscape:deskcolor="#d1d1d1"
   showgrid="false"
   inkscape:zoom="19.666667"
   inkscape:cx="9.2542371"
   inkscape:cy="10.5"
   inkscape:window-width="1440"
   inkscape:window-height="855"
   inkscape:window-x="0"
   inkscape:window-y="121"
   inkscape:window-maximized="0"
   inkscape:current-layer="Layer_1" />

<rect
   style="fill:#399be2;fill-opacity:1;stroke-width:3.1"
   id="rect11752"
   width="74.557625"
   height="74.400002"
   x="-2.6028694e-08"
   y="0"
   d="m 10,0 h 54.557625 a 10,10 45 0 1 10,10 v 54.400002 a 10,10 135 0 1 -10,10 H 10 A 10,10 45 0 1 -2.6028694e-8,64.400002 V 10 A 10,10 135 0 1 10,0 Z"
   inkscape:path-effect="#path-effect11754" /><g
   id="g1516"
   transform="matrix(1.9717719,0,0,1.9717719,-10.382717,-10.210284)"><circle
     class="cls-1"
     cx="24.129999"
     cy="24.040001"
     r="24"
     id="circle1500"
     style="display:none" /><path
     class="cls-2"
     d="m 11.26,25 c 0.81,-0.84 1.59,-1.72 2.44,-2.53 a 1.2,1.2 0 0 1 1.74,0.11 c 1.46,1.48 2.94,2.94 4.41,4.42 a 4.25,4.25 0 0 1 0.39,0.53 c 0.24,-0.22 0.39,-0.36 0.54,-0.51 3.73,-3.75 7.48,-7.48 11.19,-11.25 a 1.38,1.38 0 0 1 2.27,0 c 0.53,0.6 1.14,1.14 1.71,1.72 a 1.24,1.24 0 0 1 0,1.88 q -7.34,7.34 -14.68,14.66 a 1.23,1.23 0 0 1 -1.91,0 Q 15.51,30.2 11.67,26.34 C 11.5,26.17 11.39,25.97 11.24,25.8 11.26,25.56 11.26,25.28 11.26,25 Z"
     id="path1502" /><path
     class="cls-2"
     d="m 11.68,24.1 v 0 c 0.26,-0.28 0.54,-0.56 0.81,-0.86 V 24 A 11.76,11.76 0 0 1 24.24,12.26 10.41,10.41 0 0 1 32.06,15.2 1.86,1.86 0 0 1 32.94,14.69 11.47,11.47 0 0 0 24.26,11.28 12.75,12.75 0 0 0 11.51,24 c 0,0.38 0,-0.22 0,0.15 z"
     id="path1504" /><path
     class="cls-2"
     d="m 36.16,19.54 -0.77,0.77 A 11.73,11.73 0 0 1 24.26,35.8 c -5.38,0 -9.75,-3 -11.31,-7.69 l -1.29,-1.29 c 1.29,6.08 6.23,10 12.6,10 a 12.68,12.68 0 0 0 11.9,-17.28 z"
     id="path1506" /></g></svg>
