<?xml version="1.0" encoding="UTF-8" standalone="no"?>
<!-- Generator: Adobe Illustrator 25.2.1, SVG Export Plug-In . SVG Version: 6.00 Build 0)  -->

<svg
   width="24px"
   height="24px"
   version="1.1"
   id="Layer_1"
   x="0px"
   y="0px"
   viewBox="0 0 74.4 74.4"
   style="enable-background:new 0 0 74.4 74.4;"
   xml:space="preserve"
   preserveAspectRatio="xMinYMid meet"
   sodipodi:docname="icon.svg"
   inkscape:version="1.2.1 (9c6d41e4, 2022-07-14)"
   xmlns:inkscape="http://www.inkscape.org/namespaces/inkscape"
   xmlns:sodipodi="http://sodipodi.sourceforge.net/DTD/sodipodi-0.dtd"
   xmlns="http://www.w3.org/2000/svg"
   xmlns:svg="http://www.w3.org/2000/svg"><defs
   id="defs93"><inkscape:path-effect
     effect="fillet_chamfer"
     id="path-effect11754"
     is_visible="true"
     lpeversion="1"
     nodesatellites_param="F,0,0,1,0,10,0,1 @ F,0,0,1,0,10,0,1 @ F,0,0,1,0,10,0,1 @ F,0,0,1,0,10,0,1"
     unit="px"
     method="auto"
     mode="F"
     radius="10"
     chamfer_steps="1"
     flexible="false"
     use_knot_distance="true"
     apply_no_radius="true"
     apply_with_radius="true"
     only_selected="false"
     hide_knots="false" /><inkscape:path-effect
     effect="fillet_chamfer"
     id="path-effect11738"
     is_visible="true"
     lpeversion="1"
     nodesatellites_param="F,0,0,1,0,0,0,1 @ F,0,0,1,0,0,0,1 @ F,0,0,1,0,0,0,1 @ F,0,0,1,0,0,0,1 @ F,0,0,1,0,0,0,1 @ F,0,0,1,0,0,0,1 @ F,0,0,1,0,0,0,1 @ F,0,0,1,0,0,0,1"
     unit="px"
     method="auto"
     mode="F"
     radius="0"
     chamfer_steps="1"
     flexible="false"
     use_knot_distance="true"
     apply_no_radius="true"
     apply_with_radius="true"
     only_selected="false"
     hide_knots="false" /><inkscape:path-effect
     effect="bspline"
     id="path-effect11734"
     is_visible="true"
     lpeversion="1"
     weight="33.333333"
     steps="2"
     helper_size="0"
     apply_no_weight="true"
     apply_with_weight="true"
     only_selected="false" /></defs><sodipodi:namedview
   id="namedview91"
   pagecolor="#ffffff"
   bordercolor="#000000"
   borderopacity="0.25"
   inkscape:showpageshadow="2"
   inkscape:pageopacity="0.0"
   inkscape:pagecheckerboard="0"
   inkscape:deskcolor="#d1d1d1"
   showgrid="false"
   inkscape:zoom="97.815776"
   inkscape:cx="15.355396"
   inkscape:cy="15.897231"
   inkscape:window-width="1920"
   inkscape:window-height="1200"
   inkscape:window-x="0"
   inkscape:window-y="0"
   inkscape:window-maximized="0"
   inkscape:current-layer="g232" />

<rect
   style="fill:#f7634d;fill-opacity:1;stroke-width:3.1"
   id="rect11752"
   width="74.557625"
   height="74.400002"
   x="-2.6028694e-08"
   y="0"
   inkscape:path-effect="#path-effect11754"
   d="m 10,0 h 54.557625 a 10,10 45 0 1 10,10 v 54.400002 a 10,10 135 0 1 -10,10 H 10 A 10,10 45 0 1 -2.6028694e-8,64.400002 V 10 A 10,10 135 0 1 10,0 Z" /><style
   type="text/css"
   id="style191">
	.st0{fill:#FFFFFF;}
</style><g
   id="g232"
   transform="matrix(0.62668464,0,0,0.62668464,13.824663,13.840135)"
   style="display:inline"><path
     d="m 22.9,23.8 c 0.1,0 0.2,0 0.3,0 0.1,-2.1 0.6,-3.9 1.3,-5.5 -3.6,0.9 -8,-1.2 -8.2,-6.1 0.1,-3.5 3.2,-6.2 6.8,-6.1 3.4,0.1 6.1,2.8 6.3,6.1 0,0.2 0,0.3 0,0.5 1.6,-1 3.3,-1.6 5.1,-2 C 32.6,-3 11.7,-2.6 11,12.2 c 0,6.3 5.3,11.6 11.9,11.6 z"
     id="path193" /><g
     id="g199">
	<path
   d="m 43.9,35.9 c -0.8,0.4 -1.6,0.8 -2.5,1.1 1.2,0.1 2.3,0.3 3.4,0.6 -0.2,-0.6 -0.5,-1.2 -0.9,-1.7 z"
   id="path195" />
	<path
   d="M 16.3,44.5 H 5.5 V 43 c 0.3,-4.7 4.5,-7.5 8.6,-9.1 2.9,-1.1 6,-1.7 9,-1.7 1,0 2,0.1 3.1,0.2 -1.3,-1.6 -2.2,-3.4 -2.6,-5.5 -0.1,0 -0.2,0 -0.3,0 0,0 -0.1,0 -0.1,0 0,0 -0.1,0 -0.1,0 -0.1,0 -0.3,0 -0.4,0 -0.5,0 -0.9,0 -1.4,0 -5.1,0.2 -10.1,1.7 -14.4,4.5 -4.4,2.9 -6.7,6.9 -6.7,11.2 v 4.2 c 0,1.5 1.1,2.7 2.7,2.8 h 10.3 c 0.6,-1.8 1.7,-3.5 3.1,-5.1 z"
   id="path197" />
</g><g
     id="g205">
	<path
   d="M 37.1,35 C 43.6,35 48.8,29.9 48.8,23.4 48.2,8.1 25.9,8.1 25.2,23.4 25.2,29.7 30.5,35 37.1,35 Z M 30.5,23.4 c 0.1,-3.5 3.2,-6.2 6.8,-6.1 3.4,0.1 6.1,2.8 6.3,6.1 -0.4,8.4 -12.8,8.4 -13.1,0 z"
   id="path201" />
	<path
   d="m 53.5,42.6 c -4.3,-2.8 -9.3,-4.3 -14.4,-4.5 -0.5,0 -0.9,0 -1.4,0 -0.1,0 -0.3,0 -0.4,0 0,0 -0.1,0 -0.1,0 0,0 -0.1,0 -0.1,0 -0.1,0 -0.3,0 -0.4,0 -0.5,0 -0.9,0 -1.4,0 -5.1,0.2 -10.1,1.7 -14.4,4.5 -4.4,2.9 -6.7,6.9 -6.7,11.2 V 58 c 0,1.5 1.1,2.7 2.7,2.8 h 40.6 c 1.6,-0.1 2.7,-1.3 2.7,-2.8 v -4.2 c 0,-4.3 -2.3,-8.3 -6.7,-11.2 z m 1.3,13.1 H 19.7 v -1.5 c 0.3,-4.7 4.5,-7.5 8.6,-9.1 2.9,-1.1 6,-1.7 9,-1.7 3,0 6.1,0.6 9,1.7 4,1.6 8.3,4.4 8.6,9.1 v 1.5 z"
   id="path203" />
</g><path
     class="st0"
     d="M 74.3,59.3 C 73,57.2 71.2,55.4 68.8,53.8 64.9,51.3 60.4,49.7 55.6,49.2 c 5.5,-1.8 9.3,-6.8 9.3,-12.9 v 0 0 C 64.5,27.1 57.5,22.9 51.1,22.9 c -6.4,0 -13.4,4.2 -13.8,13.4 v 0 0 c 0,6 4.1,11.2 9.6,12.9 -4.7,0.6 -9.1,2.1 -12.9,4.6 -4.9,3.2 -7.6,7.8 -7.6,12.9 v 4.2 c 0,1.1 0.4,2.1 1,2.9 H 74.2 V 59.3 Z m -27.7,-23 c 0.1,-2.3 2.2,-4.1 4.6,-4.1 h 0.1 c 2.3,0.1 4.2,1.9 4.4,4.1 -0.2,3 -2.4,4.3 -4.6,4.3 -1.9,0 -4.3,-1.1 -4.5,-4.3 z"
     id="path207" /><g
     id="g213">
	<path
   d="m 51.2,47.9 c 6.5,0 11.7,-5.1 11.7,-11.6 C 62.3,21 40,21 39.3,36.3 c 0,6.3 5.3,11.6 11.9,11.6 z"
   id="path209" />
	<path
   d="M 67.7,55.5 C 63.4,52.7 58.4,51.2 53.3,51 c -0.5,0 -0.9,0 -1.4,0 -0.1,0 -0.3,0 -0.4,0 0,0 -0.1,0 -0.1,0 0,0 -0.1,0 -0.1,0 -0.1,0 -0.3,0 -0.4,0 -0.5,0 -0.9,0 -1.4,0 -5.1,0.2 -10.1,1.7 -14.4,4.5 -4.4,2.9 -6.7,6.9 -6.7,11.2 v 4.2 c 0,1.5 1.1,2.7 2.7,2.8 h 40.6 c 1.6,-0.1 2.7,-1.3 2.7,-2.8 v -4.2 c 0,-4.3 -2.3,-8.3 -6.7,-11.2 z"
   id="path211" />
</g><path
     style="fill:#ffffff;stroke-width:0.0356014"
     d="M 11.619219,11.496729 C 10.838651,11.382057 10.16784,10.894467 9.8068736,10.179396 9.50051,9.5724931 9.510782,8.8166981 9.8344181,8.1527252 10.008007,7.7965899 10.430395,7.3685298 10.794333,7.1799205 c 1.115111,-0.5779011 2.541185,-0.2191697 3.160937,0.7951393 0.144584,0.2366327 0.292609,0.6633282 0.32463,0.9357801 0.02327,0.1979616 0.02269,0.1995812 -0.07915,0.2220714 -0.219118,0.04839 -0.566977,0.167676 -0.730256,0.2504157 -0.09405,0.047658 -0.175979,0.086651 -0.182069,0.086651 -0.0061,0 -0.01132,-0.1161496 -0.01163,-0.2581103 -4.38e-4,-0.2032703 -0.02062,-0.3016241 -0.09499,-0.4629126 -0.131941,-0.2861481 -0.40546,-0.5641223 -0.677793,-0.6888329 -0.19261,-0.088203 -0.263347,-0.1012451 -0.541938,-0.099919 -0.405254,0.00193 -0.653323,0.092243 -0.918128,0.3342599 -0.227917,0.2083031 -0.368072,0.454101 -0.40746,0.7145873 -0.131809,0.8716918 0.589868,1.5756036 1.492845,1.4560966 0.103817,-0.01374 0.192904,-0.02151 0.197973,-0.01727 0.0051,0.0042 -0.03697,0.110365 -0.09341,0.235835 -0.105231,0.233912 -0.218414,0.63465 -0.218414,0.773323 0,0.08718 -0.04342,0.09153 -0.39626,0.0397 z"
     id="path544"
     transform="matrix(4.9466666,0,0,4.9466666,-22.06,-22.084688)" /><path
     style="fill:#ffffff;stroke-width:0.0356014"
     d="M 8.5647053,9.2010802 C 8.2704525,9.1372671 7.8912103,8.9551762 7.6110183,8.7431726 6.447616,7.8628991 6.4137536,6.1103405 7.5419654,5.1693232 7.9487347,4.8300456 8.4786849,4.6509861 9.0783621,4.6502055 c 1.1085799,-0.00144 1.9388239,0.5976269 2.2566359,1.6282949 0.04139,0.1342328 0.07526,0.2640252 0.07526,0.2884277 0,0.024464 -0.104178,0.072568 -0.232222,0.1072275 -0.127721,0.034573 -0.345305,0.1170537 -0.48352,0.1832911 -0.138214,0.066237 -0.25592,0.1204316 -0.261568,0.1204316 -0.0056,0 -0.01804,-0.06891 -0.02753,-0.1531338 C 10.360675,6.42781 10.019216,5.9676897 9.6391116,5.7921412 9.4974355,5.7267091 9.4064015,5.7140279 9.0783621,5.7140279 c -0.3619062,0 -0.4071446,0.00787 -0.5963116,0.1036748 -0.2651095,0.134273 -0.4964175,0.3647476 -0.6213054,0.6190667 -0.085451,0.17401 -0.099612,0.2459771 -0.09947,0.5055075 1.424e-4,0.2578951 0.01529,0.3354097 0.1025151,0.5245624 0.226152,0.490421 0.7608157,0.7968245 1.3044187,0.7475322 L 9.3742278,8.1956904 9.2904149,8.4421106 C 9.2443177,8.5776417 9.1879204,8.8162947 9.1650874,8.97245 L 9.123573,9.2563692 8.9585619,9.2535389 C 8.8678058,9.2519831 8.6905703,9.2283758 8.5647053,9.2010802 Z"
     id="path546"
     transform="matrix(4.9466666,0,0,4.9466666,-22.06,-22.084688)" /><path
     style="fill:#ffffff;stroke-width:0.0356014"
     d="M 4.9290607,14.44254 C 4.7670835,14.388994 4.6750614,14.320124 4.589738,14.188591 4.528183,14.093698 4.5216031,14.015754 4.5236183,13.405359 4.526085,12.658234 4.5627091,12.44634 4.7570947,12.054554 5.0807566,11.40221 5.6096189,10.918585 6.4560636,10.500912 7.1717103,10.147781 7.8713445,9.9735666 8.6956468,9.9432394 c 0.5350143,-0.019684 0.5429217,-0.01888 0.5429217,0.055181 0,0.1182056 0.1615834,0.5172326 0.2934237,0.7246026 0.066023,0.103847 0.1295924,0.204833 0.1412654,0.224414 0.013811,0.02317 -0.1920697,0.0358 -0.5894478,0.03618 -0.6772319,6.48e-4 -1.0656452,0.06469 -1.6566594,0.273136 -1.201244,0.423678 -1.8555282,1.117638 -1.8555282,1.968046 v 0.268134 h 1.0502419 c 0.5776331,0 1.0502419,0.0085 1.0502419,0.01885 0,0.01037 -0.063913,0.0997 -0.1420296,0.198529 -0.078116,0.09882 -0.2089004,0.314632 -0.2906314,0.479572 l -0.1486018,0.299891 -1.0177208,-0.0027 c -0.6759965,-0.0018 -1.0601428,-0.01676 -1.1440617,-0.0445 z"
     id="path548"
     transform="matrix(4.9466666,0,0,4.9466666,-22.06,-22.084688)" /><path
     style="fill:#ffffff;stroke-width:0.0356014"
     d="M 7.6220077,16.648102 C 7.3810362,16.502239 7.3548897,16.410729 7.3531855,15.707254 7.351019,14.812939 7.4715006,14.377859 7.8651867,13.858331 8.5921398,12.899008 10.26498,12.177863 11.767744,12.175978 l 0.232883,-2.92e-4 0.06006,0.255915 c 0.03303,0.140753 0.116478,0.374715 0.185433,0.519915 0.06896,0.145201 0.125373,0.271852 0.125373,0.281447 0,0.0096 -0.07748,0.0068 -0.172182,-0.0062 -0.201063,-0.02765 -0.876568,0.0305 -1.232242,0.106077 -0.643061,0.136649 -1.35338,0.445302 -1.7819026,0.774287 -0.2913334,0.223662 -0.5789581,0.601927 -0.6717006,0.883377 -0.035076,0.106444 -0.072803,0.317696 -0.083839,0.469447 l -0.020065,0.275911 h 1.1827677 1.1827675 l -0.210459,0.233185 C 10.448886,16.097299 10.2834,16.32113 10.19689,16.466449 l -0.15729,0.264216 -1.1392446,8.37e-4 c -1.1356207,8.33e-4 -1.139688,5.66e-4 -1.2783473,-0.08337 z"
     id="path550"
     transform="matrix(4.9466666,0,0,4.9466666,-22.06,-22.084688)" /><path
     style="fill:#ffffff;stroke-width:0.0356014"
     d="m 14.347372,14.083383 c -0.343554,-0.07959 -0.608671,-0.193219 -0.890276,-0.381568 -0.637368,-0.426297 -1.026331,-1.142883 -1.021629,-1.882144 0.0065,-1.018775 0.630936,-1.8764492 1.59666,-2.1929684 0.279801,-0.091706 0.36528,-0.1033227 0.760263,-0.1033227 0.497925,0 0.794133,0.069327 1.192648,0.2791382 0.304357,0.1602387 0.718912,0.5835939 0.884043,0.9028119 0.352919,0.682232 0.365509,1.469716 0.03423,2.141158 -0.162239,0.32883 -0.556844,0.756002 -0.869326,0.941073 -0.485746,0.287687 -1.189171,0.411064 -1.686614,0.295822 z"
     id="path552"
     transform="matrix(4.9466666,0,0,4.9466666,-22.06,-22.084688)" /><path
     style="fill:#f7634d;stroke-width:0.0356014;fill-opacity:1"
     d="m 10.493193,19.26056 c -0.236656,-0.14429 -0.257503,-0.223638 -0.257652,-0.980651 -9.5e-5,-0.487477 0.01496,-0.73744 0.05362,-0.890036 0.0751,-0.296453 0.301975,-0.74275 0.505381,-0.994177 0.493472,-0.609974 1.423449,-1.153865 2.405377,-1.406771 0.622647,-0.160369 0.907864,-0.192679 1.681472,-0.19048 0.825386,0.0023 1.31339,0.07298 1.93666,0.280294 1.531666,0.509482 2.471903,1.423958 2.63843,2.566143 0.02325,0.159491 0.03663,0.521601 0.02983,0.807399 -0.01365,0.573228 -0.03442,0.632737 -0.278984,0.799187 l -0.117696,0.0801 -4.240204,-1.42e-4 c -4.168262,-1.22e-4 -4.242173,-0.0013 -4.356235,-0.07087 z"
     id="path554"
     transform="matrix(4.9466666,0,0,4.9466666,-22.06,-22.084688)" /><path
     style="fill:#f7634d;fill-opacity:1;stroke-width:0.0102233"
     d="m 16.280605,14.495658 c -0.104022,-0.02157 -0.268162,-0.04967 -0.364755,-0.06244 -0.09659,-0.01277 -0.173953,-0.0249 -0.171911,-0.02694 0.002,-0.002 0.05807,-0.0256 0.124508,-0.05235 0.120781,-0.04864 0.307972,-0.139799 0.388376,-0.189142 l 0.04267,-0.02619 0.04097,0.07423 c 0.06202,0.112371 0.152308,0.326289 0.136485,0.323376 -0.004,-7.3e-4 -0.09232,-0.01898 -0.196345,-0.04055 z"
     id="path1174"
     transform="matrix(4.9466666,0,0,4.9466666,-22.06,-22.084688)" /><rect
     style="fill:#f7634d;fill-opacity:1;stroke-width:4.94667"
     id="rect1230"
     width="45.109562"
     height="10.013108"
     x="30.382391"
     y="64.594444" /><path
     style="fill:#f7634d;fill-opacity:1;stroke-width:0.0102233"
     d="m 14.491527,14.103585 c -0.327054,-0.04711 -0.695376,-0.189615 -0.996771,-0.38565 -0.522847,-0.340072 -0.892921,-0.878243 -1.011138,-1.470422 -0.124445,-0.623376 0.03478,-1.308563 0.422866,-1.819747 0.08334,-0.109776 0.26702,-0.299204 0.373582,-0.385277 0.242488,-0.1958628 0.526321,-0.3432957 0.840436,-0.436553 0.226018,-0.067102 0.269466,-0.072124 0.626608,-0.072432 0.345979,-2.98e-4 0.455621,0.00847 0.653097,0.052241 0.301634,0.066854 0.619119,0.218491 0.847278,0.4046749 0.169964,0.1386961 0.346998,0.3249891 0.479256,0.5043221 0.21898,0.296923 0.367446,0.718385 0.403262,1.144773 0.03989,0.474918 -0.08908,1.005663 -0.335308,1.379857 -0.165168,0.251006 -0.427902,0.526367 -0.665708,0.697701 -0.233673,0.168356 -0.625295,0.314213 -1.010535,0.376367 -0.139538,0.02251 -0.500518,0.02835 -0.626925,0.01015 z"
     id="path1348"
     transform="matrix(4.9466666,0,0,4.9466666,-22.06,-22.084688)" /></g></svg>
