<?xml version="1.0" encoding="UTF-8" standalone="no"?>
<!-- Generator: Adobe Illustrator 25.2.1, SVG Export Plug-In . SVG Version: 6.00 Build 0)  -->

<svg
   width="24px"
   height="24px"
   version="1.1"
   id="Layer_1"
   x="0px"
   y="0px"
   viewBox="0 0 74.4 74.4"
   style="enable-background:new 0 0 74.4 74.4;"
   xml:space="preserve"
   preserveAspectRatio="xMinYMid meet"
   sodipodi:docname="icon.svg"
   inkscape:version="1.2.1 (9c6d41e4, 2022-07-14)"
   xmlns:inkscape="http://www.inkscape.org/namespaces/inkscape"
   xmlns:sodipodi="http://sodipodi.sourceforge.net/DTD/sodipodi-0.dtd"
   xmlns="http://www.w3.org/2000/svg"
   xmlns:svg="http://www.w3.org/2000/svg"><defs
   id="defs93"><inkscape:path-effect
     effect="fillet_chamfer"
     id="path-effect11754"
     is_visible="true"
     lpeversion="1"
     nodesatellites_param="F,0,0,1,0,10,0,1 @ F,0,0,1,0,10,0,1 @ F,0,0,1,0,10,0,1 @ F,0,0,1,0,10,0,1"
     unit="px"
     method="auto"
     mode="F"
     radius="10"
     chamfer_steps="1"
     flexible="false"
     use_knot_distance="true"
     apply_no_radius="true"
     apply_with_radius="true"
     only_selected="false"
     hide_knots="false" /><inkscape:path-effect
     effect="fillet_chamfer"
     id="path-effect11738"
     is_visible="true"
     lpeversion="1"
     nodesatellites_param="F,0,0,1,0,0,0,1 @ F,0,0,1,0,0,0,1 @ F,0,0,1,0,0,0,1 @ F,0,0,1,0,0,0,1 @ F,0,0,1,0,0,0,1 @ F,0,0,1,0,0,0,1 @ F,0,0,1,0,0,0,1 @ F,0,0,1,0,0,0,1"
     unit="px"
     method="auto"
     mode="F"
     radius="0"
     chamfer_steps="1"
     flexible="false"
     use_knot_distance="true"
     apply_no_radius="true"
     apply_with_radius="true"
     only_selected="false"
     hide_knots="false" /><inkscape:path-effect
     effect="bspline"
     id="path-effect11734"
     is_visible="true"
     lpeversion="1"
     weight="33.333333"
     steps="2"
     helper_size="0"
     apply_no_weight="true"
     apply_with_weight="true"
     only_selected="false" /></defs><sodipodi:namedview
   id="namedview91"
   pagecolor="#ffffff"
   bordercolor="#000000"
   borderopacity="0.25"
   inkscape:showpageshadow="2"
   inkscape:pageopacity="0.0"
   inkscape:pagecheckerboard="0"
   inkscape:deskcolor="#d1d1d1"
   showgrid="false"
   inkscape:zoom="19.666667"
   inkscape:cx="9.8135592"
   inkscape:cy="10.423729"
   inkscape:window-width="1440"
   inkscape:window-height="900"
   inkscape:window-x="0"
   inkscape:window-y="278"
   inkscape:window-maximized="0"
   inkscape:current-layer="Layer_1" />

<rect
   style="fill:#f7634d;fill-opacity:1;stroke-width:3.1"
   id="rect11752"
   width="74.557625"
   height="74.400002"
   x="-2.6028694e-08"
   y="0"
   inkscape:path-effect="#path-effect11754"
   d="m 10,0 h 54.557625 a 10,10 45 0 1 10,10 v 54.400002 a 10,10 135 0 1 -10,10 H 10 A 10,10 45 0 1 -2.6028694e-8,64.400002 V 10 A 10,10 135 0 1 10,0 Z" /><g
   transform="matrix(0.00474486,0,0,-0.00474486,13.475417,-1156.9995)"
   id="g246"><path
     d="M 362.6,3846.9 C 242.5,3790.7 158.1,3696.1 122.3,3565.7 101.9,3504.4 96.7,2527.9 101.9,541.6 c 7.7,-2914.1 7.7,-2932 61.3,-3001 28.1,-38.3 84.4,-94.6 122.7,-122.7 69,-53.7 84.4,-53.7 3111,-61.3 l 3039.4,-5.1 v 204.5 204.5 H 3471 505.7 l 5.1,2857.9 7.7,2855.4 4493.9,7.7 4491.4,5.1 v -2863 -2863 H 9197 8890.3 v -207.1 -204.5 l 380.9,7.7 c 416.7,7.7 455,20.4 575.2,184.1 53.7,69 53.7,79.2 53.7,3082.8 0,3003.6 0,3013.8 -53.7,3082.9 -28.1,38.3 -84.4,94.6 -122.7,122.7 l -69,53.7 -4593.6,5.1 c -4427.6,7.4 -4596.3,4.9 -4698.5,-41.1 z"
     id="path232" /><path
     d="m 1323.7,2668.4 v -204.5 h 3681 3681 v 204.5 204.5 h -3681 -3681 z"
     id="path234" /><path
     d="m 1323.7,1441.4 v -204.5 h 3681 3681 v 204.5 204.5 h -3681 -3681 z"
     id="path236" /><path
     d="m 7548.2,597.9 c -28.1,-10.2 -92,-63.9 -140.6,-115 l -89.5,-92 -173.8,15.3 c -135.5,15.3 -184.1,10.2 -235.2,-23 -92,-61.3 -143.1,-148.3 -161,-288.9 -17.9,-115 -25.6,-127.8 -153.4,-194.3 -74.1,-40.9 -153.4,-99.7 -173.8,-135.5 -58.8,-89.5 -48.6,-237.8 25.6,-368.1 l 63.9,-109.9 -66.5,-127.8 c -117.6,-235.2 -76.7,-373.2 150.8,-495.9 130.4,-69 135.5,-76.7 153.4,-207.1 38.3,-253.1 143.1,-329.8 406.4,-301.6 l 155.9,17.9 127.8,-120.1 c 120.2,-112.5 132.9,-117.6 242.9,-104.8 92,10.2 138,33.2 222.4,117.6 l 107.3,104.8 184.1,-15.3 181.5,-17.9 89.5,89.5 c 71.6,71.6 89.5,115 104.8,230.1 17.9,140.6 20.4,143.1 148.3,201.9 222.4,104.8 281.2,288.9 158.5,498.5 l -66.5,112.3 66.5,125.3 c 117.6,232.6 69,386 -153.4,495.9 -132.9,63.9 -135.5,66.5 -153.4,209.6 -12.8,107.4 -35.8,166.1 -89.5,224.9 -69,79.2 -79.2,81.8 -278.6,81.8 -194.3,0 -207.1,5.1 -288.9,79.2 -140.5,135.6 -240.2,166.2 -365.5,112.6 z m 475.5,-613.5 c 143.2,0 150.8,-2.5 163.6,-69 28.1,-135.5 99.7,-242.9 196.8,-296.5 63.9,-35.8 94.6,-69 86.9,-94.6 -76.7,-232.6 -79.2,-255.6 -30.7,-388.6 43.4,-127.8 43.4,-130.4 -2.6,-155.9 -102.2,-58.8 -209.6,-194.3 -237.7,-301.6 l -28.1,-112.5 -132.9,7.7 c -117.6,7.7 -150.8,-2.5 -265.9,-79.2 -132.9,-89.5 -132.9,-89.5 -178.9,-38.3 -79.2,86.9 -184.1,127.8 -319.5,120.2 l -130.4,-7.7 -30.7,120.2 c -33.2,135.5 -109.9,227.5 -219.8,273.5 -84.4,35.8 -86.9,40.9 -35.8,127.8 48.6,84.3 48.6,288.8 0,380.9 -35.8,71.6 -33.2,74.1 58.8,132.9 115,76.7 209.6,212.2 209.6,304.2 0,69 2.5,71.6 178.9,81.8 161,7.7 189.2,17.9 258.2,89.5 l 81.8,79.2 112.5,-86.9 c 99.7,-76.9 133,-87.1 265.9,-87.1 z"
     id="path238" /><path
     d="M 1323.7,214.4 V 9.9 H 3471 5618.3 V 214.4 418.9 H 3471 1323.7 Z"
     id="path240" /><path
     d="m 1323.7,-1012.6 v -204.5 H 3471 5618.3 v 204.5 204.5 H 3471 1323.7 Z"
     id="path242" /><path
     d="m 6691.9,-2853.1 c 0,-449.9 7.7,-818 15.3,-818 7.7,0 219.9,166.2 470.4,370.7 250.5,204.5 467.8,370.7 483.1,370.7 12.8,0 217.3,-155.9 455,-347.6 235.2,-191.7 444.8,-360.4 462.7,-375.8 23,-17.9 30.7,143.1 30.7,797.5 v 820.6 h -204.5 -204.5 v -396.2 -396.2 l -268.4,219.8 c -189.2,153.4 -278.6,212.2 -301.6,194.3 -17.9,-12.8 -140.6,-112.5 -273.5,-219.9 l -242.9,-196.8 -7.7,398.8 -7.7,396.2 h -202 -204.5 v -818.1 z"
     id="path244" /></g><g
   style="fill:none"
   id="g713"
   transform="matrix(0.1984,0,0,0.1984,12.4,12.4)"><path
     fill="#0096ff"
     d="m 73.2,99.4 -2.6,16.5 H 96.9 C 76.2,134.6 65,163.7 65,182.5 c 0,13.9 4.4,24.7 13.3,32.1 7.1,6 16.9,9.3 29.1,10.1 l 1.2,0.1 V 219 l -0.9,-0.2 C 96.6,216.3 78.1,208.9 77.9,186.4 77.8,169.6 95.1,138.2 115.1,125 l -5.3,30.5 h 16.9 l 9.5,-56 z"
     id="path700" /><path
     fill="#0096ff"
     d="m 89.6,25 c -8.7,0 -15.8,7.1 -15.9,15.7 l -0.6,44.2 9.1,0.1 h 9 l 0.5,-41.9 h 74.4 l 0.5,113.5 h -23.8 l -3.1,18.1 h 29.1 c 8.7,0 15.9,-7.9 16,-16.6 L 184.5,25 Z"
     id="path702"
     style="fill:#ffffff" /></g><path
   style="fill:#ffffff;stroke-width:0.0508475"
   d="M 10.271186,18.273105 C 8.2332704,17.846345 7.6279901,15.886301 8.7753956,13.429375 9.0432146,12.855897 9.4560013,12.246256 9.8941615,11.777078 L 10.255808,11.38983 H 9.4118023 c -0.6415112,0 -0.8439137,-0.01525 -0.8436217,-0.06356 4.745e-4,-0.07851 0.092818,-0.682983 0.1281697,-0.838983 l 0.025926,-0.114407 h 1.9861217 1.986123 l -0.02803,0.139831 c -0.01542,0.07691 -0.14311,0.826271 -0.283759,1.665254 -0.14065,0.838983 -0.267578,1.576907 -0.282062,1.63983 -0.02517,0.109345 -0.04903,0.114407 -0.539353,0.114407 -0.505955,0 -0.512654,-0.0016 -0.486574,-0.114407 0.09058,-0.391895 0.302372,-1.771192 0.276014,-1.797549 -0.07638,-0.07638 -0.850634,0.662841 -1.230337,1.174668 -0.7881983,1.062466 -1.1782594,2.053868 -1.1327123,2.878966 0.050574,0.916168 0.5718387,1.535765 1.5607893,1.855222 0.308672,0.09971 0.334019,0.119124 0.348794,0.267176 0.01454,0.145704 0.0034,0.159291 -0.127118,0.155507 -0.07868,-0.0023 -0.303222,-0.03769 -0.498985,-0.07868 z"
   id="path769"
   transform="scale(3.1)" /></svg>
