<?xml version="1.0" encoding="UTF-8" standalone="no"?>
<!-- Generator: Adobe Illustrator 25.2.1, SVG Export Plug-In . SVG Version: 6.00 Build 0)  -->

<svg
   width="24px"
   height="24px"
   version="1.1"
   id="Layer_1"
   x="0px"
   y="0px"
   viewBox="0 0 74.4 74.4"
   style="enable-background:new 0 0 74.4 74.4;"
   xml:space="preserve"
   preserveAspectRatio="xMinYMid meet"
   sodipodi:docname="icon.svg"
   inkscape:version="1.2.1 (9c6d41e4, 2022-07-14)"
   xmlns:inkscape="http://www.inkscape.org/namespaces/inkscape"
   xmlns:sodipodi="http://sodipodi.sourceforge.net/DTD/sodipodi-0.dtd"
   xmlns="http://www.w3.org/2000/svg"
   xmlns:svg="http://www.w3.org/2000/svg"><defs
   id="defs93"><inkscape:path-effect
     effect="fillet_chamfer"
     id="path-effect11754"
     is_visible="true"
     lpeversion="1"
     nodesatellites_param="F,0,0,1,0,11,0,1 @ F,0,0,1,0,11,0,1 @ F,0,0,1,0,11,0,1 @ F,0,0,1,0,11,0,1"
     unit="px"
     method="auto"
     mode="F"
     radius="11"
     chamfer_steps="1"
     flexible="false"
     use_knot_distance="true"
     apply_no_radius="true"
     apply_with_radius="true"
     only_selected="false"
     hide_knots="false" /><inkscape:path-effect
     effect="fillet_chamfer"
     id="path-effect11738"
     is_visible="true"
     lpeversion="1"
     nodesatellites_param="F,0,0,1,0,0,0,1 @ F,0,0,1,0,0,0,1 @ F,0,0,1,0,0,0,1 @ F,0,0,1,0,0,0,1 @ F,0,0,1,0,0,0,1 @ F,0,0,1,0,0,0,1 @ F,0,0,1,0,0,0,1 @ F,0,0,1,0,0,0,1"
     unit="px"
     method="auto"
     mode="F"
     radius="0"
     chamfer_steps="1"
     flexible="false"
     use_knot_distance="true"
     apply_no_radius="true"
     apply_with_radius="true"
     only_selected="false"
     hide_knots="false" /><inkscape:path-effect
     effect="bspline"
     id="path-effect11734"
     is_visible="true"
     lpeversion="1"
     weight="33.333333"
     steps="2"
     helper_size="0"
     apply_no_weight="true"
     apply_with_weight="true"
     only_selected="false" /><style
     id="style338">.cls-1{fill:#09c;}.cls-2{fill:#fff;}</style></defs><sodipodi:namedview
   id="namedview91"
   pagecolor="#ffffff"
   bordercolor="#000000"
   borderopacity="0.25"
   inkscape:showpageshadow="2"
   inkscape:pageopacity="0.0"
   inkscape:pagecheckerboard="0"
   inkscape:deskcolor="#d1d1d1"
   showgrid="false"
   inkscape:zoom="19.666667"
   inkscape:cx="9.2542371"
   inkscape:cy="10.474576"
   inkscape:window-width="2560"
   inkscape:window-height="1080"
   inkscape:window-x="1440"
   inkscape:window-y="0"
   inkscape:window-maximized="0"
   inkscape:current-layer="Layer_1" />

<g
   id="g504"><g
     id="g494"><rect
       style="fill:#11a676;fill-opacity:1;stroke-width:3.1"
       id="rect11752"
       width="74.557625"
       height="74.400002"
       x="-2.6028694e-08"
       y="0"
       inkscape:path-effect="#path-effect11754"
       d="m 11,0 h 52.557625 a 11,11 45 0 1 11,11 v 52.400002 a 11,11 135 0 1 -11,11 H 11 A 11,11 45 0 1 -2.6028694e-8,63.400002 V 11 A 11,11 135 0 1 11,0 Z" /><g
       id="g354"
       transform="matrix(1.8580752,0,0,1.8580752,-7.4404125,-7.5215407)"><path
         class="cls-2"
         d="M 13.67,21.52 V 12 c 0,-0.34 0,-0.67 0.32,-0.88 a 1,1 0 0 1 1.09,0.09 6.24,6.24 0 0 1 3.06,4.37 24.18,24.18 0 0 1 0.21,3.3 c 0,3.51 0,7 0,10.52 a 8.79,8.79 0 0 0 0.15,1.57 1.2,1.2 0 0 0 1.07,1 8.46,8.46 0 0 0 1.37,0.13 h 6.71 a 3.59,3.59 0 0 0 0.77,-0.09 1.09,1.09 0 0 0 0.94,-0.94 4.89,4.89 0 0 0 0.09,-0.9 c 0,-1.91 0,-3.82 0,-5.74 0,-1.14 -0.39,-1.5 -1.54,-1.58 a 18.42,18.42 0 0 1 -4,-0.51 6.51,6.51 0 0 1 -3.13,-1.8 6.33,6.33 0 0 1 -1,-1.72 c -0.22,-0.51 0,-0.79 0.56,-0.83 a 12.69,12.69 0 0 1 1.46,0 c 2.21,0 4.42,0.06 6.64,0.06 a 6.13,6.13 0 0 1 5.81,5.27 20,20 0 0 1 0.13,2.36 c 0,1.76 0,3.53 0,5.29 a 6,6 0 0 1 -5.1,5.76 34.36,34.36 0 0 1 -10.56,0 5.82,5.82 0 0 1 -4.84,-5.32 C 13.77,29.5 13.8,27.57 13.8,25.63 c 0,-1.35 0,-2.7 0,-4 z"
         id="path346"
         style="display:inline" /></g></g></g></svg>
