<?xml version="1.0" encoding="UTF-8" standalone="no"?>
<!-- Generator: Adobe Illustrator 25.2.1, SVG Export Plug-In . SVG Version: 6.00 Build 0)  -->

<svg
   width="24px"
   height="24px"
   version="1.1"
   id="Layer_1"
   x="0px"
   y="0px"
   viewBox="0 0 74.4 74.4"
   style="enable-background:new 0 0 74.4 74.4;"
   xml:space="preserve"
   preserveAspectRatio="xMinYMid meet"
   sodipodi:docname="icon.svg"
   inkscape:version="1.2.1 (9c6d41e4, 2022-07-14)"
   xmlns:inkscape="http://www.inkscape.org/namespaces/inkscape"
   xmlns:sodipodi="http://sodipodi.sourceforge.net/DTD/sodipodi-0.dtd"
   xmlns="http://www.w3.org/2000/svg"
   xmlns:svg="http://www.w3.org/2000/svg"><defs
   id="defs93"><inkscape:path-effect
     effect="fillet_chamfer"
     id="path-effect11754"
     is_visible="true"
     lpeversion="1"
     nodesatellites_param="F,0,0,1,0,10,0,1 @ F,0,0,1,0,10,0,1 @ F,0,0,1,0,10,0,1 @ F,0,0,1,0,10,0,1"
     unit="px"
     method="auto"
     mode="F"
     radius="10"
     chamfer_steps="1"
     flexible="false"
     use_knot_distance="true"
     apply_no_radius="true"
     apply_with_radius="true"
     only_selected="false"
     hide_knots="false" /><inkscape:path-effect
     effect="fillet_chamfer"
     id="path-effect11738"
     is_visible="true"
     lpeversion="1"
     nodesatellites_param="F,0,0,1,0,0,0,1 @ F,0,0,1,0,0,0,1 @ F,0,0,1,0,0,0,1 @ F,0,0,1,0,0,0,1 @ F,0,0,1,0,0,0,1 @ F,0,0,1,0,0,0,1 @ F,0,0,1,0,0,0,1 @ F,0,0,1,0,0,0,1"
     unit="px"
     method="auto"
     mode="F"
     radius="0"
     chamfer_steps="1"
     flexible="false"
     use_knot_distance="true"
     apply_no_radius="true"
     apply_with_radius="true"
     only_selected="false"
     hide_knots="false" /><inkscape:path-effect
     effect="bspline"
     id="path-effect11734"
     is_visible="true"
     lpeversion="1"
     weight="33.333333"
     steps="2"
     helper_size="0"
     apply_no_weight="true"
     apply_with_weight="true"
     only_selected="false" /></defs><sodipodi:namedview
   id="namedview91"
   pagecolor="#ffffff"
   bordercolor="#000000"
   borderopacity="0.25"
   inkscape:showpageshadow="2"
   inkscape:pageopacity="0.0"
   inkscape:pagecheckerboard="0"
   inkscape:deskcolor="#d1d1d1"
   showgrid="false"
   inkscape:zoom="19.666667"
   inkscape:cx="9.8135592"
   inkscape:cy="10.423729"
   inkscape:window-width="1440"
   inkscape:window-height="900"
   inkscape:window-x="0"
   inkscape:window-y="278"
   inkscape:window-maximized="0"
   inkscape:current-layer="Layer_1" />

<rect
   style="fill:#11a676;fill-opacity:1;stroke-width:3.1"
   id="rect11752"
   width="74.557625"
   height="74.400002"
   x="-2.6028694e-08"
   y="0"
   inkscape:path-effect="#path-effect11754"
   d="m 10,0 h 54.557625 a 10,10 45 0 1 10,10 v 54.400002 a 10,10 135 0 1 -10,10 H 10 A 10,10 45 0 1 -2.6028694e-8,64.400002 V 10 A 10,10 135 0 1 10,0 Z" /><g
   id="g615"
   transform="matrix(0.7747718,0,0,0.7747718,7.15418,8.607813)"
   style="fill:#ffffff"><g
     id="g6"
     transform="matrix(0.61437607,0,0,0.61437607,15.938639,-3.2574833)"
     style="fill:#ffffff">
	<path
   d="m 62.1,32.3 c -1.7,0 -2.6,1.4 -2.6,3.1 v 22.8 h -45 V 13.3 h 27.8 c 4.1,0.1 4.1,-5.2 0,-5.1 H 12.6 c -1.7,0 -3.1,1.4 -3.1,3.1 v 0 49.1 c 0,1.7 1.3,3.1 3,3.1 v 0 h 49 c 1.7,0 3.1,-1.4 3.1,-3.1 V 35.5 c 0.1,-1.8 -0.8,-3.2 -2.5,-3.2 z"
   id="path2"
   style="fill:#ffffff" />
	<path
   d="m 28.4,30.9 c -1.4,-1 -3.3,-0.7 -4.4,0.6 -1,1.4 -0.7,3.4 0.6,4.5 l 9.5,7 c 1.1,0.8 2.2,1.1 3.4,0 4.4,-4.7 22.1,-24.8 26.4,-29.4 0.9,-1 1.1,-2.4 0.6,-3.6 -0.5,-1.2 -1.7,-1.9 -3,-1.9 -0.8,0 -1.6,0.4 -2.1,1 C 55,13.8 39.7,31.5 35.6,36 Z"
   id="path4"
   style="fill:#ffffff" />
</g><g
     id="g848"
     transform="matrix(0.61634123,0,0,0.61634123,11.967377,33.013025)"
     style="fill:#ffffff">
	<path
   d="m 65.98529,58.1 h -45 V 13.2 l 45,1e-6 z M 67.970812,8.0999997 H 19.08529 c -1.7,0 -3.1,1.4 -3.1,3.1000003 v 0 49.1 c 0,1.7 1.3,3.1 3,3.1 v 0 h 49 c 1.7,0 3.099715,-1.4 3.1,-3.1 l 0.0082,-49.099999 c 0,-1.43976 -1.178469,-3.06019 -3.12272,-3.1000013 z"
   id="path844"
   sodipodi:nodetypes="ccccccsscsscsscc"
   style="fill:#ffffff;fill-opacity:1;stroke:none;stroke-opacity:1" />
	
</g></g></svg>
