<?xml version="1.0" encoding="UTF-8" standalone="no"?>
<!-- Generator: Adobe Illustrator 25.2.1, SVG Export Plug-In . SVG Version: 6.00 Build 0)  -->

<svg
   width="24px"
   height="24px"
   version="1.1"
   id="Layer_1"
   x="0px"
   y="0px"
   viewBox="0 0 74.4 74.4"
   style="enable-background:new 0 0 74.4 74.4;"
   xml:space="preserve"
   preserveAspectRatio="xMinYMid meet"
   sodipodi:docname="icon.svg"
   inkscape:version="1.2.1 (9c6d41e4, 2022-07-14)"
   xmlns:inkscape="http://www.inkscape.org/namespaces/inkscape"
   xmlns:sodipodi="http://sodipodi.sourceforge.net/DTD/sodipodi-0.dtd"
   xmlns="http://www.w3.org/2000/svg"
   xmlns:svg="http://www.w3.org/2000/svg"><defs
   id="defs93"><inkscape:path-effect
     effect="fillet_chamfer"
     id="path-effect11754"
     is_visible="true"
     lpeversion="1"
     nodesatellites_param="F,0,0,1,0,10,0,1 @ F,0,0,1,0,10,0,1 @ F,0,0,1,0,10,0,1 @ F,0,0,1,0,10,0,1"
     unit="px"
     method="auto"
     mode="F"
     radius="10"
     chamfer_steps="1"
     flexible="false"
     use_knot_distance="true"
     apply_no_radius="true"
     apply_with_radius="true"
     only_selected="false"
     hide_knots="false" /><inkscape:path-effect
     effect="fillet_chamfer"
     id="path-effect11738"
     is_visible="true"
     lpeversion="1"
     nodesatellites_param="F,0,0,1,0,0,0,1 @ F,0,0,1,0,0,0,1 @ F,0,0,1,0,0,0,1 @ F,0,0,1,0,0,0,1 @ F,0,0,1,0,0,0,1 @ F,0,0,1,0,0,0,1 @ F,0,0,1,0,0,0,1 @ F,0,0,1,0,0,0,1"
     unit="px"
     method="auto"
     mode="F"
     radius="0"
     chamfer_steps="1"
     flexible="false"
     use_knot_distance="true"
     apply_no_radius="true"
     apply_with_radius="true"
     only_selected="false"
     hide_knots="false" /><inkscape:path-effect
     effect="bspline"
     id="path-effect11734"
     is_visible="true"
     lpeversion="1"
     weight="33.333333"
     steps="2"
     helper_size="0"
     apply_no_weight="true"
     apply_with_weight="true"
     only_selected="false" /></defs><sodipodi:namedview
   id="namedview91"
   pagecolor="#ffffff"
   bordercolor="#000000"
   borderopacity="0.25"
   inkscape:showpageshadow="2"
   inkscape:pageopacity="0.0"
   inkscape:pagecheckerboard="0"
   inkscape:deskcolor="#d1d1d1"
   showgrid="false"
   inkscape:zoom="19.666667"
   inkscape:cx="9.8135592"
   inkscape:cy="10.5"
   inkscape:window-width="1440"
   inkscape:window-height="855"
   inkscape:window-x="0"
   inkscape:window-y="121"
   inkscape:window-maximized="0"
   inkscape:current-layer="Layer_1" />

<rect
   style="fill:#f7634d;fill-opacity:1;stroke-width:3.1"
   id="rect11752"
   width="74.557625"
   height="74.400002"
   x="-2.6028694e-08"
   y="0"
   inkscape:path-effect="#path-effect11754"
   d="m 10,0 h 54.557625 a 10,10 45 0 1 10,10 v 54.400002 a 10,10 135 0 1 -10,10 H 10 A 10,10 45 0 1 -2.6028694e-8,64.400002 V 10 A 10,10 135 0 1 10,0 Z" /><g
   id="g308"
   transform="matrix(3.1,0,0,3.1,-41.140679,-66.20339)"><circle
     cy="24"
     cx="24"
     fill="#f79f1c"
     id="ellipse305"
     r="24"
     style="display:none" /><path
     id="path1"
     fill="#f9f9f9"
     d="m 29.561323,31.584039 c 0,-0.234927 -0.09428,-0.456603 -0.264975,-0.623244 -0.358733,-0.351625 -0.943206,-0.351625 -1.302451,0 -0.34039,0.333789 -0.340901,0.91219 5.1e-4,1.246998 0.359244,0.351116 0.943208,0.351116 1.301941,-5.09e-4 0.170706,-0.167151 0.264975,-0.388317 0.264975,-0.623245 z m 1.000407,0 c 0,0.495335 -0.183826,0.990667 -0.551479,1.351465 -0.75263,0.736888 -1.976609,0.736888 -2.728729,0 l -5.09e-4,-5.09e-4 c -0.367906,-0.360289 -0.570205,-0.839825 -0.570205,-1.350956 0,-0.51113 0.202299,-0.990667 0.570205,-1.350955 0.752629,-0.737396 1.976608,-0.737396 2.729238,-5.11e-4 0.367653,0.360798 0.551479,0.856132 0.551479,1.351466 z m 0.09747,-3.826569 -0.109166,-1.079998 -4.235726,-0.414299 -7.237221,7.087915 0.830576,0.813102 6.923924,-6.78143 z m 1.199508,5.232325 -0.417902,-4.132285 -4.236231,-0.413763 -7.237241,7.087912 4.648038,4.551647 z m 1.062479,0.384745 -8.305815,8.135121 -6.103909,-5.978002 0.667653,-0.653912 -1.557929,-1.526659 8.320104,-8.148885 5.539262,0.542715 0.21343,2.113852 0.67631,0.0662 z"
     style="stroke-width:0.509593" /></g></svg>
