<?xml version="1.0" encoding="UTF-8" standalone="no"?>
<!-- Generator: Adobe Illustrator 25.2.1, SVG Export Plug-In . SVG Version: 6.00 Build 0)  -->

<svg
   width="24px"
   height="24px"
   version="1.1"
   id="Layer_1"
   x="0px"
   y="0px"
   viewBox="0 0 74.4 74.4"
   style="enable-background:new 0 0 74.4 74.4;"
   xml:space="preserve"
   preserveAspectRatio="xMinYMid meet"
   sodipodi:docname="icon.svg"
   inkscape:version="1.2.1 (9c6d41e4, 2022-07-14)"
   xmlns:inkscape="http://www.inkscape.org/namespaces/inkscape"
   xmlns:sodipodi="http://sodipodi.sourceforge.net/DTD/sodipodi-0.dtd"
   xmlns="http://www.w3.org/2000/svg"
   xmlns:svg="http://www.w3.org/2000/svg"><defs
   id="defs93"><inkscape:path-effect
     effect="fillet_chamfer"
     id="path-effect11754"
     is_visible="true"
     lpeversion="1"
     nodesatellites_param="F,0,0,1,0,10,0,1 @ F,0,0,1,0,10,0,1 @ F,0,0,1,0,10,0,1 @ F,0,0,1,0,10,0,1"
     unit="px"
     method="auto"
     mode="F"
     radius="10"
     chamfer_steps="1"
     flexible="false"
     use_knot_distance="true"
     apply_no_radius="true"
     apply_with_radius="true"
     only_selected="false"
     hide_knots="false" /><inkscape:path-effect
     effect="fillet_chamfer"
     id="path-effect11738"
     is_visible="true"
     lpeversion="1"
     nodesatellites_param="F,0,0,1,0,0,0,1 @ F,0,0,1,0,0,0,1 @ F,0,0,1,0,0,0,1 @ F,0,0,1,0,0,0,1 @ F,0,0,1,0,0,0,1 @ F,0,0,1,0,0,0,1 @ F,0,0,1,0,0,0,1 @ F,0,0,1,0,0,0,1"
     unit="px"
     method="auto"
     mode="F"
     radius="0"
     chamfer_steps="1"
     flexible="false"
     use_knot_distance="true"
     apply_no_radius="true"
     apply_with_radius="true"
     only_selected="false"
     hide_knots="false" /><inkscape:path-effect
     effect="bspline"
     id="path-effect11734"
     is_visible="true"
     lpeversion="1"
     weight="33.333333"
     steps="2"
     helper_size="0"
     apply_no_weight="true"
     apply_with_weight="true"
     only_selected="false" /><style
     id="style204">.cls-1{fill:#336;}.cls-2{fill:#fff;}</style><style
     id="style577">.cls-1{fill:#06c;}.cls-2{fill:#fff;}</style><style
     id="style766">.cls-1{fill:#06c;}.cls-2{fill:#fff;}</style><style
     id="style1038">.cls-1{fill:#fff;}.cls-2{fill:#98ca00;}</style><style
     id="style1258">.cls-1{fill:#9c0;}.cls-2{fill:#fff;}</style><style
     id="style1494">.cls-1{fill:#9c0;}.cls-2{fill:#fff;}</style><style
     id="style1922">.cls-1{fill:#06c;}.cls-2{fill:#fff;}</style></defs><sodipodi:namedview
   id="namedview91"
   pagecolor="#ffffff"
   bordercolor="#000000"
   borderopacity="0.25"
   inkscape:showpageshadow="2"
   inkscape:pageopacity="0.0"
   inkscape:pagecheckerboard="0"
   inkscape:deskcolor="#d1d1d1"
   showgrid="false"
   inkscape:zoom="19.666667"
   inkscape:cx="9.2542371"
   inkscape:cy="10.5"
   inkscape:window-width="1440"
   inkscape:window-height="855"
   inkscape:window-x="0"
   inkscape:window-y="121"
   inkscape:window-maximized="0"
   inkscape:current-layer="Layer_1" />

<rect
   style="fill:#399be2;fill-opacity:1;stroke-width:3.1"
   id="rect11752"
   width="74.557625"
   height="74.400002"
   x="-2.6028694e-08"
   y="0"
   d="m 10,0 h 54.557625 a 10,10 45 0 1 10,10 v 54.400002 a 10,10 135 0 1 -10,10 H 10 A 10,10 45 0 1 -2.6028694e-8,64.400002 V 10 A 10,10 135 0 1 10,0 Z"
   inkscape:path-effect="#path-effect11754" /><g
   id="g1937"
   transform="matrix(3.1,0,0,3.1,-45.711865,-41.974003)"><circle
     class="cls-1"
     cx="24"
     cy="24.040001"
     r="24"
     id="circle1928"
     style="display:none" /><path
     id="path1"
     class="cls-2"
     d="m 18.865773,30.60769 v 1.126154 a 0.55999965,0.55999965 0 0 0 0.56,0.559999 h 14.627683 a 0.55999965,0.55999965 0 0 0 0.56,-0.559999 V 30.60769 h -10.68307 v 0.56 h -2.252307 v -0.56 z m 6.203073,-8.166148 v 4.006151 l 1.058461,-0.683077 2.153845,-1.341537 -0.781538,-0.486154 z m -0.301538,-1.372307 a 0.80615334,0.80615334 0 0 1 0.436923,0.12923 l 2.892306,1.803076 1.156922,0.670769 a 0.8430764,0.8430764 0 0 1 0.295385,1.119999 0.97230709,0.97230709 0 0 1 -0.215385,0.264616 l -0.08,0.06154 -2.510768,1.630768 -1.550768,0.923077 a 0.78153797,0.78153797 0 0 1 -0.424615,0.123076 0.80615334,0.80615334 0 0 1 -0.203077,0 0.82461487,0.82461487 0 0 1 -0.523076,-0.418461 0.86153792,0.86153792 0 0 1 -0.09846,-0.4 v -5.089227 a 0.83692255,0.83692255 0 0 1 0.824615,-0.843077 z m -5.335381,-2.252306 a 0.55999965,0.55999965 0 0 0 -0.56,0.559999 v 10.104609 h 2.812306 v -0.559999 h 2.252306 v 0.559999 H 34.61961 V 19.36462 a 0.55999965,0.55999965 0 0 0 -0.56,-0.559999 z m 0,-1.126154 h 14.621529 a 1.6923066,1.6923066 0 0 1 1.692307,1.673845 V 31.72769 A 1.6923066,1.6923066 0 0 1 34.05961,33.413842 H 19.431927 A 1.6923066,1.6923066 0 0 1 17.745774,31.72769 V 19.36462 a 1.6923066,1.6923066 0 0 1 1.686153,-1.69846 z"
     style="stroke-width:0.615384" /></g></svg>
