<?xml version="1.0" encoding="UTF-8" standalone="no"?>
<!-- Generator: Adobe Illustrator 25.2.1, SVG Export Plug-In . SVG Version: 6.00 Build 0)  -->

<svg
   width="24px"
   height="24px"
   version="1.1"
   id="Layer_1"
   x="0px"
   y="0px"
   viewBox="0 0 74.4 74.4"
   style="enable-background:new 0 0 74.4 74.4;"
   xml:space="preserve"
   preserveAspectRatio="xMinYMid meet"
   sodipodi:docname="iconScorm.svg"
   inkscape:version="1.2.1 (9c6d41e4, 2022-07-14)"
   xmlns:inkscape="http://www.inkscape.org/namespaces/inkscape"
   xmlns:sodipodi="http://sodipodi.sourceforge.net/DTD/sodipodi-0.dtd"
   xmlns="http://www.w3.org/2000/svg"
   xmlns:svg="http://www.w3.org/2000/svg"><defs
   id="defs93"><inkscape:path-effect
     effect="fillet_chamfer"
     id="path-effect11754"
     is_visible="true"
     lpeversion="1"
     nodesatellites_param="F,0,0,1,0,10,0,1 @ F,0,0,1,0,10,0,1 @ F,0,0,1,0,10,0,1 @ F,0,0,1,0,10,0,1"
     unit="px"
     method="auto"
     mode="F"
     radius="10"
     chamfer_steps="1"
     flexible="false"
     use_knot_distance="true"
     apply_no_radius="true"
     apply_with_radius="true"
     only_selected="false"
     hide_knots="false" /><inkscape:path-effect
     effect="fillet_chamfer"
     id="path-effect11738"
     is_visible="true"
     lpeversion="1"
     nodesatellites_param="F,0,0,1,0,0,0,1 @ F,0,0,1,0,0,0,1 @ F,0,0,1,0,0,0,1 @ F,0,0,1,0,0,0,1 @ F,0,0,1,0,0,0,1 @ F,0,0,1,0,0,0,1 @ F,0,0,1,0,0,0,1 @ F,0,0,1,0,0,0,1"
     unit="px"
     method="auto"
     mode="F"
     radius="0"
     chamfer_steps="1"
     flexible="false"
     use_knot_distance="true"
     apply_no_radius="true"
     apply_with_radius="true"
     only_selected="false"
     hide_knots="false" /><inkscape:path-effect
     effect="bspline"
     id="path-effect11734"
     is_visible="true"
     lpeversion="1"
     weight="33.333333"
     steps="2"
     helper_size="0"
     apply_no_weight="true"
     apply_with_weight="true"
     only_selected="false" /></defs><sodipodi:namedview
   id="namedview91"
   pagecolor="#ffffff"
   bordercolor="#000000"
   borderopacity="0.25"
   inkscape:showpageshadow="2"
   inkscape:pageopacity="0.0"
   inkscape:pagecheckerboard="0"
   inkscape:deskcolor="#d1d1d1"
   showgrid="false"
   inkscape:zoom="19.666667"
   inkscape:cx="9.9915253"
   inkscape:cy="10.449152"
   inkscape:window-width="1440"
   inkscape:window-height="855"
   inkscape:window-x="8"
   inkscape:window-y="23"
   inkscape:window-maximized="0"
   inkscape:current-layer="Layer_1" />

<rect
   style="fill:#399be2;fill-opacity:1;stroke-width:3.1"
   id="rect11752"
   width="74.557625"
   height="74.400002"
   x="-2.6028694e-08"
   y="0"
   inkscape:path-effect="#path-effect11754"
   d="m 10,0 h 54.557625 a 10,10 45 0 1 10,10 v 54.400002 a 10,10 135 0 1 -10,10 H 10 A 10,10 45 0 1 -2.6028694e-8,64.400002 V 10 A 10,10 135 0 1 10,0 Z" /><style
   type="text/css"
   id="style915">
	.st0{fill:none;}
</style><path
   d="M 63.134275,31.851284 53.985136,15.734727 C 53.63326,15.171703 52.999855,14.679058 52.296072,14.679058 H 22.033559 c -0.703781,0 -1.266803,0.351889 -1.689072,1.055669 l -9.078754,16.116557 v 0 c -0.140754,0.351871 -0.211133,0.703759 -0.211133,1.05565 v 24.773035 c 0,1.126063 0.914913,2.040973 1.900205,2.040973 v 0 h 48.490383 c 1.055682,0 1.900212,-0.91491 1.900212,-2.040973 V 32.906934 c 0,-0.422252 -0.07032,-0.774138 -0.211125,-1.05565 z M 15.8403,31.077114 23.018847,18.197954 35.264613,18.33871 v 12.879176 z m 23.295088,0.140772 V 18.409089 H 51.451541 L 58.207823,31.28824 H 39.135388 Z m 20.550364,3.730025 V 56.061277 H 14.714253 V 34.947911 Z"
   id="path1427"
   style="stroke-width:0.703785;fill:#ffffff" /></svg>
