<?xml version="1.0" encoding="UTF-8" standalone="no"?>
<!-- Generator: Adobe Illustrator 25.2.1, SVG Export Plug-In . SVG Version: 6.00 Build 0)  -->

<svg
   width="24px"
   height="24px"
   version="1.1"
   id="Layer_1"
   x="0px"
   y="0px"
   viewBox="0 0 74.4 74.4"
   style="enable-background:new 0 0 74.4 74.4;"
   xml:space="preserve"
   preserveAspectRatio="xMinYMid meet"
   sodipodi:docname="icon.svg"
   inkscape:version="1.2.1 (9c6d41e4, 2022-07-14)"
   xmlns:inkscape="http://www.inkscape.org/namespaces/inkscape"
   xmlns:sodipodi="http://sodipodi.sourceforge.net/DTD/sodipodi-0.dtd"
   xmlns="http://www.w3.org/2000/svg"
   xmlns:svg="http://www.w3.org/2000/svg"><defs
   id="defs93"><inkscape:path-effect
     effect="fillet_chamfer"
     id="path-effect11754"
     is_visible="true"
     lpeversion="1"
     nodesatellites_param="F,0,0,1,0,10,0,1 @ F,0,0,1,0,10,0,1 @ F,0,0,1,0,10,0,1 @ F,0,0,1,0,10,0,1"
     unit="px"
     method="auto"
     mode="F"
     radius="10"
     chamfer_steps="1"
     flexible="false"
     use_knot_distance="true"
     apply_no_radius="true"
     apply_with_radius="true"
     only_selected="false"
     hide_knots="false" /><inkscape:path-effect
     effect="fillet_chamfer"
     id="path-effect11738"
     is_visible="true"
     lpeversion="1"
     nodesatellites_param="F,0,0,1,0,0,0,1 @ F,0,0,1,0,0,0,1 @ F,0,0,1,0,0,0,1 @ F,0,0,1,0,0,0,1 @ F,0,0,1,0,0,0,1 @ F,0,0,1,0,0,0,1 @ F,0,0,1,0,0,0,1 @ F,0,0,1,0,0,0,1"
     unit="px"
     method="auto"
     mode="F"
     radius="0"
     chamfer_steps="1"
     flexible="false"
     use_knot_distance="true"
     apply_no_radius="true"
     apply_with_radius="true"
     only_selected="false"
     hide_knots="false" /><inkscape:path-effect
     effect="bspline"
     id="path-effect11734"
     is_visible="true"
     lpeversion="1"
     weight="33.333333"
     steps="2"
     helper_size="0"
     apply_no_weight="true"
     apply_with_weight="true"
     only_selected="false" /></defs><sodipodi:namedview
   id="namedview91"
   pagecolor="#ffffff"
   bordercolor="#000000"
   borderopacity="0.25"
   inkscape:showpageshadow="2"
   inkscape:pageopacity="0.0"
   inkscape:pagecheckerboard="0"
   inkscape:deskcolor="#d1d1d1"
   showgrid="false"
   inkscape:zoom="19.666667"
   inkscape:cx="9.8135592"
   inkscape:cy="10.423729"
   inkscape:window-width="1440"
   inkscape:window-height="900"
   inkscape:window-x="0"
   inkscape:window-y="278"
   inkscape:window-maximized="0"
   inkscape:current-layer="Layer_1" />

<rect
   style="fill:#f7634d;fill-opacity:1;stroke-width:3.1"
   id="rect11752"
   width="74.557625"
   height="74.400002"
   x="-2.6028694e-08"
   y="0"
   inkscape:path-effect="#path-effect11754"
   d="m 10,0 h 54.557625 a 10,10 45 0 1 10,10 v 54.400002 a 10,10 135 0 1 -10,10 H 10 A 10,10 45 0 1 -2.6028694e-8,64.400002 V 10 A 10,10 135 0 1 10,0 Z" /><path
   d="m 21.986391,36.447257 c 0,0 3.73903,0 6.40306,2.55637 l 10.67958,10.67958 c 1.14685,1.14685 1.14685,2.96253 0,4.06161 -1.14684,1.14685 -2.96252,1.14685 -4.06161,0 l -8.60102,-8.60102 c -0.38228,-0.33452 -0.97948,-0.33452 -1.314,0 -0.38228,0.38228 -0.38228,0.97948 0,1.36176 l 8.55326,8.55327 c 0.88396,0.88396 2.12633,1.40952 3.39257,1.40952 1.26624,0 2.5086,-0.4778 3.39256,-1.40952 0.43005,-0.43005 0.78845,-0.93173 1.02724,-1.45749 h 13.73846 c 1.60076,0 2.91476,1.26624 2.91476,2.91477 0,1.64852 -1.29012,2.91476 -2.91476,2.91476 h -21.40755 c -2.34145,0.0478 -4.89781,-0.81232 -6.73738,-2.628 l -7.43029,-7.45418 c -0.93172,-0.93172 -2.15021,-1.40952 -3.39257,-1.40952 h -5.3787 v -11.49191 z m 30.14526,14.21399 c -2.46229,0 -5.00157,-0.52453 -7.40621,-1.55177 -3.61593,-1.54456 -6.62209,-4.09578 -8.46433,-7.18326 -1.83874,-3.08172 -2.25746,-6.3378 -1.1487,-8.93349 1.10979,-2.59795 3.50311,-4.03258 6.92162,-4.14889 2.85692,-0.098 6.4257,0.73203 10.32407,2.39744 8.73627,3.73203 12.72027,8.8427 10.65755,13.67114 -1.10876,2.59547 -3.75076,4.54414 -7.24852,5.34638 -1.17381,0.26926 -2.39497,0.40245 -3.63548,0.40245 z m -9.63341,-19.76664 c -0.13319,0 -0.26453,0.002 -0.39422,0.007 -2.59877,0.0883 -4.31399,1.06409 -5.09832,2.90035 -0.84711,1.98305 -0.47409,4.56 1.02333,7.06984 1.62094,2.71652 4.2862,4.97007 7.50502,6.34501 3.21924,1.37493 6.69003,1.74198 9.77319,1.03588 2.84889,-0.6534 4.96863,-2.16543 5.81574,-4.14827 2.30604,-5.39867 -6.74458,-9.76105 -9.5733,-10.96944 -3.43991,-1.46943 -6.55765,-2.23996 -9.05144,-2.23996 z m 3.79811,4.83647 0.68943,-1.19111 c 0.28491,-0.492 0.11672,-1.12173 -0.37508,-1.40643 -0.49262,-0.2847 -1.12173,-0.11672 -1.40643,0.37528 l -0.68943,1.19111 c -0.28491,0.492 -0.11672,1.12172 0.37508,1.40643 0.16242,0.0939 0.33967,0.13854 0.51465,0.13854 0.35531,2e-4 0.70095,-0.18404 0.89178,-0.51382 z m 1.67385,8.41183 0.68963,-1.1911 c 0.28491,-0.49201 0.11672,-1.12152 -0.37508,-1.40643 -0.492,-0.28533 -1.12173,-0.11673 -1.40643,0.37507 l -0.68963,1.19111 c -0.28491,0.492 -0.11672,1.12152 0.37507,1.40643 0.16222,0.0941 0.33967,0.13875 0.51465,0.13875 0.35552,0 0.70116,-0.18425 0.89179,-0.51383 z m 5.78465,-2.28669 0.3759,-0.64907 c 0.28491,-0.49201 0.11693,-1.12173 -0.37487,-1.40664 -0.4918,-0.28429 -1.12152,-0.11693 -1.40664,0.37487 l -0.3759,0.64907 c -0.28491,0.49201 -0.11692,1.12173 0.37487,1.40664 0.16243,0.0939 0.33967,0.13875 0.51486,0.13875 0.35531,0 0.70075,-0.18404 0.89178,-0.51362 z m 3.69868,-12.68486 c -0.77279,-0.80388 -1.19831,-1.86241 -1.19831,-2.98044 0,-1.05132 0.41358,-2.06539 1.22919,-3.0144 0.78659,-0.91505 1.62732,-2.4697 1.62732,-4.08775 0,-1.54539 -0.58876,-3.00905 -1.6582,-4.12152 l -1.1874,1.14108 c 0.77301,0.80429 1.19852,1.86282 1.19852,2.98064 0,1.16928 -0.66225,2.35462 -1.22939,3.0144 -1.0645,1.23846 -1.62712,2.65189 -1.62712,4.08776 0,1.5458 0.58876,3.00946 1.65799,4.12172 z m -6.02736,-3.51238 c -0.54512,-0.56755 -0.84526,-1.31421 -0.84526,-2.10265 0,-0.74109 0.29479,-1.45975 0.87593,-2.136 0.61593,-0.71639 1.27407,-1.9359 1.27407,-3.20956 0,-1.21642 -0.46339,-2.36841 -1.30515,-3.24352 l -1.18699,1.14149 c 0.54491,0.56673 0.84505,1.31339 0.84505,2.10203 0,0.82447 -0.47203,1.66603 -0.87613,2.13621 -0.83312,0.9696 -1.27366,2.07939 -1.27366,3.20935 0,1.21581 0.46339,2.36759 1.30453,3.24332 z"
   id="path1876"
   style="stroke-width:0.20586;fill:#ffffff" /></svg>
