<?xml version="1.0" encoding="UTF-8" standalone="no"?>
<!-- Generator: Adobe Illustrator 25.2.1, SVG Export Plug-In . SVG Version: 6.00 Build 0)  -->

<svg
   width="24px"
   height="24px"
   version="1.1"
   id="Layer_1"
   x="0px"
   y="0px"
   viewBox="0 0 74.4 74.4"
   style="enable-background:new 0 0 74.4 74.4;"
   xml:space="preserve"
   preserveAspectRatio="xMinYMid meet"
   sodipodi:docname="icon.svg"
   inkscape:version="1.2.1 (9c6d41e4, 2022-07-14)"
   xmlns:inkscape="http://www.inkscape.org/namespaces/inkscape"
   xmlns:sodipodi="http://sodipodi.sourceforge.net/DTD/sodipodi-0.dtd"
   xmlns="http://www.w3.org/2000/svg"
   xmlns:svg="http://www.w3.org/2000/svg"><defs
   id="defs93"><inkscape:path-effect
     effect="fillet_chamfer"
     id="path-effect11754"
     is_visible="true"
     lpeversion="1"
     nodesatellites_param="F,0,0,1,0,10,0,1 @ F,0,0,1,0,10,0,1 @ F,0,0,1,0,10,0,1 @ F,0,0,1,0,10,0,1"
     unit="px"
     method="auto"
     mode="F"
     radius="10"
     chamfer_steps="1"
     flexible="false"
     use_knot_distance="true"
     apply_no_radius="true"
     apply_with_radius="true"
     only_selected="false"
     hide_knots="false" /><inkscape:path-effect
     effect="fillet_chamfer"
     id="path-effect11738"
     is_visible="true"
     lpeversion="1"
     nodesatellites_param="F,0,0,1,0,0,0,1 @ F,0,0,1,0,0,0,1 @ F,0,0,1,0,0,0,1 @ F,0,0,1,0,0,0,1 @ F,0,0,1,0,0,0,1 @ F,0,0,1,0,0,0,1 @ F,0,0,1,0,0,0,1 @ F,0,0,1,0,0,0,1"
     unit="px"
     method="auto"
     mode="F"
     radius="0"
     chamfer_steps="1"
     flexible="false"
     use_knot_distance="true"
     apply_no_radius="true"
     apply_with_radius="true"
     only_selected="false"
     hide_knots="false" /><inkscape:path-effect
     effect="bspline"
     id="path-effect11734"
     is_visible="true"
     lpeversion="1"
     weight="33.333333"
     steps="2"
     helper_size="0"
     apply_no_weight="true"
     apply_with_weight="true"
     only_selected="false" /><style
     id="style643">.cls-1{fill:#909;}.cls-2{fill:#fff;}</style></defs><sodipodi:namedview
   id="namedview91"
   pagecolor="#ffffff"
   bordercolor="#000000"
   borderopacity="0.25"
   inkscape:showpageshadow="2"
   inkscape:pageopacity="0.0"
   inkscape:pagecheckerboard="0"
   inkscape:deskcolor="#d1d1d1"
   showgrid="false"
   inkscape:zoom="19.666667"
   inkscape:cx="9.8135592"
   inkscape:cy="10.5"
   inkscape:window-width="1440"
   inkscape:window-height="855"
   inkscape:window-x="0"
   inkscape:window-y="121"
   inkscape:window-maximized="0"
   inkscape:current-layer="Layer_1" />

<rect
   style="fill:#11a676;fill-opacity:1;stroke-width:3.1"
   id="rect11752"
   width="74.557625"
   height="74.400002"
   x="-2.6028694e-08"
   y="0"
   inkscape:path-effect="#path-effect11754"
   d="m 10,0 h 54.557625 a 10,10 45 0 1 10,10 v 54.400002 a 10,10 135 0 1 -10,10 H 10 A 10,10 45 0 1 -2.6028694e-8,64.400002 V 10 A 10,10 135 0 1 10,0 Z" /><g
   id="g658"
   transform="matrix(3.1,0,0,3.1,-43.977967,-41.850001)"><circle
     class="cls-1"
     cx="24"
     cy="24"
     r="24"
     id="circle649"
     style="display:none" /><path
     id="path1"
     class="cls-2"
     d="m 26.45999,25.675385 a 3.5507692,3.5507692 0 0 0 -3.544615,3.532307 v 1.569231 h 7.095384 V 29.207692 A 3.5692308,3.5692308 0 0 0 26.45999,25.675385 Z m 0,-1.083077 a 4.64,4.64 0 0 1 4.646154,4.615384 V 31.86 H 21.81999 v -2.652308 a 4.64,4.64 0 0 1 4.64,-4.615384 z m 5.446154,-0.713847 a 3.0769231,3.0769231 0 0 1 3.273846,3.273847 v 3.286153 h -3.587692 v -1.107692 h 2.492308 V 27.14 A 2.0246154,2.0246154 0 0 0 31.906144,24.961538 2.4615385,2.4615385 0 0 0 30.13999,25.7 l -0.775385,-0.763077 a 3.5323077,3.5323077 0 0 1 2.541539,-1.058462 z m -11.144615,0 a 3.8276923,3.8276923 0 0 1 2.664615,1.058462 L 22.650759,25.7 a 2.7323077,2.7323077 0 0 0 -1.883077,-0.738462 c -1.230768,0 -2.461538,0.75077 -2.461538,2.178462 v 2.178461 h 3.033846 v 1.12 H 17.186144 V 27.14 c 0,-1.852308 1.532308,-3.261539 3.575385,-3.261539 z m 11.144615,-3.150769 a 0.99076923,0.99076923 0 1 0 0.990769,0.990769 0.98461538,0.98461538 0 0 0 -0.990769,-0.990769 z m -11.144615,0 a 0.99076923,0.99076923 0 1 0 0.990769,0.990769 0.99692308,0.99692308 0 0 0 -0.990769,-0.990769 z m 5.68,-0.486154 a 1.4769231,1.4769231 0 1 0 1.476922,1.476923 1.4707693,1.4707693 0 0 0 -1.483077,-1.476923 z m 5.470769,-0.615384 a 2.08,2.08 0 1 1 -2.073846,2.08 2.08,2.08 0 0 1 2.067692,-2.073847 z m -11.144616,0 a 2.08,2.08 0 1 1 -2.073845,2.08 2.08,2.08 0 0 1 2.067692,-2.073847 z M 26.447683,19.14 a 2.5723077,2.5723077 0 1 1 -2.572308,2.572308 2.5784615,2.5784615 0 0 1 2.559999,-2.566154 z"
     style="stroke-width:0.615384" /></g></svg>
