<?xml version="1.0" encoding="UTF-8" standalone="no"?>
<!-- Generator: Adobe Illustrator 25.2.1, SVG Export Plug-In . SVG Version: 6.00 Build 0)  -->

<svg
   width="24px"
   height="24px"
   version="1.1"
   id="Layer_1"
   x="0px"
   y="0px"
   viewBox="0 0 74.4 74.4"
   style="enable-background:new 0 0 74.4 74.4;"
   xml:space="preserve"
   preserveAspectRatio="xMinYMid meet"
   sodipodi:docname="icon.svg"
   inkscape:version="1.2.1 (9c6d41e4, 2022-07-14)"
   xmlns:inkscape="http://www.inkscape.org/namespaces/inkscape"
   xmlns:sodipodi="http://sodipodi.sourceforge.net/DTD/sodipodi-0.dtd"
   xmlns="http://www.w3.org/2000/svg"
   xmlns:svg="http://www.w3.org/2000/svg"><defs
   id="defs93"><inkscape:path-effect
     effect="fillet_chamfer"
     id="path-effect11754"
     is_visible="true"
     lpeversion="1"
     nodesatellites_param="F,0,0,1,0,10,0,1 @ F,0,0,1,0,10,0,1 @ F,0,0,1,0,10,0,1 @ F,0,0,1,0,10,0,1"
     unit="px"
     method="auto"
     mode="F"
     radius="10"
     chamfer_steps="1"
     flexible="false"
     use_knot_distance="true"
     apply_no_radius="true"
     apply_with_radius="true"
     only_selected="false"
     hide_knots="false" /><inkscape:path-effect
     effect="fillet_chamfer"
     id="path-effect11738"
     is_visible="true"
     lpeversion="1"
     nodesatellites_param="F,0,0,1,0,0,0,1 @ F,0,0,1,0,0,0,1 @ F,0,0,1,0,0,0,1 @ F,0,0,1,0,0,0,1 @ F,0,0,1,0,0,0,1 @ F,0,0,1,0,0,0,1 @ F,0,0,1,0,0,0,1 @ F,0,0,1,0,0,0,1"
     unit="px"
     method="auto"
     mode="F"
     radius="0"
     chamfer_steps="1"
     flexible="false"
     use_knot_distance="true"
     apply_no_radius="true"
     apply_with_radius="true"
     only_selected="false"
     hide_knots="false" /><inkscape:path-effect
     effect="bspline"
     id="path-effect11734"
     is_visible="true"
     lpeversion="1"
     weight="33.333333"
     steps="2"
     helper_size="0"
     apply_no_weight="true"
     apply_with_weight="true"
     only_selected="false" /><style
     id="style309">.cls-1{fill:#06c;}.cls-2{fill:#fff;}</style></defs><sodipodi:namedview
   id="namedview91"
   pagecolor="#ffffff"
   bordercolor="#000000"
   borderopacity="0.25"
   inkscape:showpageshadow="2"
   inkscape:pageopacity="0.0"
   inkscape:pagecheckerboard="0"
   inkscape:deskcolor="#d1d1d1"
   showgrid="false"
   inkscape:zoom="19.666667"
   inkscape:cx="10.830508"
   inkscape:cy="14.516949"
   inkscape:window-width="1440"
   inkscape:window-height="855"
   inkscape:window-x="0"
   inkscape:window-y="121"
   inkscape:window-maximized="0"
   inkscape:current-layer="Layer_1" />

<rect
   style="fill:#eb66a2;fill-opacity:1;stroke-width:3.1"
   id="rect11752"
   width="74.557625"
   height="74.400002"
   x="-2.6028694e-08"
   y="0"
   inkscape:path-effect="#path-effect11754"
   d="m 10,0 h 54.557625 a 10,10 45 0 1 10,10 v 54.400002 a 10,10 135 0 1 -10,10 H 10 A 10,10 45 0 1 -2.6028694e-8,64.400002 V 10 A 10,10 135 0 1 10,0 Z" /><g
   id="g328"
   transform="matrix(2.145786,0,0,2.145786,-15.043161,-14.384127)"><circle
     class="cls-1"
     cx="24"
     cy="24.040001"
     r="24"
     id="circle315"
     style="display:none" /><path
     class="cls-2"
     d="m 24.71,28.73 c -0.06,0.6 -0.09,1.14 -0.13,1.69 a 1.48,1.48 0 0 1 -0.94,1.31 4.83,4.83 0 0 1 -1.44,0.37 1.18,1.18 0 0 1 -1.31,-1.2 c -0.08,-2 -0.15,-3.94 -0.21,-5.91 -0.06,-1.8 -0.06,-3.62 -0.11,-5.42 a 1.43,1.43 0 0 1 0.94,-1.44 4.59,4.59 0 0 1 2.49,-0.24 1,1 0 0 1 0.92,0.92 20.34,20.34 0 0 1 0.08,2.14 c 0,1.63 -0.11,3.28 -0.15,4.91 0,0.07 0,0.17 0,0.34 0.51,-0.07 1,-0.13 1.43,-0.22 a 9.62,9.62 0 0 0 3.62,-1.65 5.26,5.26 0 0 0 -0.53,-8.79 8,8 0 0 0 -3.92,-1.09 12.65,12.65 0 0 0 -6.39,1.11 32,32 0 0 0 -3.28,2.27 c -0.26,0.19 -0.47,0.43 -0.71,0.64 a 1.25,1.25 0 0 1 -1.41,0.09 1,1 0 0 1 -0.36,-1.29 6.22,6.22 0 0 1 1,-1.63 13.09,13.09 0 0 1 7.07,-3.92 13.8,13.8 0 0 1 9.21,0.88 8,8 0 0 1 4.84,6.21 8.34,8.34 0 0 1 -5.08,8.85 14.57,14.57 0 0 1 -5.12,1.11 z"
     id="path317" /><path
     class="cls-2"
     d="m 22.74,36.77 a 1.65,1.65 0 0 1 -1.8,-1.61 1.84,1.84 0 0 1 1.72,-1.86 1.88,1.88 0 0 1 1.84,1.86 1.69,1.69 0 0 1 -1.76,1.61 z"
     id="path319" /></g></svg>
