<?xml version="1.0" encoding="UTF-8" standalone="no"?>
<!-- Generator: Adobe Illustrator 25.2.1, SVG Export Plug-In . SVG Version: 6.00 Build 0)  -->

<svg
   width="24px"
   height="24px"
   version="1.1"
   id="Layer_1"
   x="0px"
   y="0px"
   viewBox="0 0 74.4 74.4"
   style="enable-background:new 0 0 74.4 74.4;"
   xml:space="preserve"
   preserveAspectRatio="xMinYMid meet"
   sodipodi:docname="iconSurvey.svg"
   inkscape:version="1.2.1 (9c6d41e4, 2022-07-14)"
   xmlns:inkscape="http://www.inkscape.org/namespaces/inkscape"
   xmlns:sodipodi="http://sodipodi.sourceforge.net/DTD/sodipodi-0.dtd"
   xmlns="http://www.w3.org/2000/svg"
   xmlns:svg="http://www.w3.org/2000/svg"><defs
   id="defs93"><inkscape:path-effect
     effect="fillet_chamfer"
     id="path-effect11754"
     is_visible="true"
     lpeversion="1"
     nodesatellites_param="F,0,0,1,0,10,0,1 @ F,0,0,1,0,10,0,1 @ F,0,0,1,0,10,0,1 @ F,0,0,1,0,10,0,1"
     unit="px"
     method="auto"
     mode="F"
     radius="10"
     chamfer_steps="1"
     flexible="false"
     use_knot_distance="true"
     apply_no_radius="true"
     apply_with_radius="true"
     only_selected="false"
     hide_knots="false" /><inkscape:path-effect
     effect="fillet_chamfer"
     id="path-effect11738"
     is_visible="true"
     lpeversion="1"
     nodesatellites_param="F,0,0,1,0,0,0,1 @ F,0,0,1,0,0,0,1 @ F,0,0,1,0,0,0,1 @ F,0,0,1,0,0,0,1 @ F,0,0,1,0,0,0,1 @ F,0,0,1,0,0,0,1 @ F,0,0,1,0,0,0,1 @ F,0,0,1,0,0,0,1"
     unit="px"
     method="auto"
     mode="F"
     radius="0"
     chamfer_steps="1"
     flexible="false"
     use_knot_distance="true"
     apply_no_radius="true"
     apply_with_radius="true"
     only_selected="false"
     hide_knots="false" /><inkscape:path-effect
     effect="bspline"
     id="path-effect11734"
     is_visible="true"
     lpeversion="1"
     weight="33.333333"
     steps="2"
     helper_size="0"
     apply_no_weight="true"
     apply_with_weight="true"
     only_selected="false" /></defs><sodipodi:namedview
   id="namedview91"
   pagecolor="#ffffff"
   bordercolor="#000000"
   borderopacity="0.25"
   inkscape:showpageshadow="2"
   inkscape:pageopacity="0.0"
   inkscape:pagecheckerboard="0"
   inkscape:deskcolor="#d1d1d1"
   showgrid="false"
   inkscape:zoom="19.666667"
   inkscape:cx="9.9915253"
   inkscape:cy="10.449152"
   inkscape:window-width="1440"
   inkscape:window-height="855"
   inkscape:window-x="1"
   inkscape:window-y="23"
   inkscape:window-maximized="0"
   inkscape:current-layer="Layer_1" />

<rect
   style="fill:#11a676;fill-opacity:1;stroke-width:3.1"
   id="rect11752"
   width="74.557625"
   height="74.400002"
   x="-2.6028694e-08"
   y="0"
   inkscape:path-effect="#path-effect11754"
   d="m 10,0 h 54.557625 a 10,10 45 0 1 10,10 v 54.400002 a 10,10 135 0 1 -10,10 H 10 A 10,10 45 0 1 -2.6028694e-8,64.400002 V 10 A 10,10 135 0 1 10,0 Z" /><g
   id="g600"
   transform="matrix(0.67916667,0,0,0.67916667,11.935,11.901042)"
   style="fill:#ffffff">
	<path
   d="M 18.6,45.9 H 3.1 C 1.3,45.9 0,47.2 0,49 v 22.4 c 0,1.7 1.3,3.1 3.1,3.1 h 15.5 c 1.8,0 3.1,-1.3 3.1,-3.1 V 48.9 c 0,-1.7 -1.4,-3 -3.1,-3 z M 16.5,69.2 H 5.3 V 51.1 h 11.2 z"
   id="path594"
   style="fill:#ffffff" />
	<path
   d="M 44.4,0 H 29.9 c -1.8,0 -3.1,1.3 -3.1,3.1 v 68.3 c 0,1.7 1.3,3.1 3.1,3.1 h 14.5 c 1.8,0 3.1,-1.3 3.1,-3.1 V 3.1 C 47.5,1.3 46.1,0 44.4,0 Z M 42.3,69.2 H 32.1 V 5.3 h 10.2 z"
   id="path596"
   style="fill:#ffffff" />
	<path
   d="M 71.3,19.4 H 55.8 c -1.8,0 -3.1,1.3 -3.1,3.1 v 48.9 c 0,1.7 1.3,3.1 3.1,3.1 h 15.5 c 1.8,0 3.1,-1.3 3.1,-3.1 V 22.5 c 0,-1.8 -1.4,-3.1 -3.1,-3.1 z M 69.2,69.2 H 58 V 24.6 h 11.2 z"
   id="path598"
   style="fill:#ffffff" />
</g></svg>
