<?xml version="1.0" encoding="UTF-8" standalone="no"?>
<!-- Generator: Adobe Illustrator 25.2.1, SVG Export Plug-In . SVG Version: 6.00 Build 0)  -->

<svg
   width="24px"
   height="24px"
   version="1.1"
   id="Layer_1"
   x="0px"
   y="0px"
   viewBox="0 0 74.4 74.4"
   style="enable-background:new 0 0 74.4 74.4;"
   xml:space="preserve"
   preserveAspectRatio="xMinYMid meet"
   sodipodi:docname="iconChat.svg"
   inkscape:version="1.2.1 (9c6d41e4, 2022-07-14)"
   xmlns:inkscape="http://www.inkscape.org/namespaces/inkscape"
   xmlns:sodipodi="http://sodipodi.sourceforge.net/DTD/sodipodi-0.dtd"
   xmlns="http://www.w3.org/2000/svg"
   xmlns:svg="http://www.w3.org/2000/svg"><defs
   id="defs93"><inkscape:path-effect
     effect="fillet_chamfer"
     id="path-effect11754"
     is_visible="true"
     lpeversion="1"
     nodesatellites_param="F,0,0,1,0,10,0,1 @ F,0,0,1,0,10,0,1 @ F,0,0,1,0,10,0,1 @ F,0,0,1,0,10,0,1"
     unit="px"
     method="auto"
     mode="F"
     radius="10"
     chamfer_steps="1"
     flexible="false"
     use_knot_distance="true"
     apply_no_radius="true"
     apply_with_radius="true"
     only_selected="false"
     hide_knots="false" /><inkscape:path-effect
     effect="fillet_chamfer"
     id="path-effect11738"
     is_visible="true"
     lpeversion="1"
     nodesatellites_param="F,0,0,1,0,0,0,1 @ F,0,0,1,0,0,0,1 @ F,0,0,1,0,0,0,1 @ F,0,0,1,0,0,0,1 @ F,0,0,1,0,0,0,1 @ F,0,0,1,0,0,0,1 @ F,0,0,1,0,0,0,1 @ F,0,0,1,0,0,0,1"
     unit="px"
     method="auto"
     mode="F"
     radius="0"
     chamfer_steps="1"
     flexible="false"
     use_knot_distance="true"
     apply_no_radius="true"
     apply_with_radius="true"
     only_selected="false"
     hide_knots="false" /><inkscape:path-effect
     effect="bspline"
     id="path-effect11734"
     is_visible="true"
     lpeversion="1"
     weight="33.333333"
     steps="2"
     helper_size="0"
     apply_no_weight="true"
     apply_with_weight="true"
     only_selected="false" /></defs><sodipodi:namedview
   id="namedview91"
   pagecolor="#ffffff"
   bordercolor="#000000"
   borderopacity="0.25"
   inkscape:showpageshadow="2"
   inkscape:pageopacity="0.0"
   inkscape:pagecheckerboard="0"
   inkscape:deskcolor="#d1d1d1"
   showgrid="false"
   inkscape:zoom="19.666667"
   inkscape:cx="9.9915253"
   inkscape:cy="10.449152"
   inkscape:window-width="1440"
   inkscape:window-height="855"
   inkscape:window-x="0"
   inkscape:window-y="23"
   inkscape:window-maximized="0"
   inkscape:current-layer="Layer_1" />

<rect
   style="fill:#11a676;fill-opacity:1;stroke-width:3.1"
   id="rect11752"
   width="74.557625"
   height="74.400002"
   x="-2.6028694e-08"
   y="0"
   inkscape:path-effect="#path-effect11754"
   d="m 10,0 h 54.557625 a 10,10 45 0 1 10,10 v 54.400002 a 10,10 135 0 1 -10,10 H 10 A 10,10 45 0 1 -2.6028694e-8,64.400002 V 10 A 10,10 135 0 1 10,0 Z" /><path
   d="M 65.501148,33.784842 C 61.801754,26.86857 53.840001,23.732129 46.682473,23.892969 45.636982,20.43484 43.546031,17.539657 40.731262,15.529121 31.161088,8.4520019 15.237587,9.8996059 8.8842734,21.158637 4.7827643,28.798689 9.0451166,37.323396 15.880961,40.942372 v 7.640063 c 0,1.04548 0.884639,1.930124 1.769277,1.930124 0.482531,0 0.884638,-0.160848 1.125904,-0.482538 l 6.031633,-6.27289 c 0.965062,0.08042 1.930123,0.160843 2.89518,0.08042 2.895177,9.328921 13.269572,13.430422 21.874697,12.545796 l 6.031631,6.272884 c 0.723795,0.723798 1.769271,0.723798 2.493068,-0.08037 0.241265,-0.321692 0.48252,-0.804217 0.48252,-1.206331 v -7.720527 c 6.835853,-3.618981 11.017775,-12.2241 6.916277,-19.864159 z m -46.885849,4.021084 c -6.19247,-2.975602 -9.0876519,-9.087652 -6.112049,-14.797584 3.056024,-5.307845 9.087649,-7.479221 14.556319,-7.559644 3.860242,-0.08037 7.640072,1.045484 10.856936,3.377711 2.010547,1.44758 3.458129,3.216874 4.342774,5.629516 -7.237947,1.045475 -15.19971,6.755425 -15.19971,15.280121 -0.884626,0 -1.769273,-0.08042 -2.734334,-0.160843 -0.482523,-0.08042 -0.96506,0.160843 -1.367165,0.402109 l -3.538555,3.618975 v -4.262349 c 0.160843,-0.48253 -0.241264,-1.125904 -0.804216,-1.528012 z m 13.83253,-2.171386 c 5.22741,-8.846388 18.577404,-9.650598 26.056637,-3.860238 2.493067,1.930118 4.664455,5.066564 4.584021,8.605118 0,4.181927 -2.734335,7.961747 -7.318363,10.293972 -0.562949,0.241274 -0.965062,0.884645 -0.965062,1.60844 v 4.342765 l -3.538563,-3.618978 c -0.402107,-0.48252 -0.965061,-0.562944 -1.447582,-0.48252 -0.965061,0.160842 -1.769272,0.160842 -2.734333,0.160842 -2.090973,0 -4.181936,-0.321692 -6.272905,-0.965057 C 34.53879,49.627915 28.587584,42.792071 32.447829,35.63454 Z"
   id="path303"
   style="stroke-width:0.804211;fill:#ffffff" /></svg>
