<?xml version="1.0" encoding="UTF-8" standalone="no"?>
<!-- Generator: Adobe Illustrator 25.2.1, SVG Export Plug-In . SVG Version: 6.00 Build 0)  -->

<svg
   width="24px"
   height="24px"
   version="1.1"
   id="Layer_1"
   x="0px"
   y="0px"
   viewBox="0 0 74.4 74.4"
   style="enable-background:new 0 0 74.4 74.4;"
   xml:space="preserve"
   preserveAspectRatio="xMinYMid meet"
   sodipodi:docname="iconH5P.svg"
   inkscape:version="1.2.1 (9c6d41e4, 2022-07-14)"
   xmlns:inkscape="http://www.inkscape.org/namespaces/inkscape"
   xmlns:sodipodi="http://sodipodi.sourceforge.net/DTD/sodipodi-0.dtd"
   xmlns="http://www.w3.org/2000/svg"
   xmlns:svg="http://www.w3.org/2000/svg"><defs
   id="defs93"><inkscape:path-effect
     effect="fillet_chamfer"
     id="path-effect11754"
     is_visible="true"
     lpeversion="1"
     nodesatellites_param="F,0,0,1,0,10,0,1 @ F,0,0,1,0,10,0,1 @ F,0,0,1,0,10,0,1 @ F,0,0,1,0,10,0,1"
     unit="px"
     method="auto"
     mode="F"
     radius="10"
     chamfer_steps="1"
     flexible="false"
     use_knot_distance="true"
     apply_no_radius="true"
     apply_with_radius="true"
     only_selected="false"
     hide_knots="false" /><inkscape:path-effect
     effect="fillet_chamfer"
     id="path-effect11738"
     is_visible="true"
     lpeversion="1"
     nodesatellites_param="F,0,0,1,0,0,0,1 @ F,0,0,1,0,0,0,1 @ F,0,0,1,0,0,0,1 @ F,0,0,1,0,0,0,1 @ F,0,0,1,0,0,0,1 @ F,0,0,1,0,0,0,1 @ F,0,0,1,0,0,0,1 @ F,0,0,1,0,0,0,1"
     unit="px"
     method="auto"
     mode="F"
     radius="0"
     chamfer_steps="1"
     flexible="false"
     use_knot_distance="true"
     apply_no_radius="true"
     apply_with_radius="true"
     only_selected="false"
     hide_knots="false" /><inkscape:path-effect
     effect="bspline"
     id="path-effect11734"
     is_visible="true"
     lpeversion="1"
     weight="33.333333"
     steps="2"
     helper_size="0"
     apply_no_weight="true"
     apply_with_weight="true"
     only_selected="false" /></defs><sodipodi:namedview
   id="namedview91"
   pagecolor="#ffffff"
   bordercolor="#000000"
   borderopacity="0.25"
   inkscape:showpageshadow="2"
   inkscape:pageopacity="0.0"
   inkscape:pagecheckerboard="0"
   inkscape:deskcolor="#d1d1d1"
   showgrid="false"
   inkscape:zoom="19.666667"
   inkscape:cx="9.9915253"
   inkscape:cy="10.449152"
   inkscape:window-width="1440"
   inkscape:window-height="855"
   inkscape:window-x="8"
   inkscape:window-y="23"
   inkscape:window-maximized="0"
   inkscape:current-layer="Layer_1" />

<rect
   style="fill:#399be2;fill-opacity:1;stroke-width:3.1"
   id="rect11752"
   width="74.557625"
   height="74.400002"
   x="-2.6028694e-08"
   y="0"
   inkscape:path-effect="#path-effect11754"
   d="m 10,0 h 54.557625 a 10,10 45 0 1 10,10 v 54.400002 a 10,10 135 0 1 -10,10 H 10 A 10,10 45 0 1 -2.6028694e-8,64.400002 V 10 A 10,10 135 0 1 10,0 Z" /><g
   id="g802"
   transform="matrix(0.70690258,0,0,0.70690258,10.88997,10.867879)"
   style="fill:#ffffff">
	<path
   d="M 40.9,38.3 C 39,36.8 36.2,37.1 34.7,39 v 0 L 34,39.8 29.7,39.2 c -2.4,-0.3 -4.3,-0.7 -4.4,-0.7 0,-0.6 0.1,-1.2 0.3,-1.8 0.3,-1.6 3.3,-14.7 3.5,-15.4 L 29.2,21 h -8 v 13.9 h -11 V 21 h -10 v 32.3 h 10 v -12 H 21 v 11.9 h 6 c 3.2,0 5.9,0 5.8,-0.1 -0.3,-0.2 -0.8,-0.3 -1.1,-0.5 -2.1,-0.8 -3.9,-2.4 -5.1,-4.3 -0.7,-1.1 -1.5,-3.2 -1.4,-3.4 0.2,-0.2 2,-0.3 4.4,-0.7 l 4.3,-0.6 0.8,0.8 c 1.5,1.9 4.3,2.1 6.2,0.6 1.9,-1.5 2.1,-4.3 0.6,-6.2 -0.2,0 -0.4,-0.3 -0.6,-0.5 z"
   id="path798"
   style="fill:#ffffff" />
	<path
   d="m 74.2,30.8 c 0.1,-1.2 -0.1,-2.5 -0.4,-3.6 -1,-3.1 -3,-4.9 -6.4,-5.8 C 66.2,21.1 65.6,21.1 58.6,21 H 51 v 6.7 H 36.4 l -0.5,2.2 c -0.3,1.2 -0.5,2.3 -0.6,2.5 0,0.1 0,0.2 0.2,0.1 0.2,-0.1 0.8,-0.3 1.7,-0.5 1.4,-0.4 1.6,-0.4 4.2,-0.4 2.5,0 2.9,0.1 4.1,0.4 1.7,0.5 3.2,1.5 4.4,2.8 1.9,1.9 2.9,4.4 2.7,7.1 0,5 -3,9.7 -6.9,11 -0.3,0.1 -0.7,0.3 -0.9,0.4 1.9,0.2 3.8,0.2 5.7,0.2 h 5.8 v -12 H 59 c 2.7,0.1 5.4,-0.1 8,-0.6 3.4,-0.8 6,-3.4 6.9,-6.7 0.3,-1.2 0.4,-2.3 0.3,-3.4 z m -9.8,1.4 c -0.4,1.1 -1.3,1.9 -2.5,2.3 -1.1,0.3 -2.2,0.3 -3.4,0.3 L 56,34.9 v -7.5 l 2.6,0.1 c 1.1,0 2.1,0.1 3.2,0.3 2,0.5 3.1,2.5 2.6,4.4 z"
   id="path800"
   style="fill:#ffffff" />
</g></svg>
