<?xml version="1.0" encoding="UTF-8" standalone="no"?>
<!-- Generator: Adobe Illustrator 25.2.1, SVG Export Plug-In . SVG Version: 6.00 Build 0)  -->

<svg
   width="24px"
   height="24px"
   version="1.1"
   id="Layer_1"
   x="0px"
   y="0px"
   viewBox="0 0 74.4 74.4"
   style="enable-background:new 0 0 74.4 74.4;"
   xml:space="preserve"
   preserveAspectRatio="xMinYMid meet"
   sodipodi:docname="iconDatabase.svg"
   inkscape:version="1.2.1 (9c6d41e4, 2022-07-14)"
   xmlns:inkscape="http://www.inkscape.org/namespaces/inkscape"
   xmlns:sodipodi="http://sodipodi.sourceforge.net/DTD/sodipodi-0.dtd"
   xmlns="http://www.w3.org/2000/svg"
   xmlns:svg="http://www.w3.org/2000/svg"><defs
   id="defs93"><inkscape:path-effect
     effect="fillet_chamfer"
     id="path-effect11754"
     is_visible="true"
     lpeversion="1"
     nodesatellites_param="F,0,0,1,0,10,0,1 @ F,0,0,1,0,10,0,1 @ F,0,0,1,0,10,0,1 @ F,0,0,1,0,10,0,1"
     unit="px"
     method="auto"
     mode="F"
     radius="10"
     chamfer_steps="1"
     flexible="false"
     use_knot_distance="true"
     apply_no_radius="true"
     apply_with_radius="true"
     only_selected="false"
     hide_knots="false" /><inkscape:path-effect
     effect="fillet_chamfer"
     id="path-effect11738"
     is_visible="true"
     lpeversion="1"
     nodesatellites_param="F,0,0,1,0,0,0,1 @ F,0,0,1,0,0,0,1 @ F,0,0,1,0,0,0,1 @ F,0,0,1,0,0,0,1 @ F,0,0,1,0,0,0,1 @ F,0,0,1,0,0,0,1 @ F,0,0,1,0,0,0,1 @ F,0,0,1,0,0,0,1"
     unit="px"
     method="auto"
     mode="F"
     radius="0"
     chamfer_steps="1"
     flexible="false"
     use_knot_distance="true"
     apply_no_radius="true"
     apply_with_radius="true"
     only_selected="false"
     hide_knots="false" /><inkscape:path-effect
     effect="bspline"
     id="path-effect11734"
     is_visible="true"
     lpeversion="1"
     weight="33.333333"
     steps="2"
     helper_size="0"
     apply_no_weight="true"
     apply_with_weight="true"
     only_selected="false" /></defs><sodipodi:namedview
   id="namedview91"
   pagecolor="#ffffff"
   bordercolor="#000000"
   borderopacity="0.25"
   inkscape:showpageshadow="2"
   inkscape:pageopacity="0.0"
   inkscape:pagecheckerboard="0"
   inkscape:deskcolor="#d1d1d1"
   showgrid="false"
   inkscape:zoom="19.666667"
   inkscape:cx="6.4067796"
   inkscape:cy="10.449152"
   inkscape:window-width="1440"
   inkscape:window-height="855"
   inkscape:window-x="0"
   inkscape:window-y="23"
   inkscape:window-maximized="0"
   inkscape:current-layer="Layer_1" />

<path
   style="display:inline;fill:#f7634d;fill-opacity:1;stroke-width:3.1"
   id="rect11752"
   width="74.557625"
   height="74.400002"
   x="-2.6028694e-08"
   y="0"
   inkscape:path-effect="#path-effect11754"
   d="m 10,0 h 54.557625 a 10,10 45 0 1 10,10 v 54.400002 a 10,10 135 0 1 -10,10 H 10 A 10,10 45 0 1 -2.6028694e-8,64.400002 V 10 A 10,10 135 0 1 10,0 Z"
   sodipodi:type="rect" /><path
   d="m 58.797652,14.469747 c -1.640329,-1.171665 -3.515005,-2.03088 -5.389654,-2.499547 -10.701197,-2.6557693 -21.871028,-2.6557693 -32.415996,0 -1.952769,0.468667 -3.827431,1.327882 -5.389651,2.499547 -1.24977,0.859216 -2.108989,2.187101 -2.187101,3.749316 v 37.961866 c 0.07807,1.484103 0.937331,2.890108 2.187101,3.749332 1.640327,1.17165 3.514991,2.030883 5.389651,2.499547 10.701193,2.655759 21.871024,2.655759 32.415996,0 1.952761,-0.468664 3.827431,-1.327897 5.389654,-2.499547 1.249752,-0.859224 2.108986,-2.187123 2.187098,-3.749332 V 18.219063 c -0.07811,-1.484103 -0.859234,-2.8901 -2.187098,-3.749316 z m -41.554974,8.67029 c 2.655768,1.249794 5.389648,2.10899 8.35786,2.499547 3.749324,0.703009 7.576749,0.937345 11.404197,0.937345 3.827417,0 7.654853,-0.312448 11.404169,-0.937345 2.890108,-0.390557 5.702103,-1.249753 8.357874,-2.499547 v 7.732977 c 0,0.07807 0,0.156224 -0.234336,0.39056 -0.156225,0.234337 -0.468673,0.468673 -0.859234,0.70301 -1.249752,0.702978 -2.577659,1.17164 -3.905523,1.484088 -9.68575,2.343323 -19.683938,2.343323 -29.369692,0 -1.327882,-0.312448 -2.655768,-0.859216 -3.905538,-1.484088 -0.312445,-0.156225 -0.702999,-0.390561 -1.015444,-0.70301 -0.234333,-0.234336 -0.234333,-0.39056 -0.234333,-0.39056 z m 39.680324,32.96278 c 0,0.07807 0,0.156225 -0.234336,0.390561 -0.234337,0.234336 -0.546785,0.468673 -0.937346,0.703009 -1.249756,0.702968 -2.577659,1.171641 -3.905523,1.484089 -9.685756,2.343323 -19.683944,2.343323 -29.369693,0 -1.327881,-0.312448 -2.65577,-0.859232 -3.90554,-1.484089 -0.312442,-0.156224 -0.702999,-0.39056 -1.015443,-0.703009 -0.234334,-0.234336 -0.234334,-0.390561 -0.234334,-0.390561 l 0.07811,-7.732976 c 2.655769,1.249794 5.38965,2.108986 8.357863,2.499546 3.749324,0.70301 7.57675,0.937346 11.404185,0.937346 3.827429,0 7.654853,-0.234336 11.404182,-0.937346 2.890107,-0.39056 5.702102,-1.249752 8.357873,-2.499546 z m 0,-12.497733 c 0,0.07807 0,0.156224 -0.234336,0.39056 -0.234337,0.234337 -0.546785,0.390561 -0.937346,0.70301 -1.249756,0.702967 -2.577659,1.17164 -3.905523,1.484088 -9.685756,2.343323 -19.683944,2.343323 -29.369693,0 -1.327881,-0.312448 -2.65577,-0.859233 -3.90554,-1.484088 -0.312442,-0.156225 -0.702999,-0.390561 -1.015443,-0.70301 -0.234334,-0.234336 -0.234334,-0.39056 -0.234334,-0.39056 v -7.732977 c 2.655771,1.249794 5.38965,2.108986 8.357863,2.499547 7.57675,1.249794 15.387838,1.249794 22.964591,0 2.890107,-0.390561 5.702102,-1.249753 8.35787,-2.499547 z M 56.688666,18.60962 c -0.312449,0.234333 -0.703009,0.468666 -1.015458,0.702999 -1.249752,0.702995 -2.577659,1.171654 -3.905523,1.484099 -4.764762,1.249791 -9.763856,1.718443 -14.684844,1.718443 -4.920988,0.0781 -9.841976,-0.468652 -14.684848,-1.718443 -1.327882,-0.312445 -2.655768,-0.859211 -3.905538,-1.484099 -0.312445,-0.156224 -0.703,-0.390557 -1.015444,-0.702999 -0.234333,-0.234334 -0.234333,-0.390557 -0.234333,-0.390557 0,0 0,-0.156221 0.234333,-0.390553 0.234333,-0.234333 0.546778,-0.46866 1.015444,-0.702994 1.24977,-0.703001 2.577656,-1.171667 3.905538,-1.484111 9.685754,-2.343323 19.683942,-2.343323 29.369692,0 1.327864,0.312444 2.655771,0.859222 3.905523,1.484111 0.312449,0.156222 0.703009,0.390551 1.015458,0.702994 0.234336,0.234332 0.234336,0.390553 0.234336,0.390553 0,0 0.07807,0.156223 -0.234336,0.390557 z"
   id="path627"
   style="stroke-width:0.781121;fill:#ffffff" /></svg>
