<?xml version="1.0" encoding="UTF-8" standalone="no"?>
<svg
   id="Layer_1"
   data-name="Layer 1"
   width="48"
   height="48"
   viewBox="0 0 48 48"
   version="1.1"
   sodipodi:docname="bmp.svg"
   inkscape:version="1.2.1 (9c6d41e410, 2022-07-14)"
   xml:space="preserve"
   xmlns:inkscape="http://www.inkscape.org/namespaces/inkscape"
   xmlns:sodipodi="http://sodipodi.sourceforge.net/DTD/sodipodi-0.dtd"
   xmlns="http://www.w3.org/2000/svg"
   xmlns:svg="http://www.w3.org/2000/svg"
   xmlns:rdf="http://www.w3.org/1999/02/22-rdf-syntax-ns#"
   xmlns:cc="http://creativecommons.org/ns#"
   xmlns:dc="http://purl.org/dc/elements/1.1/"><sodipodi:namedview
     id="namedview1230"
     pagecolor="#ffffff"
     bordercolor="#000000"
     borderopacity="0.25"
     inkscape:showpageshadow="2"
     inkscape:pageopacity="0.0"
     inkscape:pagecheckerboard="0"
     inkscape:deskcolor="#d1d1d1"
     showgrid="false"
     inkscape:zoom="9.15625"
     inkscape:cx="15.235495"
     inkscape:cy="29.215017"
     inkscape:window-width="1423"
     inkscape:window-height="1033"
     inkscape:window-x="296"
     inkscape:window-y="0"
     inkscape:window-maximized="0"
     inkscape:current-layer="g1066" /><defs
     id="defs1222"><inkscape:path-effect
       effect="fillet_chamfer"
       id="path-effect1420"
       is_visible="true"
       lpeversion="1"
       nodesatellites_param="F,0,0,1,0,10,0,1 @ F,0,0,1,0,10,0,1 @ F,0,0,1,0,10,0,1 @ F,0,0,1,0,10,0,1"
       unit="px"
       method="auto"
       mode="F"
       radius="10"
       chamfer_steps="1"
       flexible="false"
       use_knot_distance="true"
       apply_no_radius="true"
       apply_with_radius="true"
       only_selected="false"
       hide_knots="false" /><style
       id="style1220">.cls-1{fill:#06c;}.cls-2{fill:#fff;}</style></defs><title
     id="title1224">48px_sourcefile_20170718_multi</title><path
     style="display:inline;fill:#0066cc;fill-opacity:1"
     id="rect1418"
     width="48.054607"
     height="47.945393"
     x="0"
     y="0.10921501"
     inkscape:path-effect="#path-effect1420"
     d="m 10,0.10921501 h 28.054607 a 10,10 45 0 1 10,9.99999999 v 27.945393 a 10,10 135 0 1 -10,10 H 10 a 10,10 45 0 1 -10,-10 V 10.109215 A 10,10 135 0 1 10,0.10921501 Z"
     sodipodi:type="rect" /><g
     id="g1066"
     transform="matrix(0.08149576,0,0,0.08149576,-5.1350173,-6.6427197)"
     style="display:inline;fill:#ffffff"><path
       d="m 543.98,252.43 -88.797,-88.797 c -1.3359,-1.4375 -3.2188,-2.2422 -5.1797,-2.2188 h -215.63 c -7.5625,0.0391 -14.805,3.0625 -20.152,8.4102 -5.3516,5.3477 -8.3711,12.59 -8.4102,20.152 v 141.63 c 0,4.0898 3.3125,7.4023 7.3984,7.4023 4.0859,0 7.4023,-3.3125 7.4023,-7.4023 v -141.63 c 0,-7.6016 6.1602,-13.762 13.762,-13.762 h 208.23 v 81.395 c 0,1.9648 0.78125,3.8438 2.168,5.2344 1.3867,1.3867 3.2695,2.168 5.2344,2.168 h 81.398 l -0.004,297.02 c 0,7.6016 -6.1602,13.762 -13.762,13.762 h -283.26 c -7.6016,0 -13.762,-6.1602 -13.762,-13.762 v -38.035 c 0,-4.0859 -3.3164,-7.3984 -7.4023,-7.3984 -4.0859,0 -7.3984,3.3125 -7.3984,7.3984 v 38.035 c 0.0391,7.5625 3.0586,14.805 8.4102,20.152 5.3477,5.3477 12.59,8.3711 20.152,8.4102 h 283.26 c 7.5625,-0.0391 14.805,-3.0625 20.152,-8.4102 5.347,-5.3477 8.3711,-12.59 8.4102,-20.152 v -304.43 c 0.0234,-1.9609 -0.78125,-3.8438 -2.2188,-5.1797 z m -86.578,-65.707 63.488,63.488 h -63.488 z"
       id="path1060"
       style="fill:#ffffff" /><path
       d="M 479.6,485.22 V 385.17 c 0.0391,-6.3711 -2.4727,-12.492 -6.9805,-16.996 -4.5039,-4.5039 -10.625,-7.0156 -16.996,-6.9766 h -262.84 c -6.3711,-0.0391 -12.492,2.4727 -16.996,6.9766 -4.5039,4.5039 -7.0195,10.625 -6.9805,16.996 v 100.05 c -0.0391,6.3672 2.4766,12.492 6.9805,16.996 4.5039,4.5039 10.625,7.0156 16.996,6.9766 h 262.84 c 6.3711,0.0391 12.492,-2.4727 16.996,-6.9766 4.5078,-4.5039 7.0195,-10.629 6.9805,-16.996 z"
       id="path1062"
       style="fill:#ffffff"
       sodipodi:nodetypes="ccccccccscccc" /><path
       d="m 279.95,410.34 h -12.43 v 29.598 h 14.801 -0.004 c 4.9883,0.59766 10.004,-0.84375 13.914,-3.9961 2.707,-3.1484 4.0391,-7.2539 3.6992,-11.395 0.42969,-4.1484 -1.3047,-8.2305 -4.5898,-10.805 -4.6875,-2.6094 -10.039,-3.793 -15.391,-3.4023 z"
       id="path1064"
       style="fill:#ffffff" /><text
       xml:space="preserve"
       style="font-size:139.108px;fill:#0066cc;fill-opacity:1;stroke-width:11.5923"
       x="179.93852"
       y="479.90829"
       id="text273"
       transform="scale(0.98158846,1.0187569)"><tspan
         sodipodi:role="line"
         id="tspan271"
         style="fill:#0066cc;fill-opacity:1;stroke-width:11.5923"
         x="179.93852"
         y="479.90829">BMP</tspan></text></g><metadata
     id="metadata1094"><rdf:RDF><cc:Work
         rdf:about=""><dc:title>48px_sourcefile_20170718_multi</dc:title></cc:Work></rdf:RDF></metadata></svg>
