<?xml version="1.0" encoding="UTF-8" standalone="no"?>
<svg
   height="48"
   width="48"
   viewBox="0 0 48 48"
   version="1.1"
   id="svg964"
   sodipodi:docname="folder.svg"
   inkscape:version="1.2.1 (9c6d41e4, 2022-07-14)"
   xmlns:inkscape="http://www.inkscape.org/namespaces/inkscape"
   xmlns:sodipodi="http://sodipodi.sourceforge.net/DTD/sodipodi-0.dtd"
   xmlns="http://www.w3.org/2000/svg"
   xmlns:svg="http://www.w3.org/2000/svg">
  <defs
     id="defs968">
    <inkscape:path-effect
       effect="fillet_chamfer"
       id="path-effect1210"
       is_visible="true"
       lpeversion="1"
       nodesatellites_param="F,0,0,1,0,10,0,1 @ F,0,0,1,0,10,0,1 @ F,0,0,1,0,10,0,1 @ F,0,0,1,0,10,0,1"
       unit="px"
       method="auto"
       mode="F"
       radius="10"
       chamfer_steps="1"
       flexible="false"
       use_knot_distance="true"
       apply_no_radius="true"
       apply_with_radius="true"
       only_selected="false"
       hide_knots="false" />
  </defs>
  <sodipodi:namedview
     id="namedview966"
     pagecolor="#ffffff"
     bordercolor="#000000"
     borderopacity="0.25"
     inkscape:showpageshadow="2"
     inkscape:pageopacity="0.0"
     inkscape:pagecheckerboard="0"
     inkscape:deskcolor="#d1d1d1"
     showgrid="false"
     inkscape:zoom="12.948893"
     inkscape:cx="25.137284"
     inkscape:cy="23.669977"
     inkscape:window-width="1423"
     inkscape:window-height="1035"
     inkscape:window-x="2240"
     inkscape:window-y="23"
     inkscape:window-maximized="0"
     inkscape:current-layer="g962" />
  <g
     id="g962">
    <rect
       style="fill:#0066cc;fill-opacity:1"
       id="rect1208"
       width="48.034996"
       height="48.034996"
       x="0"
       y="0"
       inkscape:path-effect="#path-effect1210"
       d="m 10,0 h 28.034996 a 10,10 45 0 1 10,10 v 28.034996 a 10,10 135 0 1 -10,10 H 10 a 10,10 45 0 1 -10,-10 V 10 A 10,10 135 0 1 10,0 Z" />
    <path
       id="path1"
       transform="rotate(0,24,24) translate(11,15.3549997210503) scale(0.8125,0.8125)  "
       fill="#FFFFFF"
       d="M7.5160018,7.0210069L32,7.0210069 26.112001,21.280001 2.2460016,21.280001z M0,0L9.2969996,0 11.158,4.0930236 26.091997,4.0930236 26.087999,5.3469933 6.3500015,5.3469933 0.46300124,21.280001 0,21.280001z" />
  </g>
</svg>
