<?xml version="1.0" encoding="UTF-8" standalone="no"?>
<svg
   id="Layer_1"
   data-name="Layer 1"
   width="48"
   height="48"
   viewBox="0 0 48 48"
   version="1.1"
   sodipodi:docname="jpg-24.svg"
   inkscape:version="1.2.1 (9c6d41e4, 2022-07-14)"
   xml:space="preserve"
   xmlns:inkscape="http://www.inkscape.org/namespaces/inkscape"
   xmlns:sodipodi="http://sodipodi.sourceforge.net/DTD/sodipodi-0.dtd"
   xmlns="http://www.w3.org/2000/svg"
   xmlns:svg="http://www.w3.org/2000/svg"
   xmlns:rdf="http://www.w3.org/1999/02/22-rdf-syntax-ns#"
   xmlns:cc="http://creativecommons.org/ns#"
   xmlns:dc="http://purl.org/dc/elements/1.1/"><sodipodi:namedview
     id="namedview1230"
     pagecolor="#ffffff"
     bordercolor="#000000"
     borderopacity="0.25"
     inkscape:showpageshadow="2"
     inkscape:pageopacity="0.0"
     inkscape:pagecheckerboard="0"
     inkscape:deskcolor="#d1d1d1"
     showgrid="false"
     inkscape:zoom="16.05271"
     inkscape:cx="23.890048"
     inkscape:cy="25.011354"
     inkscape:window-width="1423"
     inkscape:window-height="1035"
     inkscape:window-x="296"
     inkscape:window-y="23"
     inkscape:window-maximized="0"
     inkscape:current-layer="Layer_1" /><defs
     id="defs1222"><inkscape:path-effect
       effect="fillet_chamfer"
       id="path-effect1420"
       is_visible="true"
       lpeversion="1"
       nodesatellites_param="F,0,0,1,0,10,0,1 @ F,0,0,1,0,10,0,1 @ F,0,0,1,0,10,0,1 @ F,0,0,1,0,10,0,1"
       unit="px"
       method="auto"
       mode="F"
       radius="10"
       chamfer_steps="1"
       flexible="false"
       use_knot_distance="true"
       apply_no_radius="true"
       apply_with_radius="true"
       only_selected="false"
       hide_knots="false" /><style
       id="style1220">.cls-1{fill:#06c;}.cls-2{fill:#fff;}</style></defs><title
     id="title1224">48px_sourcefile_20170718_multi</title><path
     style="display:inline;fill:#0066cc;fill-opacity:1"
     id="rect1418"
     width="48.054607"
     height="47.945393"
     x="-2.4090263e-23"
     y="0.10921501"
     inkscape:path-effect="#path-effect1420"
     d="m 10,0.10921501 h 28.054607 a 10,10 45 0 1 10,9.99999999 v 27.945393 a 10,10 135 0 1 -10,10 H 10 a 10,10 45 0 1 -10,-10 V 10.109215 A 10,10 135 0 1 10,0.10921501 Z"
     sodipodi:type="rect" /><metadata
     id="metadata1094"><rdf:RDF><cc:Work
         rdf:about=""><dc:title>48px_sourcefile_20170718_multi</dc:title></cc:Work></rdf:RDF></metadata><g
     id="g2625"
     transform="matrix(0.08717686,0,0,0.08717686,-8.7781419,-8.7790747)"
     style="fill:#ffffff"><path
       d="M 535.04,169.6 V 582.4 H 216.95 V 260.39 l 90.785,-90.785 h 227.3 m 6.7109,-6.7109 h -236.79 l -94.715,94.715 v 331.51 h 331.51 z"
       id="path2609"
       style="fill:#ffffff" /><path
       d="m 272.25,514.77 h 18.105 v 16.984 H 272.25 Z"
       id="path2611"
       style="fill:#ffffff" /><path
       d="m 327.11,470.73 h 18.895 v 33.152 c 0,6.9609 -0.61719,12.258 -1.8516,15.887 -1.2344,3.6328 -3.7188,6.7109 -7.4492,9.2344 -3.7305,2.5195 -8.5117,3.7852 -14.34,3.7852 -6.1602,0 -10.934,-0.83203 -14.316,-2.4961 -3.3828,-1.6641 -6,-4.1016 -7.8477,-7.3008 -1.8477,-3.2109 -2.9375,-7.1719 -3.2695,-11.887 l 18.023,-2.457 c 0.0273,2.6914 0.26562,4.6875 0.70703,5.9961 0.44141,1.3086 1.1953,2.3594 2.25,3.1641 0.71875,0.52734 1.7461,0.78906 3.0781,0.78906 2.1094,0 3.6562,-0.78125 4.6406,-2.3477 0.98438,-1.5664 1.4766,-4.2109 1.4766,-7.9219 z"
       id="path2613"
       style="fill:#ffffff" /><path
       d="m 358.5,470.73 h 31.34 c 6.8242,0 11.938,1.625 15.344,4.8672 3.3945,3.25 5.0977,7.8672 5.0977,13.863 0,6.1602 -1.8516,10.973 -5.5586,14.445 -3.6992,3.4648 -9.3633,5.2031 -16.965,5.2031 h -10.32 v 22.641 h -18.938 z m 18.941,26.016 h 4.6211 c 3.6367,0 6.1914,-0.62891 7.6562,-1.8906 1.4688,-1.2578 2.2031,-2.8789 2.2031,-4.8477 0,-1.9141 -0.64062,-3.5391 -1.9141,-4.8672 -1.2734,-1.332 -3.6719,-2 -7.1992,-2 h -5.3711 z"
       id="path2615"
       style="fill:#ffffff" /><path
       d="m 450.82,509.65 v -12.699 h 29.133 v 26.016 c -5.5781,3.8047 -10.512,6.3867 -14.793,7.7656 -4.2891,1.3672 -9.3711,2.0586 -15.258,2.0586 -7.2422,0 -13.148,-1.2344 -17.707,-3.7031 -4.5703,-2.4688 -8.1094,-6.1484 -10.617,-11.031 -2.5117,-4.8828 -3.7656,-10.488 -3.7656,-16.816 0,-6.6602 1.375,-12.449 4.1211,-17.375 2.7461,-4.9258 6.7734,-8.668 12.07,-11.219 4.1328,-1.9688 9.6992,-2.957 16.688,-2.957 6.7422,0 11.781,0.60938 15.133,1.832 3.3398,1.2227 6.1133,3.1172 8.3242,5.6836 2.2031,2.5664 3.8594,5.8203 4.9727,9.7617 l -18.191,3.25 c -0.75,-2.3008 -2.0156,-4.0625 -3.8125,-5.2852 -1.7852,-1.2227 -4.0664,-1.832 -6.8438,-1.832 -4.1328,0 -7.4258,1.4414 -9.8867,4.3047 -2.4531,2.875 -3.6797,7.418 -3.6797,13.633 0,6.6055 1.2422,11.324 3.7266,14.152 2.4766,2.832 5.9453,4.2422 10.383,4.2422 2.1094,0 4.1211,-0.30469 6.0352,-0.91406 1.9141,-0.60938 4.1055,-1.6523 6.5781,-3.1211 v -5.7461 l -12.609,0.004 z"
       id="path2617"
       style="fill:#ffffff" /><path
       d="m 353.58,275.75 -87.113,150.88 h 174.22 z"
       id="path2619"
       style="fill:#ffffff" /><path
       d="m 418.27,310.12 -67.266,116.51 h 134.53 z"
       id="path2621"
       style="fill:#ffffff" /><path
       d="m 485.54,278.95 c 0,11.785 -9.5547,21.34 -21.34,21.34 -11.785,0 -21.34,-9.5547 -21.34,-21.34 0,-11.785 9.5547,-21.34 21.34,-21.34 11.785,0 21.34,9.5547 21.34,21.34"
       id="path2623"
       style="fill:#ffffff" /></g></svg>
