<?xml version="1.0" encoding="UTF-8" standalone="no"?>
<svg
   id="Layer_1"
   data-name="Layer 1"
   width="48"
   height="48"
   viewBox="0 0 48 48"
   version="1.1"
   sodipodi:docname="mov.svg"
   inkscape:version="1.2.1 (9c6d41e410, 2022-07-14)"
   xml:space="preserve"
   xmlns:inkscape="http://www.inkscape.org/namespaces/inkscape"
   xmlns:sodipodi="http://sodipodi.sourceforge.net/DTD/sodipodi-0.dtd"
   xmlns="http://www.w3.org/2000/svg"
   xmlns:svg="http://www.w3.org/2000/svg"
   xmlns:rdf="http://www.w3.org/1999/02/22-rdf-syntax-ns#"
   xmlns:cc="http://creativecommons.org/ns#"
   xmlns:dc="http://purl.org/dc/elements/1.1/"><sodipodi:namedview
     id="namedview12"
     pagecolor="#ffffff"
     bordercolor="#000000"
     borderopacity="0.25"
     inkscape:showpageshadow="2"
     inkscape:pageopacity="0.0"
     inkscape:pagecheckerboard="0"
     inkscape:deskcolor="#d1d1d1"
     showgrid="false"
     inkscape:zoom="12.073447"
     inkscape:cx="20.002573"
     inkscape:cy="24.558024"
     inkscape:window-width="1423"
     inkscape:window-height="1033"
     inkscape:window-x="479"
     inkscape:window-y="0"
     inkscape:window-maximized="0"
     inkscape:current-layer="Layer_1" /><defs
     id="defs4"><inkscape:path-effect
       effect="fillet_chamfer"
       id="path-effect630"
       is_visible="true"
       lpeversion="1"
       nodesatellites_param="F,0,0,1,0,10,0,1 @ F,0,0,1,0,10,0,1 @ F,0,0,1,0,10,0,1 @ F,0,0,1,0,10,0,1"
       unit="px"
       method="auto"
       mode="F"
       radius="10"
       chamfer_steps="1"
       flexible="false"
       use_knot_distance="true"
       apply_no_radius="true"
       apply_with_radius="true"
       only_selected="false"
       hide_knots="false" /><style
       id="style2">.cls-1{fill:#d24625;}.cls-2{fill:#fff;}</style></defs><title
     id="title6">48px_sourcefile_20170718_multi</title><rect
     style="fill:#d24625;fill-opacity:1"
     id="rect627"
     width="47.873653"
     height="47.873653"
     x="0.082826391"
     y="0.082826391"
     inkscape:path-effect="#path-effect630"
     d="M 10.082826,0.08282639 H 37.95648 a 10,10 45 0 1 10,9.99999961 V 37.95648 a 10,10 135 0 1 -10,10 H 10.082826 a 10,10 45 0 1 -9.99999961,-10 V 10.082826 A 10,10 135 0 1 10.082826,0.08282639 Z" /><metadata
     id="metadata660"><rdf:RDF><cc:Work
         rdf:about=""><dc:title>48px_sourcefile_20170718_multi</dc:title></cc:Work></rdf:RDF></metadata><style
     type="text/css"
     id="style180">.st0{fill-rule:evenodd;clip-rule:evenodd;}</style><path
     class="st0"
     d="m 14.810066,22.617793 h 20.262687 v -6.140019 h -6.455452 c -0.677713,0 -1.62089,-0.365403 -2.067494,-0.812007 -0.446604,-0.446603 -0.718314,-1.252364 -0.718314,-1.926954 v -6.5366534 0 H 9.4289604 c -0.05622,0 -0.09994,0.02811 -0.128047,0.05622 -0.04685,0.03123 -0.05934,0.07183 -0.05934,0.13117 V 40.634974 c 0,0.04372 0.02811,0.09994 0.05622,0.128047 0.02811,0.04372 0.08745,0.05622 0.128047,0.05622 H 34.882247 c 0.05622,0 0.05309,-0.02811 0.08432,-0.05622 0.04372,-0.02811 0.103059,-0.08745 0.103059,-0.128051 v -3.485382 h -20.25956 c -1.292965,0 -2.361066,-1.061855 -2.361066,-2.361066 v -9.812787 c 0,-1.296087 1.061855,-2.357942 2.361066,-2.357942 z m 22.614383,0 h 3.101241 c 1.299211,0 2.361065,1.064978 2.361065,2.361065 v 9.812787 c 0,1.296088 -1.064978,2.361066 -2.361065,2.361066 h -3.101241 v 4.231803 c 0,0.50282 -0.203001,0.949423 -0.530927,1.280472 -0.331049,0.331049 -0.777652,0.530928 -1.280472,0.530928 H 8.6981544 c -0.502819,0 -0.949423,-0.199879 -1.280472,-0.530928 -0.331048,-0.331049 -0.530927,-0.777652 -0.530927,-1.280472 V 6.6431246 c 0,-0.50282 0.203002,-0.949423 0.530927,-1.280472 0.331049,-0.331049 0.790145,-0.530927 1.280472,-0.530927 H 27.037011 c 0.0406,-0.01562 0.08432,-0.01562 0.128047,-0.01562 0.199879,0 0.402881,0.08745 0.546543,0.215494 h 0.02811 c 0.02811,0.01562 0.04372,0.02811 0.07183,0.05622 l 9.366184,9.4817394 c 0.159278,0.159278 0.274833,0.374772 0.274833,0.618374 0,0.07183 -0.01562,0.128047 -0.02811,0.203001 z m -9.45363,-9.066366 V 7.6081626 l 6.692808,6.7771334 h -5.85894 c -0.231109,0 -0.430988,-0.09994 -0.590266,-0.243602 -0.143663,-0.143663 -0.243602,-0.359157 -0.243602,-0.590267 z"
     id="path182"
     style="fill:#ffffff;stroke-width:0.31231"
     sodipodi:nodetypes="sccsssccscsscsscscsssscsssscscssssscscsccccsccsccscs" /><text
     xml:space="preserve"
     style="font-size:11.7436px;fill:#d24625;fill-opacity:1;stroke-width:0.97864"
     x="13.608561"
     y="34.09988"
     id="text341"><tspan
       sodipodi:role="line"
       id="tspan339"
       x="13.608561"
       y="34.09988"
       style="stroke-width:0.97864">MOV</tspan></text></svg>
