<?xml version="1.0" encoding="UTF-8" standalone="no"?>
<svg
   id="Layer_1"
   data-name="Layer 1"
   width="48"
   height="48"
   viewBox="0 0 48 48"
   version="1.1"
   sodipodi:docname="pdf.svg"
   inkscape:version="1.2.1 (9c6d41e4, 2022-07-14)"
   xmlns:inkscape="http://www.inkscape.org/namespaces/inkscape"
   xmlns:sodipodi="http://sodipodi.sourceforge.net/DTD/sodipodi-0.dtd"
   xmlns="http://www.w3.org/2000/svg"
   xmlns:svg="http://www.w3.org/2000/svg">
  <sodipodi:namedview
     id="namedview17"
     pagecolor="#ffffff"
     bordercolor="#000000"
     borderopacity="0.25"
     inkscape:showpageshadow="2"
     inkscape:pageopacity="0.0"
     inkscape:pagecheckerboard="0"
     inkscape:deskcolor="#d1d1d1"
     showgrid="false"
     inkscape:zoom="11.261708"
     inkscape:cx="18.869251"
     inkscape:cy="24.552226"
     inkscape:window-width="1423"
     inkscape:window-height="1035"
     inkscape:window-x="2240"
     inkscape:window-y="23"
     inkscape:window-maximized="0"
     inkscape:current-layer="Layer_1" />
  <defs
     id="defs4">
    <inkscape:path-effect
       effect="fillet_chamfer"
       id="path-effect699"
       is_visible="true"
       lpeversion="1"
       nodesatellites_param="F,0,0,1,0,10,0,1 @ F,0,0,1,0,10,0,1 @ F,0,0,1,0,10,0,1 @ F,0,0,1,0,10,0,1"
       unit="px"
       method="auto"
       mode="F"
       radius="10"
       chamfer_steps="1"
       flexible="false"
       use_knot_distance="true"
       apply_no_radius="true"
       apply_with_radius="true"
       only_selected="false"
       hide_knots="false" />
    <style
       id="style2">.cls-1,.cls-4{fill:#da251c;}.cls-2{fill:#fff;}.cls-3{fill:none;}.cls-4{isolation:isolate;font-size:6.75px;font-family:ArialRoundedMTBold, Arial Rounded MT Bold;}</style>
  </defs>
  <title
     id="title6">48px_sourcefile_20170718_multi</title>
  <circle
     class="cls-1"
     cx="24.110001"
     cy="24"
     r="24"
     id="circle8"
     style="display:none;fill:#da251c;fill-opacity:1" />
  <rect
     style="fill:#da251c;fill-opacity:1"
     id="rect697"
     width="48.038895"
     height="48.127689"
     x="0.088796474"
     y="0"
     inkscape:path-effect="#path-effect699"
     d="m 10.088796,0 h 28.038895 a 10,10 45 0 1 10,10 v 28.127689 a 10,10 135 0 1 -10,10 H 10.088796 a 10,10 45 0 1 -9.99999953,-10 V 10 A 10,10 135 0 1 10.088796,0 Z" />
  <path
     id="path1"
     class="cls-2"
     d="M23.34,32.91c.58,0,.94.28.94.79s-.39.84-1,.84a1.34,1.34,0,0,1-.41,0V32.93ZM15,11.59v18.6H33.17v-13H27.43V11.59ZM13,9.38H28.61l6.66,6.51V38.63H13Z" />
  <rect
     class="cls-3"
     x="16.82"
     y="31.93"
     width="26.06"
     height="8.81"
     id="rect11" />
  <text
     class="cls-4"
     transform="translate(16.82 36.84)"
     id="text13">PDF</text>
  <path
     id="path1-2"
     data-name="path1"
     class="cls-2"
     d="M19.76,24.07a3.64,3.64,0,0,0-1.65,1.2c0-.06-.09.11-.09.11l.09-.11a.78.78,0,0,1-.06.17c-.15.38.3.38.3.38C19.61,25.61,19.76,24.07,19.76,24.07ZM27,22.78a3.34,3.34,0,0,0-.37,0,3.13,3.13,0,0,0,2.59.9c.51-.08-.26-.54-.26-.54A5,5,0,0,0,27,22.78Zm-4.58-3.17a11.48,11.48,0,0,1-1.09,3.26l3.36-.54A14.24,14.24,0,0,1,22.41,19.61ZM22.48,15h0c-.06,0-.09.06-.13.15a5.69,5.69,0,0,0,.26,2.47,4.17,4.17,0,0,0,.09-2.16S22.61,15,22.48,15Zm-.43-1c.36,0,.67.73.67.73a4.16,4.16,0,0,1,.06,3.77,9,9,0,0,0,3,3.84,9,9,0,0,1,3.34.41c1.11.62.73,1.22.73,1.22-1.16,1.39-4.57-.79-4.57-.79l-4.39.79a4.19,4.19,0,0,1-2.76,2.89c-1,.15-.88-1-.88-1A4.15,4.15,0,0,1,20,23.53c.79-.9,2.06-5.12,2.06-5.12-1.29-3.11-.37-4.16-.37-4.16C21.83,14,21.94,14,22.05,13.93Z" />
</svg>
