<?xml version="1.0" encoding="UTF-8" standalone="no"?>
<svg
   id="Layer_1"
   data-name="Layer 1"
   width="48"
   height="48"
   viewBox="0 0 48 48"
   version="1.1"
   sodipodi:docname="powerpoint.svg"
   inkscape:version="1.2.1 (9c6d41e4, 2022-07-14)"
   xmlns:inkscape="http://www.inkscape.org/namespaces/inkscape"
   xmlns:sodipodi="http://sodipodi.sourceforge.net/DTD/sodipodi-0.dtd"
   xmlns="http://www.w3.org/2000/svg"
   xmlns:svg="http://www.w3.org/2000/svg"
   xmlns:rdf="http://www.w3.org/1999/02/22-rdf-syntax-ns#"
   xmlns:cc="http://creativecommons.org/ns#"
   xmlns:dc="http://purl.org/dc/elements/1.1/">
  <sodipodi:namedview
     id="namedview12"
     pagecolor="#ffffff"
     bordercolor="#000000"
     borderopacity="0.25"
     inkscape:showpageshadow="2"
     inkscape:pageopacity="0.0"
     inkscape:pagecheckerboard="0"
     inkscape:deskcolor="#d1d1d1"
     showgrid="false"
     inkscape:zoom="12.073447"
     inkscape:cx="19.919746"
     inkscape:cy="24.475198"
     inkscape:window-width="1423"
     inkscape:window-height="1035"
     inkscape:window-x="2240"
     inkscape:window-y="23"
     inkscape:window-maximized="0"
     inkscape:current-layer="Layer_1" />
  <defs
     id="defs4">
    <inkscape:path-effect
       effect="fillet_chamfer"
       id="path-effect630"
       is_visible="true"
       lpeversion="1"
       nodesatellites_param="F,0,0,1,0,10,0,1 @ F,0,0,1,0,10,0,1 @ F,0,0,1,0,10,0,1 @ F,0,0,1,0,10,0,1"
       unit="px"
       method="auto"
       mode="F"
       radius="10"
       chamfer_steps="1"
       flexible="false"
       use_knot_distance="true"
       apply_no_radius="true"
       apply_with_radius="true"
       only_selected="false"
       hide_knots="false" />
    <style
       id="style2">.cls-1{fill:#d24625;}.cls-2{fill:#fff;}</style>
  </defs>
  <title
     id="title6">48px_sourcefile_20170718_multi</title>
  <rect
     style="fill:#d24625;fill-opacity:1"
     id="rect627"
     width="47.873653"
     height="47.873653"
     x="0.082826391"
     y="0.082826391"
     inkscape:path-effect="#path-effect630"
     d="M 10.082826,0.08282639 H 37.95648 a 10,10 45 0 1 10,9.99999961 V 37.95648 a 10,10 135 0 1 -10,10 H 10.082826 a 10,10 45 0 1 -9.99999961,-10 V 10.082826 A 10,10 135 0 1 10.082826,0.08282639 Z" />
  <path
     id="path1"
     class="cls-2"
     d="M24.51,32.82c.58,0,.94.28.94.79s-.38.85-1,.85a1.7,1.7,0,0,1-.41,0V32.86A2.31,2.31,0,0,1,24.51,32.82Zm-4,0c.58,0,.94.28.94.79s-.38.85-1,.85a1.69,1.69,0,0,1-.41,0V32.86A2.29,2.29,0,0,1,20.5,32.82Zm6.27-.61v.71h1.32v3.92h.84V32.92h1.33v-.71Zm-2.29,0a7.32,7.32,0,0,0-1.29.1v4.57H24V35.09a2.43,2.43,0,0,0,.41,0,2,2,0,0,0,1.46-.49,1.4,1.4,0,0,0,.4-1.05,1.31,1.31,0,0,0-.45-1A2.09,2.09,0,0,0,24.48,32.17Zm-4,0a7.32,7.32,0,0,0-1.29.1v4.57H20V35.09a2.42,2.42,0,0,0,.41,0,2,2,0,0,0,1.46-.49,1.4,1.4,0,0,0,.4-1.05,1.31,1.31,0,0,0-.45-1A2.09,2.09,0,0,0,20.47,32.17Zm6.07-5.66h5.13v1.11H26.54Zm0-2.12h5.13V25.5H26.54Zm0-2.1h5.13V23.4H26.54Zm-5.77-1.86a4.12,4.12,0,0,1,1,.1l-.92,4,3.9-1.2a4.07,4.07,0,1,1-4-2.91Zm-5.65-8.85V30.2H33.25v-13H27.5V11.59ZM13,9.38H28.69l6.65,6.51V38.63H13Z" />
  <metadata
     id="metadata660">
    <rdf:RDF>
      <cc:Work
         rdf:about="">
        <dc:title>48px_sourcefile_20170718_multi</dc:title>
      </cc:Work>
    </rdf:RDF>
  </metadata>
</svg>
