<?xml version="1.0" encoding="UTF-8" standalone="no"?>
<svg
   height="48"
   width="48"
   viewBox="0 0 48 48"
   version="1.1"
   id="svg676"
   sodipodi:docname="spreadsheet.svg"
   inkscape:version="1.2.1 (9c6d41e4, 2022-07-14)"
   xmlns:inkscape="http://www.inkscape.org/namespaces/inkscape"
   xmlns:sodipodi="http://sodipodi.sourceforge.net/DTD/sodipodi-0.dtd"
   xmlns="http://www.w3.org/2000/svg"
   xmlns:svg="http://www.w3.org/2000/svg">
  <defs
     id="defs680">
    <inkscape:path-effect
       effect="fillet_chamfer"
       id="path-effect922"
       is_visible="true"
       lpeversion="1"
       nodesatellites_param="F,0,0,1,0,10,0,1 @ F,0,0,1,0,10,0,1 @ F,0,0,1,0,10,0,1 @ F,0,0,1,0,10,0,1"
       unit="px"
       method="auto"
       mode="F"
       radius="10"
       chamfer_steps="1"
       flexible="false"
       use_knot_distance="true"
       apply_no_radius="true"
       apply_with_radius="true"
       only_selected="false"
       hide_knots="false" />
  </defs>
  <sodipodi:namedview
     id="namedview678"
     pagecolor="#ffffff"
     bordercolor="#000000"
     borderopacity="0.25"
     inkscape:showpageshadow="2"
     inkscape:pageopacity="0.0"
     inkscape:pagecheckerboard="0"
     inkscape:deskcolor="#d1d1d1"
     showgrid="false"
     inkscape:zoom="11.261708"
     inkscape:cx="19.846012"
     inkscape:cy="24.552226"
     inkscape:window-width="1423"
     inkscape:window-height="1035"
     inkscape:window-x="1932"
     inkscape:window-y="23"
     inkscape:window-maximized="0"
     inkscape:current-layer="svg676" />
  <g
     id="g674" />
  <rect
     style="fill:#02723b;fill-opacity:1"
     id="rect920"
     width="48.038891"
     height="48.305283"
     x="0.088796474"
     y="-0.17759295"
     inkscape:path-effect="#path-effect922"
     d="m 10.088796,-0.17759295 h 28.038891 a 10,10 45 0 1 10,10.00000005 V 38.12769 a 10,10 135 0 1 -10,10 H 10.088796 a 10,10 45 0 1 -9.99999953,-10 V 9.8224071 A 10,10 135 0 1 10.088796,-0.17759295 Z" />
  <path
     id="path1"
     transform="matrix(0.81252465,0,0,0.81252465,11,11.618749)"
     fill="#FFFFFF"
     d="M24.657059,21.64202L24.657059,24.793019 29.859102,24.793019 29.859102,21.64202z M24.657059,17.491021L24.657059,20.64202 29.859102,20.64202 29.859102,17.491021z M24.657059,13.340021L24.657059,16.491021 29.859102,16.491021 29.859102,13.340021z M13.054056,9.3130452L10.936008,9.421993 9.4030447,13.339044 7.9020019,9.7839925 5.8020201,9.7839925 8.0030155,14.915033 5.8040342,19.910025 7.6690302,20.058036 9.2030315,16.390984 10.803012,20.358023 10.804049,20.356986 13.272014,20.356986 10.53702,14.689996z M24.657059,9.1880452L24.657059,12.339045 29.859102,12.339045 29.859102,9.1880452z M24.657059,5.0370461L24.657059,8.1880452 29.859102,8.1880452 29.859102,5.0370461z M31.031412,3.4354717C31.182783,3.4359052,31.990089,3.497225,31.990089,4.7560403L31.990089,25.60204 31.989113,25.60204C31.989113,25.60204,32.17411,26.575001,30.946079,26.645009L19.072081,26.645009 19.072081,24.645009 23.606091,24.645009 23.606091,21.49401 19.072081,21.49401 19.072081,20.543021 23.606091,20.543021 23.606091,17.392022 19.072081,17.392022 19.072081,16.441033 23.606091,16.441033 23.606091,13.290033 19.072081,13.290033 19.072081,12.340022 23.606091,12.340022 23.606091,9.1890218 19.072081,9.1890218 19.072081,8.2390096 23.606091,8.2390096 23.606091,5.0870339 19.072081,5.0870339 19.072081,3.4360334 31.007114,3.4360334C31.007114,3.4360334,31.015755,3.4354267,31.031412,3.4354717z M18.405087,0L18.405087,30.476001 0,27.275014 0,3.0670151z" />
</svg>
