<?xml version="1.0" encoding="UTF-8" standalone="no"?>
<!-- Generator: Adobe Illustrator 25.2.1, SVG Export Plug-In . SVG Version: 6.00 Build 0)  -->

<svg
   width="24px"
   height="24px"
   version="1.1"
   id="Layer_1"
   x="0px"
   y="0px"
   viewBox="0 0 74.4 74.4"
   style="enable-background:new 0 0 74.4 74.4;"
   xml:space="preserve"
   preserveAspectRatio="xMinYMid meet"
   sodipodi:docname="icon.svg"
   inkscape:version="1.2.1 (9c6d41e4, 2022-07-14)"
   xmlns:inkscape="http://www.inkscape.org/namespaces/inkscape"
   xmlns:sodipodi="http://sodipodi.sourceforge.net/DTD/sodipodi-0.dtd"
   xmlns="http://www.w3.org/2000/svg"
   xmlns:svg="http://www.w3.org/2000/svg"><defs
   id="defs93"><inkscape:path-effect
     effect="fillet_chamfer"
     id="path-effect11754"
     is_visible="true"
     lpeversion="1"
     nodesatellites_param="F,0,0,1,0,10,0,1 @ F,0,0,1,0,10,0,1 @ F,0,0,1,0,10,0,1 @ F,0,0,1,0,10,0,1"
     unit="px"
     method="auto"
     mode="F"
     radius="10"
     chamfer_steps="1"
     flexible="false"
     use_knot_distance="true"
     apply_no_radius="true"
     apply_with_radius="true"
     only_selected="false"
     hide_knots="false" /><inkscape:path-effect
     effect="fillet_chamfer"
     id="path-effect11738"
     is_visible="true"
     lpeversion="1"
     nodesatellites_param="F,0,0,1,0,0,0,1 @ F,0,0,1,0,0,0,1 @ F,0,0,1,0,0,0,1 @ F,0,0,1,0,0,0,1 @ F,0,0,1,0,0,0,1 @ F,0,0,1,0,0,0,1 @ F,0,0,1,0,0,0,1 @ F,0,0,1,0,0,0,1"
     unit="px"
     method="auto"
     mode="F"
     radius="0"
     chamfer_steps="1"
     flexible="false"
     use_knot_distance="true"
     apply_no_radius="true"
     apply_with_radius="true"
     only_selected="false"
     hide_knots="false" /><inkscape:path-effect
     effect="bspline"
     id="path-effect11734"
     is_visible="true"
     lpeversion="1"
     weight="33.333333"
     steps="2"
     helper_size="0"
     apply_no_weight="true"
     apply_with_weight="true"
     only_selected="false" /><style
     id="style204">.cls-1{fill:#336;}.cls-2{fill:#fff;}</style><style
     id="style577">.cls-1{fill:#06c;}.cls-2{fill:#fff;}</style><style
     id="style766">.cls-1{fill:#06c;}.cls-2{fill:#fff;}</style><style
     id="style1038">.cls-1{fill:#fff;}.cls-2{fill:#98ca00;}</style></defs><sodipodi:namedview
   id="namedview91"
   pagecolor="#ffffff"
   bordercolor="#000000"
   borderopacity="0.25"
   inkscape:showpageshadow="2"
   inkscape:pageopacity="0.0"
   inkscape:pagecheckerboard="0"
   inkscape:deskcolor="#d1d1d1"
   showgrid="false"
   inkscape:zoom="19.666667"
   inkscape:cx="9.2542371"
   inkscape:cy="10.5"
   inkscape:window-width="1440"
   inkscape:window-height="855"
   inkscape:window-x="0"
   inkscape:window-y="121"
   inkscape:window-maximized="0"
   inkscape:current-layer="Layer_1" />

<rect
   style="fill:#399be2;fill-opacity:1;stroke-width:3.1"
   id="rect11752"
   width="74.557625"
   height="74.400002"
   x="-2.6028694e-08"
   y="0"
   d="m 10,0 h 54.557625 a 10,10 45 0 1 10,10 v 54.400002 a 10,10 135 0 1 -10,10 H 10 A 10,10 45 0 1 -2.6028694e-8,64.400002 V 10 A 10,10 135 0 1 10,0 Z"
   inkscape:path-effect="#path-effect11754" /><g
   id="g1055"
   transform="matrix(1.6928328,0,0,1.6928328,-3.3433456,-3.4279872)"><path
     id="path1"
     class="cls-1"
     d="m 36.8,22.1 -9.1,4.7 V 36 l 9.1,-4.7 z M 11.3,21.3 v 9.1 l 14.5,5.7 V 27 Z m 10.8,-4.2 h 0.2 l 4.5,2 A 0.48,0.48 0 0 1 27,19.7 C 26.9,19.9 26.8,20 26.6,20 h -0.2 l -4.5,-2 a 0.48,0.48 0 0 1 -0.2,-0.6 0.45,0.45 0 0 1 0.4,-0.3 z m -2,-1 -7.7,3.5 14.3,5.7 9.3,-4.7 -7.2,-2.9 v 4.5 l 0.4,0.2 a 0.6,0.6 0 0 1 0.3,0.6 v 0.1 A 0.55,0.55 0 0 1 29,23.4 c -0.1,0 -0.2,0 -0.2,-0.1 l -9.5,-4 A 0.6,0.6 0 0 1 19,18.7 v -0.1 a 0.66,0.66 0 0 1 0.7,-0.2 l 0.5,0.2 z m 2,-1.2 h 0.2 l 4.5,2 a 0.48,0.48 0 0 1 0.2,0.6 c -0.1,0.2 -0.2,0.3 -0.4,0.3 h -0.2 l -4.5,-2 a 0.48,0.48 0 0 1 -0.2,-0.6 c 0,-0.2 0.2,-0.3 0.4,-0.3 z m 0,-2.3 h 0.2 l 4.5,2 a 0.48,0.48 0 0 1 0.2,0.6 c -0.1,0.2 -0.2,0.3 -0.4,0.3 h -0.2 l -4.5,-2 a 0.48,0.48 0 0 1 -0.2,-0.6 c 0,-0.2 0.2,-0.4 0.4,-0.3 z m -1,-1.7 V 19 l 6.4,2.7 V 13.4 Z M 20,9.4 28.6,12.9 V 16 l 10,4 v 12.4 l -12,6.2 -17.3,-7 V 19.3 L 20,14.6 Z" /><circle
     class="cls-2"
     cx="24"
     cy="24"
     r="24"
     id="circle1045"
     style="display:none" /><path
     id="path1-2"
     data-name="path1"
     class="cls-1"
     d="M 15.5,12.6 A 0.46,0.46 0 0 0 15,13 v 22 c 0,0.1 0,0.1 0.1,0.2 a 0.47,0.47 0 0 0 0.7,0.1 c 2.9,-1.6 5.8,-3.1 8.7,-4.7 3.8,-2.1 7.6,-4.1 11.4,-6.2 l 0.2,-0.2 c 0.1,-0.1 0,-0.2 0,-0.3 A 0.22,0.22 0 0 0 35.9,23.7 L 28.7,19.8 C 24.4,17.4 20,15.1 15.7,12.7 v 0 A 0.35,0.35 0 0 0 15.5,12.6 Z M 16,11 a 2.28,2.28 0 0 1 1.1,0.3 c 4.3,2.4 8.6,4.7 13,7.1 l 7.2,3.9 a 2,2 0 0 1 1,1.2 2.26,2.26 0 0 1 -0.2,1.6 2.34,2.34 0 0 1 -0.7,0.7 l -0.1,0.1 C 33.5,28 29.6,30 25.8,32.1 22.9,33.7 20,35.2 17.1,36.8 a 1.93,1.93 0 0 1 -1,0.3 2.23,2.23 0 0 1 -1.8,-1 1.93,1.93 0 0 1 -0.3,-1 V 13 a 1.94,1.94 0 0 1 2,-2 z" /></g></svg>
