<?xml version="1.0" encoding="UTF-8" standalone="no"?>
<!-- Generator: Adobe Illustrator 25.2.1, SVG Export Plug-In . SVG Version: 6.00 Build 0)  -->

<svg
   width="24px"
   height="24px"
   version="1.1"
   id="Layer_1"
   x="0px"
   y="0px"
   viewBox="0 0 74.4 74.4"
   style="enable-background:new 0 0 74.4 74.4;"
   xml:space="preserve"
   preserveAspectRatio="xMinYMid meet"
   sodipodi:docname="icon.svg"
   inkscape:version="1.2.1 (9c6d41e4, 2022-07-14)"
   xmlns:inkscape="http://www.inkscape.org/namespaces/inkscape"
   xmlns:sodipodi="http://sodipodi.sourceforge.net/DTD/sodipodi-0.dtd"
   xmlns="http://www.w3.org/2000/svg"
   xmlns:svg="http://www.w3.org/2000/svg"><defs
   id="defs93"><inkscape:path-effect
     effect="fillet_chamfer"
     id="path-effect11754"
     is_visible="true"
     lpeversion="1"
     nodesatellites_param="F,0,0,1,0,10,0,1 @ F,0,0,1,0,10,0,1 @ F,0,0,1,0,10,0,1 @ F,0,0,1,0,10,0,1"
     unit="px"
     method="auto"
     mode="F"
     radius="10"
     chamfer_steps="1"
     flexible="false"
     use_knot_distance="true"
     apply_no_radius="true"
     apply_with_radius="true"
     only_selected="false"
     hide_knots="false" /><inkscape:path-effect
     effect="fillet_chamfer"
     id="path-effect11738"
     is_visible="true"
     lpeversion="1"
     nodesatellites_param="F,0,0,1,0,0,0,1 @ F,0,0,1,0,0,0,1 @ F,0,0,1,0,0,0,1 @ F,0,0,1,0,0,0,1 @ F,0,0,1,0,0,0,1 @ F,0,0,1,0,0,0,1 @ F,0,0,1,0,0,0,1 @ F,0,0,1,0,0,0,1"
     unit="px"
     method="auto"
     mode="F"
     radius="0"
     chamfer_steps="1"
     flexible="false"
     use_knot_distance="true"
     apply_no_radius="true"
     apply_with_radius="true"
     only_selected="false"
     hide_knots="false" /><inkscape:path-effect
     effect="bspline"
     id="path-effect11734"
     is_visible="true"
     lpeversion="1"
     weight="33.333333"
     steps="2"
     helper_size="0"
     apply_no_weight="true"
     apply_with_weight="true"
     only_selected="false" /><style
     id="style204">.cls-1{fill:#336;}.cls-2{fill:#fff;}</style><style
     id="style577">.cls-1{fill:#06c;}.cls-2{fill:#fff;}</style></defs><sodipodi:namedview
   id="namedview91"
   pagecolor="#ffffff"
   bordercolor="#000000"
   borderopacity="0.25"
   inkscape:showpageshadow="2"
   inkscape:pageopacity="0.0"
   inkscape:pagecheckerboard="0"
   inkscape:deskcolor="#d1d1d1"
   showgrid="false"
   inkscape:zoom="19.666667"
   inkscape:cx="9.2542371"
   inkscape:cy="10.5"
   inkscape:window-width="1440"
   inkscape:window-height="855"
   inkscape:window-x="0"
   inkscape:window-y="121"
   inkscape:window-maximized="0"
   inkscape:current-layer="Layer_1" />

<rect
   style="fill:#399be2;fill-opacity:1;stroke-width:3.1"
   id="rect11752"
   width="74.557625"
   height="74.400002"
   x="-2.6028694e-08"
   y="0"
   d="m 10,0 h 54.557625 a 10,10 45 0 1 10,10 v 54.400002 a 10,10 135 0 1 -10,10 H 10 A 10,10 45 0 1 -2.6028694e-8,64.400002 V 10 A 10,10 135 0 1 10,0 Z"
   inkscape:path-effect="#path-effect11754" /><g
   id="g592"
   transform="matrix(3.1,0,0,3.1,-2.2067809,-60.686441)"><circle
     class="cls-1"
     cx="24"
     cy="24"
     r="24"
     id="circle583"
     style="display:none" /><path
     id="path1"
     class="cls-2"
     d="m 13.070465,29.131271 a 1.0269,1.0269 0 0 1 0.543332,0.152132 0.59223332,0.59223332 0 0 1 0.201036,0.510736 9.7093668,9.7093668 0 0 1 -0.510736,1.9886 16.419532,16.419532 0 0 0 -0.815,3.2111 c 0.0489,-0.0489 0.3586,-0.255368 1.021468,-0.8639 l 0.201032,-0.152136 0.662868,0.662868 -0.206468,0.206468 a 15.088368,15.088368 0 0 1 -1.5811,1.325732 1.9342668,1.9342668 0 0 1 -0.918232,0.304268 0.84216668,0.84216668 0 0 1 -0.5868,-0.266236 0.96713332,0.96713332 0 0 1 -0.255368,-0.662864 c 0,-0.662868 0.4075,-2.243968 1.1736,-4.8411 -0.103232,0 -0.304264,0.152132 -0.8639,0.711764 l -0.206464,0.152136 -0.7661,-0.543336 0.206464,-0.206464 a 5.3409668,5.3409668 0 0 1 1.477868,-1.2714 2.6569,2.6569 0 0 1 1.2225,-0.418368 z m 0,-2.9014 a 1.0866668,1.0866668 0 1 1 -1.086668,1.086668 1.0866668,1.0866668 0 0 1 1.086668,-1.086668 z m -0.3586,-1.2225 a 6.5689,6.5689 0 1 0 6.5689,6.5689 6.5852,6.5852 0 0 0 -6.5689,-6.5689 z m 0,-1.5811 a 8.15,8.15 0 1 1 -8.1500002,8.15 8.15,8.15 0 0 1 8.1500002,-8.15 z"
     style="stroke-width:0.543332" /></g></svg>
