<?xml version="1.0" encoding="UTF-8" standalone="no"?>
<!-- Generator: Adobe Illustrator 25.2.1, SVG Export Plug-In . SVG Version: 6.00 Build 0)  -->

<svg
   width="24px"
   height="24px"
   version="1.1"
   id="Layer_1"
   x="0px"
   y="0px"
   viewBox="0 0 74.4 74.4"
   style="enable-background:new 0 0 74.4 74.4;"
   xml:space="preserve"
   preserveAspectRatio="xMinYMid meet"
   sodipodi:docname="iconUrl.svg"
   inkscape:version="1.2.1 (9c6d41e4, 2022-07-14)"
   xmlns:inkscape="http://www.inkscape.org/namespaces/inkscape"
   xmlns:sodipodi="http://sodipodi.sourceforge.net/DTD/sodipodi-0.dtd"
   xmlns="http://www.w3.org/2000/svg"
   xmlns:svg="http://www.w3.org/2000/svg"><defs
   id="defs93"><inkscape:path-effect
     effect="fillet_chamfer"
     id="path-effect11754"
     is_visible="true"
     lpeversion="1"
     nodesatellites_param="F,0,0,1,0,10,0,1 @ F,0,0,1,0,10,0,1 @ F,0,0,1,0,10,0,1 @ F,0,0,1,0,10,0,1"
     unit="px"
     method="auto"
     mode="F"
     radius="10"
     chamfer_steps="1"
     flexible="false"
     use_knot_distance="true"
     apply_no_radius="true"
     apply_with_radius="true"
     only_selected="false"
     hide_knots="false" /><inkscape:path-effect
     effect="fillet_chamfer"
     id="path-effect11738"
     is_visible="true"
     lpeversion="1"
     nodesatellites_param="F,0,0,1,0,0,0,1 @ F,0,0,1,0,0,0,1 @ F,0,0,1,0,0,0,1 @ F,0,0,1,0,0,0,1 @ F,0,0,1,0,0,0,1 @ F,0,0,1,0,0,0,1 @ F,0,0,1,0,0,0,1 @ F,0,0,1,0,0,0,1"
     unit="px"
     method="auto"
     mode="F"
     radius="0"
     chamfer_steps="1"
     flexible="false"
     use_knot_distance="true"
     apply_no_radius="true"
     apply_with_radius="true"
     only_selected="false"
     hide_knots="false" /><inkscape:path-effect
     effect="bspline"
     id="path-effect11734"
     is_visible="true"
     lpeversion="1"
     weight="33.333333"
     steps="2"
     helper_size="0"
     apply_no_weight="true"
     apply_with_weight="true"
     only_selected="false" /></defs><sodipodi:namedview
   id="namedview91"
   pagecolor="#ffffff"
   bordercolor="#000000"
   borderopacity="0.25"
   inkscape:showpageshadow="2"
   inkscape:pageopacity="0.0"
   inkscape:pagecheckerboard="0"
   inkscape:deskcolor="#d1d1d1"
   showgrid="false"
   inkscape:zoom="19.666667"
   inkscape:cx="9.9915253"
   inkscape:cy="10.449152"
   inkscape:window-width="1440"
   inkscape:window-height="855"
   inkscape:window-x="8"
   inkscape:window-y="23"
   inkscape:window-maximized="0"
   inkscape:current-layer="Layer_1" />

<rect
   style="fill:#399be2;fill-opacity:1;stroke-width:3.1"
   id="rect11752"
   width="74.557625"
   height="74.400002"
   x="-2.6028694e-08"
   y="0"
   inkscape:path-effect="#path-effect11754"
   d="m 10,0 h 54.557625 a 10,10 45 0 1 10,10 v 54.400002 a 10,10 135 0 1 -10,10 H 10 A 10,10 45 0 1 -2.6028694e-8,64.400002 V 10 A 10,10 135 0 1 10,0 Z" /><style
   type="text/css"
   id="style915">
	.st0{fill:none;}
</style><path
   d="m 37.199999,11.633814 c -19.681593,0 -35.7158942,24.56758 -18.029991,43.629829 5.230073,5.230079 11.698849,7.569846 18.029991,7.501032 C 43.531141,62.833399 49.999914,60.562534 55.23,55.263643 72.915894,36.201394 56.881584,11.633814 37.199999,11.633814 Z m 21.883729,23.741783 h -9.496715 c -0.137622,-2.890311 -0.688152,-5.574166 -1.307515,-8.464467 2.064514,-0.963423 3.922548,-2.270954 5.50535,-3.853723 2.959119,3.578454 4.954804,7.707463 5.29888,12.31819 z M 51.513892,20.92407 c -1.238713,1.101068 -2.615031,2.064503 -4.060183,2.890301 -0.688188,-2.615036 -1.858072,-5.023605 -3.372027,-7.294565 2.752662,0.963423 5.367709,2.408573 7.43221,4.404264 z M 37.199999,35.444417 h -9.290263 c 0.06878,-2.477411 0.550539,-4.748366 1.032248,-7.225749 2.68387,0.963424 5.43652,1.445149 8.258015,1.445149 2.821495,0 5.574147,-0.481725 8.258021,-1.445149 0.481698,2.477383 0.963422,4.748338 1.032236,7.225749 z m 9.083821,3.578467 c -0.06876,2.477403 -0.344102,4.817173 -0.8258,7.225756 -2.683874,-0.96343 -5.436526,-1.44515 -8.258021,-1.44515 -2.821495,0 -5.574145,0.48172 -8.258015,1.44515 -0.481709,-2.408583 -0.756979,-4.748353 -0.825802,-7.225756 h 9.083817 z M 37.199999,15.418727 c 2.683844,0 5.36772,3.027958 7.363404,9.152642 0,0.137619 0.137619,0.344071 0.137619,0.550537 -2.408573,0.963421 -4.954796,1.376341 -7.501023,1.376341 -2.546226,0 -5.09245,-0.481727 -7.501023,-1.376341 0,-0.206466 0.137621,-0.412918 0.137621,-0.550537 1.995683,-6.124684 4.679559,-9.08383 7.363402,-9.152642 z m -6.881683,1.101079 c -1.513959,2.27096 -2.683845,4.679529 -3.372016,7.294565 -1.445152,-0.825798 -2.821485,-1.789233 -4.060186,-2.890301 2.064501,-1.995691 4.679543,-3.440841 7.432202,-4.404264 z m -9.703156,6.537601 c 1.582785,1.582769 3.440838,2.8903 5.505344,3.853723 -0.619356,2.890301 -1.169889,5.574156 -1.307522,8.464467 H 15.31627 c 0.344084,-4.610727 2.339769,-8.739736 5.29889,-12.31819 z M 20.202259,50.790549 C 17.380773,47.349711 15.729169,43.35834 15.453903,38.885251 h 9.496712 c 0.06882,2.890303 0.412903,5.711789 1.032252,8.533278 -1.926869,1.032254 -3.784922,2.339766 -5.436524,3.85374 z m 2.54622,2.683851 c 1.238702,-1.101067 2.615039,-2.133313 4.060191,-2.959119 l 0.06878,0.137639 c 0.756992,2.615038 1.926874,5.023622 3.372024,7.156933 -2.752657,-0.96343 -5.298875,-2.408581 -7.501012,-4.335453 z m 14.45152,5.505342 c -2.821495,0.0688 -5.642983,-3.165574 -7.569839,-9.703162 2.477389,-0.963436 5.023613,-1.376332 7.569839,-1.376332 2.546227,0 5.09245,0.481717 7.569837,1.376332 -1.92685,6.537588 -4.748342,9.771991 -7.569837,9.703162 z m 6.950483,-1.169889 c 1.445155,-2.133311 2.615039,-4.541895 3.372039,-7.156933 l 0.06871,-0.137639 c 1.445164,0.825806 2.821489,1.858052 4.060205,2.959119 -2.202146,1.926872 -4.748369,3.372023 -7.501032,4.335453 z m 10.047254,-7.019304 -0.344075,0.48172 c -1.651615,-1.513974 -3.509649,-2.821486 -5.436528,-3.85374 0.619342,-2.821489 0.963424,-5.642975 1.032258,-8.533278 h 9.496712 c -0.275266,4.473089 -1.926871,8.46446 -4.748367,11.905298 z"
   id="path1527"
   style="stroke-width:0.688153;fill:#ffffff" /></svg>
