<?xml version="1.0" encoding="UTF-8" standalone="no"?>
<!-- Generator: Adobe Illustrator 25.2.1, SVG Export Plug-In . SVG Version: 6.00 Build 0)  -->

<svg
   width="24px"
   height="24px"
   version="1.1"
   id="Layer_1"
   x="0px"
   y="0px"
   viewBox="0 0 74.4 74.4"
   style="enable-background:new 0 0 74.4 74.4;"
   xml:space="preserve"
   preserveAspectRatio="xMinYMid meet"
   sodipodi:docname="icon.svg"
   inkscape:version="1.2.1 (9c6d41e4, 2022-07-14)"
   xmlns:inkscape="http://www.inkscape.org/namespaces/inkscape"
   xmlns:sodipodi="http://sodipodi.sourceforge.net/DTD/sodipodi-0.dtd"
   xmlns="http://www.w3.org/2000/svg"
   xmlns:svg="http://www.w3.org/2000/svg"><defs
   id="defs93"><inkscape:path-effect
     effect="fillet_chamfer"
     id="path-effect11754"
     is_visible="true"
     lpeversion="1"
     nodesatellites_param="F,0,0,1,0,10,0,1 @ F,0,0,1,0,10,0,1 @ F,0,0,1,0,10,0,1 @ F,0,0,1,0,10,0,1"
     unit="px"
     method="auto"
     mode="F"
     radius="10"
     chamfer_steps="1"
     flexible="false"
     use_knot_distance="true"
     apply_no_radius="true"
     apply_with_radius="true"
     only_selected="false"
     hide_knots="false" /><inkscape:path-effect
     effect="fillet_chamfer"
     id="path-effect11738"
     is_visible="true"
     lpeversion="1"
     nodesatellites_param="F,0,0,1,0,0,0,1 @ F,0,0,1,0,0,0,1 @ F,0,0,1,0,0,0,1 @ F,0,0,1,0,0,0,1 @ F,0,0,1,0,0,0,1 @ F,0,0,1,0,0,0,1 @ F,0,0,1,0,0,0,1 @ F,0,0,1,0,0,0,1"
     unit="px"
     method="auto"
     mode="F"
     radius="0"
     chamfer_steps="1"
     flexible="false"
     use_knot_distance="true"
     apply_no_radius="true"
     apply_with_radius="true"
     only_selected="false"
     hide_knots="false" /><inkscape:path-effect
     effect="bspline"
     id="path-effect11734"
     is_visible="true"
     lpeversion="1"
     weight="33.333333"
     steps="2"
     helper_size="0"
     apply_no_weight="true"
     apply_with_weight="true"
     only_selected="false" /></defs><sodipodi:namedview
   id="namedview91"
   pagecolor="#ffffff"
   bordercolor="#000000"
   borderopacity="0.25"
   inkscape:showpageshadow="2"
   inkscape:pageopacity="0.0"
   inkscape:pagecheckerboard="0"
   inkscape:deskcolor="#d1d1d1"
   showgrid="false"
   inkscape:zoom="19.666667"
   inkscape:cx="9.8135592"
   inkscape:cy="10.423729"
   inkscape:window-width="1440"
   inkscape:window-height="900"
   inkscape:window-x="0"
   inkscape:window-y="278"
   inkscape:window-maximized="0"
   inkscape:current-layer="Layer_1" />

<rect
   style="fill:#11a676;fill-opacity:1;stroke-width:3.1"
   id="rect11752"
   width="74.557625"
   height="74.400002"
   x="-2.6028694e-08"
   y="0"
   inkscape:path-effect="#path-effect11754"
   d="m 10,0 h 54.557625 a 10,10 45 0 1 10,10 v 54.400002 a 10,10 135 0 1 -10,10 H 10 A 10,10 45 0 1 -2.6028694e-8,64.400002 V 10 A 10,10 135 0 1 10,0 Z" /><g
   id="g774"
   transform="matrix(0.66859626,0,0,0.66859626,12.4,12.329512)"
   style="fill:#ffffff">
	<path
   d="M 62.8,0.2 C 62,-0.2 61.1,0 60.5,0.7 60.3,0.9 45.7,15.9 31,17.3 v 26.2 c 14.7,1.3 29.3,16.4 29.5,16.6 0.8,0.8 2.1,0.8 2.9,0 0.3,-0.4 0.6,-0.9 0.6,-1.5 V 2.4 C 64,1.3 63.5,0.5 62.8,0.2 Z M 58.9,52.3 C 52.3,46.4 44.7,41.2 36.3,39.2 V 21.6 c 8.5,-2 16,-7.2 22.6,-13.1 z"
   id="path766"
   style="fill:#ffffff" />
	<path
   d="M 72.8,25.4 C 72,23.9 70.7,22.8 69.4,22 V 38.7 C 74,36 75.6,30 72.8,25.4 Z"
   id="path768"
   style="fill:#ffffff" />
	<path
   d="M 25.8,43.2 V 17.3 H 12.9 C 5.7,17.3 0,23.1 0,30.2 0,37.4 5.8,43.1 12.9,43.1 H 25.8 Z M 5.1,30.3 c 0,-4.3 3.5,-7.6 7.6,-7.6 h 7.6 V 38 H 12.7 C 8.6,37.9 5.1,34.6 5.1,30.3 Z"
   id="path770"
   style="fill:#ffffff" />
	<path
   d="m 24.4,48.4 h -14 c -0.6,0 -1.1,-0.1 -1.7,-0.3 2,8.4 4.7,16.4 8,24.1 0.6,1.3 2.3,2.2 3.2,2.2 h 12.4 c 1.2,0 1.9,-1.6 1.6,-3.5 -0.1,-0.6 -0.3,-1.2 -0.6,-1.8 -1.5,-2 -8.2,-18.5 -8.9,-20.7 z M 20.9,69.2 C 19.6,66.1 16.3,56.9 15.4,53.7 h 5.4 c 0,0 5.6,14.8 6,15.5 z"
   id="path772"
   style="fill:#ffffff" />
</g></svg>
