<?xml version="1.0" encoding="UTF-8" standalone="no"?>
<!-- Generator: Adobe Illustrator 25.2.1, SVG Export Plug-In . SVG Version: 6.00 Build 0)  -->

<svg
   width="24px"
   height="24px"
   version="1.1"
   id="Layer_1"
   x="0px"
   y="0px"
   viewBox="0 0 74.4 74.4"
   style="enable-background:new 0 0 74.4 74.4;"
   xml:space="preserve"
   preserveAspectRatio="xMinYMid meet"
   sodipodi:docname="iconWiki.svg"
   inkscape:version="1.2.1 (9c6d41e4, 2022-07-14)"
   xmlns:inkscape="http://www.inkscape.org/namespaces/inkscape"
   xmlns:sodipodi="http://sodipodi.sourceforge.net/DTD/sodipodi-0.dtd"
   xmlns="http://www.w3.org/2000/svg"
   xmlns:svg="http://www.w3.org/2000/svg"><defs
   id="defs93"><inkscape:path-effect
     effect="fillet_chamfer"
     id="path-effect11754"
     is_visible="true"
     lpeversion="1"
     nodesatellites_param="F,0,0,1,0,10,0,1 @ F,0,0,1,0,10,0,1 @ F,0,0,1,0,10,0,1 @ F,0,0,1,0,10,0,1"
     unit="px"
     method="auto"
     mode="F"
     radius="10"
     chamfer_steps="1"
     flexible="false"
     use_knot_distance="true"
     apply_no_radius="true"
     apply_with_radius="true"
     only_selected="false"
     hide_knots="false" /><inkscape:path-effect
     effect="fillet_chamfer"
     id="path-effect11738"
     is_visible="true"
     lpeversion="1"
     nodesatellites_param="F,0,0,1,0,0,0,1 @ F,0,0,1,0,0,0,1 @ F,0,0,1,0,0,0,1 @ F,0,0,1,0,0,0,1 @ F,0,0,1,0,0,0,1 @ F,0,0,1,0,0,0,1 @ F,0,0,1,0,0,0,1 @ F,0,0,1,0,0,0,1"
     unit="px"
     method="auto"
     mode="F"
     radius="0"
     chamfer_steps="1"
     flexible="false"
     use_knot_distance="true"
     apply_no_radius="true"
     apply_with_radius="true"
     only_selected="false"
     hide_knots="false" /><inkscape:path-effect
     effect="bspline"
     id="path-effect11734"
     is_visible="true"
     lpeversion="1"
     weight="33.333333"
     steps="2"
     helper_size="0"
     apply_no_weight="true"
     apply_with_weight="true"
     only_selected="false" /></defs><sodipodi:namedview
   id="namedview91"
   pagecolor="#ffffff"
   bordercolor="#000000"
   borderopacity="0.25"
   inkscape:showpageshadow="2"
   inkscape:pageopacity="0.0"
   inkscape:pagecheckerboard="0"
   inkscape:deskcolor="#d1d1d1"
   showgrid="false"
   inkscape:zoom="19.666667"
   inkscape:cx="6.4067796"
   inkscape:cy="10.449152"
   inkscape:window-width="1440"
   inkscape:window-height="855"
   inkscape:window-x="0"
   inkscape:window-y="23"
   inkscape:window-maximized="0"
   inkscape:current-layer="Layer_1" />

<path
   style="display:inline;fill:#f7634d;fill-opacity:1;stroke-width:3.1"
   id="rect11752"
   width="74.557625"
   height="74.400002"
   x="-2.6028694e-08"
   y="0"
   inkscape:path-effect="#path-effect11754"
   d="m 10,0 h 54.557625 a 10,10 45 0 1 10,10 v 54.400002 a 10,10 135 0 1 -10,10 H 10 A 10,10 45 0 1 -2.6028694e-8,64.400002 V 10 A 10,10 135 0 1 10,0 Z"
   sodipodi:type="rect" /><path
   d="m 62.317479,36.287577 c -0.27035,-1.216549 -0.946221,-2.29794 -1.892423,-3.041389 v 0 l -0.27035,-0.202759 c -0.675867,-0.337942 -1.351737,-0.608291 -2.162772,-0.608291 -0.33793,0 -0.743449,0.06753 -1.013799,0.135172 -1.216557,0.270354 -2.297942,0.946228 -3.041391,1.960027 -0.270349,0.337923 -0.473101,0.608267 -0.608275,1.013797 l -7.231764,0.06752 C 45.96153,34.868202 45.758765,34.32752 45.35325,33.651656 44.880139,32.637858 44.407036,31.961982 43.595993,31.218533 l 1.892431,-3.379329 c 0.270341,0.06755 0.473106,0.06755 0.743457,0.06755 2.635868,0 4.528293,-2.365534 4.528293,-5.001403 0,-2.635878 -2.162774,-4.798647 -4.798644,-4.798647 -2.635877,0 -4.798644,2.162769 -4.798644,4.798647 0,1.284148 0.270347,2.433118 1.216554,3.379324 l -1.824836,3.176576 c -0.811035,-0.270348 -1.554487,-0.405525 -2.433111,-0.405525 -0.94622,0 -1.757251,0.202769 -2.635883,0.473109 L 29.943515,19.86405 c 0.270346,-0.270346 0.337932,-0.608278 0.540691,-0.878625 v 0 l 0.06759,-0.135173 c 0.540693,-1.081386 0.608282,-2.297943 0.270347,-3.446915 -0.337933,-1.148972 -1.081384,-2.095182 -2.095183,-2.635876 l -0.27035,-0.135172 v 0 l -0.135173,-0.06758 c -0.608279,-0.270349 -1.351731,-0.473108 -1.96001,-0.473108 -0.878625,0 -1.757251,0.270347 -2.500702,0.743452 -0.81104,0.473106 -1.351731,1.148971 -1.824838,1.960011 -0.540691,1.14897 -0.675865,2.433115 -0.270346,3.582086 0.40552,1.148972 1.284144,2.162769 2.36553,2.703463 0.608279,0.270345 1.284144,0.473105 1.892423,0.473105 0.337933,0 0.675866,0.135174 0.946212,0.06758 l 5.542097,9.664886 c -1.148971,0.94621 -1.960009,2.027591 -2.433116,3.379328 -0.337932,1.081376 -0.540692,1.959997 -0.473105,3.108972 l -6.623483,1.824842 c -1.486903,-2.838642 -5.001403,-3.717264 -7.840045,-2.230353 -2.838639,1.486903 -3.987607,5.001401 -2.500685,7.84004 1.486889,2.838631 5.001399,3.987596 7.840028,2.500697 1.824837,-0.946212 3.244155,-2.635871 3.31174,-4.663463 l 6.893829,-1.892426 0.06758,0.06751 c 0.473106,1.013799 0.743453,1.554492 1.554493,2.230358 l -3.784846,6.623511 c -0.405521,-0.135169 -0.878627,-0.202752 -1.351732,-0.202752 -3.108982,0 -5.339339,2.635871 -5.339339,5.81244 0,0.473106 0.06759,0.878629 0.20276,1.351733 0.743453,2.906222 3.649674,4.663476 6.555896,3.920023 0.473107,-0.135149 0.946214,-0.27032 1.351733,-0.60826 0.811039,-0.473106 1.55449,-1.216555 2.027596,-2.095176 0.608279,-1.08139 0.811044,-2.297948 0.743452,-3.514502 -0.202757,-1.148966 -0.405515,-2.095181 -1.148971,-2.973805 l 3.784852,-6.555892 c 0.811031,0.270345 1.486905,0.337928 2.297937,0.337928 0.270345,0 0.473115,0 0.743459,0 l 2.162765,8.042803 c -0.811034,0.60828 -1.486908,1.419308 -1.824838,2.433112 -0.405522,1.216564 -0.337927,2.50071 0.202761,3.582087 0.54069,1.148972 1.486909,1.960018 2.635872,2.433119 v 0 c 0.473113,0.202751 0.946217,0.27035 1.486912,0.27035 0.743452,0 1.419316,-0.202771 2.027593,-0.473115 1.148977,-0.540687 1.960008,-1.554484 2.433117,-2.703455 v 0 c 0.135168,-0.337938 0.202755,-0.675869 0.27034,-1.013799 0.135173,-0.878623 -0.0675,-1.757249 -0.40551,-2.500699 -0.5407,-1.148969 -1.419321,-1.960015 -2.568291,-2.433114 v 0 0 c -0.405524,-0.13517 -0.878626,-0.202772 -1.284145,-0.270348 l -2.162773,-8.042806 0.135171,-0.06749 c 0.946216,-0.473115 1.82484,-1.148973 2.500703,-1.892424 0.74345,-0.81104 1.28415,-1.689667 1.622077,-2.703468 v -0.06751 c 0.06754,-0.27035 0.135172,-0.540693 0.270345,-0.811036 v -0.135185 l 0.06754,-0.06753 7.299334,-0.06751 c 0.270349,0.946215 0.878631,1.554497 1.757255,2.16277 v 0 c 0.811044,0.540696 1.757255,0.811041 2.635882,0.811041 1.554484,0 3.041393,-0.811041 3.920019,-2.095187 v 0 c 0.675858,-1.148978 1.0138,-2.500703 0.743457,-3.649678 z M 43.866338,55.820096 c 0.405527,0.135174 0.878628,0.608277 1.013801,0.946211 0.202765,0.405519 0.27035,0.878627 0.06753,1.351735 v 0 c -0.202762,0.405522 -0.473106,0.811031 -0.878627,0.946205 v 0 0 c -0.270344,0.135175 -0.405518,0.135175 -0.675871,0.202768 -0.202752,0 -0.40552,-0.06753 -0.608274,-0.135174 v 0 c -0.405521,-0.135177 -0.743443,-0.473111 -0.94621,-0.811044 -0.202761,-0.405522 -0.270342,-0.878626 -0.06752,-1.351731 0.270339,-0.74345 0.811032,-1.216558 1.622075,-1.216558 0.202757,0 0.270347,0 0.473101,0.06753 z M 42.37944,38.788284 v 0 c -0.337929,1.216562 -1.216554,2.162766 -2.297945,2.703461 v 0 c -1.419317,0.743453 -3.108973,0.675875 -4.460715,-0.135172 -0.811031,-0.473098 -1.486902,-1.216551 -1.824828,-2.027602 -0.540698,-1.148969 -0.608283,-2.433111 -0.270348,-3.582084 0.337929,-1.21655 1.216553,-2.162777 2.365526,-2.703458 v 0 c 0.675865,-0.270339 1.351738,-0.405514 2.09519,-0.405514 0.473098,0 1.013797,0.06749 1.486897,0.270344 1.148975,0.337929 2.095182,1.216548 2.635874,2.297943 v 0 c 0.608275,1.081375 0.74345,2.365521 0.270349,3.582082 z m -22.033216,3.852437 c 0,1.351727 -1.081385,2.433114 -2.433109,2.433114 -1.35174,0 -2.433115,-1.081387 -2.433115,-2.433114 0,-1.351732 1.081375,-2.433125 2.433115,-2.433125 v 0 0 c 1.351724,0 2.433109,1.081393 2.433109,2.433125 z M 45.96153,21.621301 v 0 c 0.743448,0 1.284149,0.608279 1.284149,1.284144 0,0.675862 -0.608288,1.284148 -1.284149,1.284148 -0.675864,0 -1.284145,-0.608286 -1.284145,-1.284148 0,-0.675865 0.540694,-1.284144 1.284145,-1.284144 z"
   id="path846"
   style="stroke-width:0.675881;fill:#ffffff" /></svg>
