<?xml version="1.0" encoding="UTF-8" standalone="no"?>
<!-- Generator: Adobe Illustrator 25.2.1, SVG Export Plug-In . SVG Version: 6.00 Build 0)  -->

<svg
   width="24px"
   height="24px"
   version="1.1"
   id="Layer_1"
   x="0px"
   y="0px"
   viewBox="0 0 74.4 74.4"
   style="enable-background:new 0 0 74.4 74.4;"
   xml:space="preserve"
   preserveAspectRatio="xMinYMid meet"
   sodipodi:docname="iconLabel.svg"
   inkscape:version="1.2.1 (9c6d41e4, 2022-07-14)"
   xmlns:inkscape="http://www.inkscape.org/namespaces/inkscape"
   xmlns:sodipodi="http://sodipodi.sourceforge.net/DTD/sodipodi-0.dtd"
   xmlns="http://www.w3.org/2000/svg"
   xmlns:svg="http://www.w3.org/2000/svg"><defs
   id="defs93"><inkscape:path-effect
     effect="fillet_chamfer"
     id="path-effect11754"
     is_visible="true"
     lpeversion="1"
     nodesatellites_param="F,0,0,1,0,10,0,1 @ F,0,0,1,0,10,0,1 @ F,0,0,1,0,10,0,1 @ F,0,0,1,0,10,0,1"
     unit="px"
     method="auto"
     mode="F"
     radius="10"
     chamfer_steps="1"
     flexible="false"
     use_knot_distance="true"
     apply_no_radius="true"
     apply_with_radius="true"
     only_selected="false"
     hide_knots="false" /><inkscape:path-effect
     effect="fillet_chamfer"
     id="path-effect11738"
     is_visible="true"
     lpeversion="1"
     nodesatellites_param="F,0,0,1,0,0,0,1 @ F,0,0,1,0,0,0,1 @ F,0,0,1,0,0,0,1 @ F,0,0,1,0,0,0,1 @ F,0,0,1,0,0,0,1 @ F,0,0,1,0,0,0,1 @ F,0,0,1,0,0,0,1 @ F,0,0,1,0,0,0,1"
     unit="px"
     method="auto"
     mode="F"
     radius="0"
     chamfer_steps="1"
     flexible="false"
     use_knot_distance="true"
     apply_no_radius="true"
     apply_with_radius="true"
     only_selected="false"
     hide_knots="false" /><inkscape:path-effect
     effect="bspline"
     id="path-effect11734"
     is_visible="true"
     lpeversion="1"
     weight="33.333333"
     steps="2"
     helper_size="0"
     apply_no_weight="true"
     apply_with_weight="true"
     only_selected="false" /></defs><sodipodi:namedview
   id="namedview91"
   pagecolor="#ffffff"
   bordercolor="#000000"
   borderopacity="0.25"
   inkscape:showpageshadow="2"
   inkscape:pageopacity="0.0"
   inkscape:pagecheckerboard="0"
   inkscape:deskcolor="#d1d1d1"
   showgrid="false"
   inkscape:zoom="19.666667"
   inkscape:cx="9.9915253"
   inkscape:cy="10.449152"
   inkscape:window-width="1440"
   inkscape:window-height="855"
   inkscape:window-x="8"
   inkscape:window-y="23"
   inkscape:window-maximized="0"
   inkscape:current-layer="Layer_1" />

<rect
   style="fill:#399be2;fill-opacity:1;stroke-width:3.1"
   id="rect11752"
   width="74.557625"
   height="74.400002"
   x="-2.6028694e-08"
   y="0"
   inkscape:path-effect="#path-effect11754"
   d="m 10,0 h 54.557625 a 10,10 45 0 1 10,10 v 54.400002 a 10,10 135 0 1 -10,10 H 10 A 10,10 45 0 1 -2.6028694e-8,64.400002 V 10 A 10,10 135 0 1 10,0 Z" /><style
   type="text/css"
   id="style915">
	.st0{fill:none;}
</style><g
   id="label-2-6_1_"
   transform="matrix(0.67506753,0,0,0.67506753,12.0871,12.084952)"
   style="fill:#ffffff">
	<path
   id="Subtraction_10-6_1_"
   d="M 71.9,49.9 52.6,71.3 c -1.7,1.9 -4,3 -6.4,3.1 -2.4,0.1 -4.8,-0.8 -6.6,-2.6 L 5.4,38.8 c -1.8,-1.7 -2.9,-4 -3,-6.5 L 0,9.9 V 9.8 C -0.2,4.6 3.8,0.1 8.9,0 v 0 h 0.2 l 21.6,0.9 c 2.4,-0.1 4.7,0.8 6.5,2.5 l 34.2,33 c 3.8,3.5 4,9.5 0.6,13.4 0,0 -0.1,0 -0.1,0.1 z M 5.2,9.4 7.6,31.6 v 0.1 c 0,1.1 0.5,2.1 1.3,3 l 34.3,33.1 c 0.8,0.7 1.8,1.2 2.9,1.1 1,0 2.1,-0.5 2.9,-1.3 L 68.3,46.2 c 1.5,-1.7 1.5,-4.4 -0.2,-5.9 v 0 L 33.9,7.3 C 33.1,6.5 32.1,6.1 30.9,6.1 H 30.7 L 9.2,5.2 c -2.4,0.1 -4,2 -4,4.2 z m 23.4,18.7 c -3.3,3.7 -8.9,3.9 -12.6,0.5 -3.5,-3.4 -3.8,-9.2 -0.5,-13 3.3,-3.8 8.9,-3.9 12.6,-0.5 1.8,1.8 2.9,4.1 2.9,6.7 0,2.4 -0.9,4.7 -2.4,6.3 z m -9.1,-8.9 c -1.4,1.5 -1.4,4 0.1,5.4 1.5,1.4 3.9,1.4 5.3,-0.1 1.4,-1.5 1.4,-4 -0.1,-5.4 -0.7,-0.7 -1.6,-1.1 -2.5,-1.1 -1.1,0.1 -2.1,0.5 -2.8,1.2 z"
   style="fill:#ffffff" />
</g></svg>
