<?xml version="1.0" encoding="UTF-8" standalone="no"?>
<!-- Generator: Adobe Illustrator 25.2.1, SVG Export Plug-In . SVG Version: 6.00 Build 0)  -->

<svg
   width="24px"
   height="24px"
   version="1.1"
   id="Layer_1"
   x="0px"
   y="0px"
   viewBox="0 0 74.4 74.4"
   style="enable-background:new 0 0 74.4 74.4;"
   xml:space="preserve"
   preserveAspectRatio="xMinYMid meet"
   sodipodi:docname="iconChoice.svg"
   inkscape:version="1.2.1 (9c6d41e4, 2022-07-14)"
   xmlns:inkscape="http://www.inkscape.org/namespaces/inkscape"
   xmlns:sodipodi="http://sodipodi.sourceforge.net/DTD/sodipodi-0.dtd"
   xmlns="http://www.w3.org/2000/svg"
   xmlns:svg="http://www.w3.org/2000/svg"><defs
   id="defs93"><inkscape:path-effect
     effect="fillet_chamfer"
     id="path-effect11754"
     is_visible="true"
     lpeversion="1"
     nodesatellites_param="F,0,0,1,0,10,0,1 @ F,0,0,1,0,10,0,1 @ F,0,0,1,0,10,0,1 @ F,0,0,1,0,10,0,1"
     unit="px"
     method="auto"
     mode="F"
     radius="10"
     chamfer_steps="1"
     flexible="false"
     use_knot_distance="true"
     apply_no_radius="true"
     apply_with_radius="true"
     only_selected="false"
     hide_knots="false" /><inkscape:path-effect
     effect="fillet_chamfer"
     id="path-effect11738"
     is_visible="true"
     lpeversion="1"
     nodesatellites_param="F,0,0,1,0,0,0,1 @ F,0,0,1,0,0,0,1 @ F,0,0,1,0,0,0,1 @ F,0,0,1,0,0,0,1 @ F,0,0,1,0,0,0,1 @ F,0,0,1,0,0,0,1 @ F,0,0,1,0,0,0,1 @ F,0,0,1,0,0,0,1"
     unit="px"
     method="auto"
     mode="F"
     radius="0"
     chamfer_steps="1"
     flexible="false"
     use_knot_distance="true"
     apply_no_radius="true"
     apply_with_radius="true"
     only_selected="false"
     hide_knots="false" /><inkscape:path-effect
     effect="bspline"
     id="path-effect11734"
     is_visible="true"
     lpeversion="1"
     weight="33.333333"
     steps="2"
     helper_size="0"
     apply_no_weight="true"
     apply_with_weight="true"
     only_selected="false" /></defs><sodipodi:namedview
   id="namedview91"
   pagecolor="#ffffff"
   bordercolor="#000000"
   borderopacity="0.25"
   inkscape:showpageshadow="2"
   inkscape:pageopacity="0.0"
   inkscape:pagecheckerboard="0"
   inkscape:deskcolor="#d1d1d1"
   showgrid="false"
   inkscape:zoom="19.666667"
   inkscape:cx="9.9915253"
   inkscape:cy="10.449152"
   inkscape:window-width="1440"
   inkscape:window-height="855"
   inkscape:window-x="0"
   inkscape:window-y="23"
   inkscape:window-maximized="0"
   inkscape:current-layer="Layer_1" />

<rect
   style="fill:#11a676;fill-opacity:1;stroke-width:3.1"
   id="rect11752"
   width="74.557625"
   height="74.400002"
   x="-2.6028694e-08"
   y="0"
   inkscape:path-effect="#path-effect11754"
   d="m 10,0 h 54.557625 a 10,10 45 0 1 10,10 v 54.400002 a 10,10 135 0 1 -10,10 H 10 A 10,10 45 0 1 -2.6028694e-8,64.400002 V 10 A 10,10 135 0 1 10,0 Z" /><path
   d="m 60.264373,16.790884 -9.791605,-4.292213 c -2.548501,-1.207185 -5.164072,1.542511 -4.091027,4.091013 l 0.938931,2.280238 c -4.29222,1.542517 -7.712565,2.950897 -10.126941,5.097 -2.481442,-2.146103 -5.901785,-3.420353 -10.126939,-4.895805 l 0.938929,-2.481433 c 1.073038,-2.548502 -1.542523,-5.298198 -4.09102,-4.091013 l -9.791604,4.292213 c -1.542518,0.737722 -2.28024,2.5485 -1.609584,4.158077 l 4.158083,10.126936 c 0.603593,1.542522 2.414371,2.414366 3.956882,1.810771 0.871853,-0.33531 1.475445,-0.938903 1.810777,-1.810771 l 0.938918,-2.41437 5.767662,2.5485 c 1.810765,0.670667 2.950897,2.414375 2.816764,4.292211 0,2.749711 0,23.003572 0,24.344901 0,1.27425 1.005988,2.280227 2.280239,2.347296 h 0.603593 5.298203 c 1.27425,0 2.347299,-1.073046 2.347299,-2.280233 v -0.335335 c 0,-1.207185 0,-21.125722 0,-23.942496 -0.134139,-1.877842 0.335334,-3.621548 2.146105,-4.292202 l 6.37125,-2.548499 0.938918,2.414357 c 0.603595,1.542524 2.414375,2.414375 3.95688,1.810782 0.804797,-0.268258 1.475455,-0.938913 1.743713,-1.743701 l 4.158083,-10.126947 c 0.804796,-1.877842 0.06704,-3.68862 -1.542509,-4.359277 z M 39.004517,58.572887 h -3.554498 c 0,-1.408386 0,-24.143691 0,-24.143691 -0.134134,-1.542528 -0.670665,-3.017962 -1.609574,-4.292213 -0.670654,-0.871861 -1.810773,-1.60959 -2.548499,-1.944909 l -9.724548,-4.225152 -1.274252,3.152092 c -0.13413,0.335341 -0.737723,0.603597 -1.073048,0.469466 v 0 c 0,0 -0.268267,-0.201203 -0.335332,-0.402407 l -2.883828,-6.773634 c -0.2012,-0.335332 0,-0.804793 0.335327,-0.938924 0.536527,-0.134131 7.444307,-3.353289 7.444307,-2.41437 0.201192,0.201201 0.268258,0.536526 0.201192,0.80479 l -1.274248,3.152094 c 4.694619,2.011979 11.334119,3.889824 13.211965,6.035927 0.536537,0.536524 1.140123,1.073058 1.542512,1.676651 1.341321,1.877835 1.743707,3.621543 1.743707,5.834716 z m 19.38201,-37.556858 -2.615567,6.170044 c -0.06699,0.201204 -0.201193,0.268282 -0.335328,0.402407 -0.335333,0.134131 -0.670655,-0.06699 -0.804796,-0.402407 v 0 l -1.609568,-3.353277 -9.120948,3.956872 c -1.005993,0.469478 -1.542526,0.804796 -2.213185,1.676655 -0.469453,-1.810773 -0.804777,-1.676655 -1.944904,-3.152095 2.950903,-2.481432 7.444307,-3.35329 12.205975,-5.365267 l -1.341315,-3.286224 c -0.134123,-0.268261 -0.06698,-0.536527 0.201196,-0.804788 0,-0.871854 7.041914,3.017962 7.310181,2.950897 0.201195,0.201196 0.335318,0.536522 0.268259,0.93892 z"
   id="path489"
   style="stroke-width:0.670654;fill:#ffffff" /></svg>
