<?xml version="1.0" encoding="UTF-8" standalone="no"?>
<!-- Generator: Adobe Illustrator 25.2.1, SVG Export Plug-In . SVG Version: 6.00 Build 0)  -->

<svg
   width="24px"
   height="24px"
   version="1.1"
   id="Layer_1"
   x="0px"
   y="0px"
   viewBox="0 0 74.4 74.4"
   style="enable-background:new 0 0 74.4 74.4;"
   xml:space="preserve"
   preserveAspectRatio="xMinYMid meet"
   sodipodi:docname="iconForum.svg"
   inkscape:version="1.2.1 (9c6d41e4, 2022-07-14)"
   xmlns:inkscape="http://www.inkscape.org/namespaces/inkscape"
   xmlns:sodipodi="http://sodipodi.sourceforge.net/DTD/sodipodi-0.dtd"
   xmlns="http://www.w3.org/2000/svg"
   xmlns:svg="http://www.w3.org/2000/svg"><defs
   id="defs93"><inkscape:path-effect
     effect="fillet_chamfer"
     id="path-effect11754"
     is_visible="true"
     lpeversion="1"
     nodesatellites_param="F,0,0,1,0,10,0,1 @ F,0,0,1,0,10,0,1 @ F,0,0,1,0,10,0,1 @ F,0,0,1,0,10,0,1"
     unit="px"
     method="auto"
     mode="F"
     radius="10"
     chamfer_steps="1"
     flexible="false"
     use_knot_distance="true"
     apply_no_radius="true"
     apply_with_radius="true"
     only_selected="false"
     hide_knots="false" /><inkscape:path-effect
     effect="fillet_chamfer"
     id="path-effect11738"
     is_visible="true"
     lpeversion="1"
     nodesatellites_param="F,0,0,1,0,0,0,1 @ F,0,0,1,0,0,0,1 @ F,0,0,1,0,0,0,1 @ F,0,0,1,0,0,0,1 @ F,0,0,1,0,0,0,1 @ F,0,0,1,0,0,0,1 @ F,0,0,1,0,0,0,1 @ F,0,0,1,0,0,0,1"
     unit="px"
     method="auto"
     mode="F"
     radius="0"
     chamfer_steps="1"
     flexible="false"
     use_knot_distance="true"
     apply_no_radius="true"
     apply_with_radius="true"
     only_selected="false"
     hide_knots="false" /><inkscape:path-effect
     effect="bspline"
     id="path-effect11734"
     is_visible="true"
     lpeversion="1"
     weight="33.333333"
     steps="2"
     helper_size="0"
     apply_no_weight="true"
     apply_with_weight="true"
     only_selected="false" /></defs><sodipodi:namedview
   id="namedview91"
   pagecolor="#ffffff"
   bordercolor="#000000"
   borderopacity="0.25"
   inkscape:showpageshadow="2"
   inkscape:pageopacity="0.0"
   inkscape:pagecheckerboard="0"
   inkscape:deskcolor="#d1d1d1"
   showgrid="false"
   inkscape:zoom="19.666667"
   inkscape:cx="7.9830507"
   inkscape:cy="10.449152"
   inkscape:window-width="1440"
   inkscape:window-height="855"
   inkscape:window-x="0"
   inkscape:window-y="23"
   inkscape:window-maximized="0"
   inkscape:current-layer="layer1" />

<path
   style="display:inline;fill:#f7634d;fill-opacity:1;stroke-width:3.1"
   id="rect11752"
   width="74.557625"
   height="74.400002"
   x="-2.6028694e-08"
   y="0"
   inkscape:path-effect="#path-effect11754"
   d="m 10,0 h 54.557625 a 10,10 45 0 1 10,10 v 54.400002 a 10,10 135 0 1 -10,10 H 10 A 10,10 45 0 1 -2.6028694e-8,64.400002 V 10 A 10,10 135 0 1 10,0 Z"
   sodipodi:type="rect" /><g
   inkscape:groupmode="layer"
   id="layer1"
   inkscape:label="Layer 1"
   style="fill:#ffffff"><g
     id="g503"
     transform="matrix(0.66756393,0,0,0.66756393,12.4,11.106595)"
     style="fill:#ffffff">
	<path
   d="m 62,3.8 v 0 H 12.4 C 5.5,3.8 0,9.4 0,16.2 v 0 33.6 c 0,6.9 5.6,12.3 12.4,12.3 h 9 l 13.7,11.6 c 1.2,0.9 2.8,0.9 4,0 L 52.9,62.1 h 9 c 6.9,0 12.4,-5.6 12.4,-12.4 V 16.2 C 74.3,9.3 68.9,3.8 62,3.8 Z m 7.1,11.7 v 34.6 c 0,3.5 -2.8,6.3 -6.3,6.3 v 0 h -9.2 c -1.5,0 -2.9,0.5 -4.1,1.5 L 37.3,68.1 25,57.9 c -1.1,-1 -2.6,-1.5 -4.1,-1.5 h -9.1 c -3.5,0 -6.3,-2.8 -6.3,-6.3 v 0 -34.6 C 5.5,12 8.3,9.2 11.8,9.2 v 0 h 50.8 c 3.5,0 6.5,2.8 6.5,6.3 z"
   id="path495"
   style="fill:#ffffff" />
	<path
   d="m 14.9,35.4 c 0.1,0 32.4,0 32.4,0 1.4,0 2.6,-1.2 2.6,-2.6 0,-1.4 -1.2,-2.6 -2.6,-2.6 H 15.2 c -1.4,-0.1 -2.7,1 -2.8,2.4 0,1.5 1.1,2.7 2.5,2.8 z"
   id="path497"
   style="fill:#ffffff" />
	<path
   d="m 15.1,24.9 h 16.1 c 1.4,-0.1 2.5,-1.3 2.4,-2.8 -0.1,-1.3 -1.1,-2.4 -2.4,-2.4 h -16 c -1.4,0 -2.6,1.2 -2.5,2.7 0.1,1.3 1.1,2.4 2.4,2.5 z"
   id="path499"
   style="fill:#ffffff" />
	<path
   d="M 47.2,40.6 H 15.1 c -1.4,-0.1 -2.7,1 -2.8,2.4 -0.1,1.4 1,2.7 2.4,2.8 0.1,0 32.4,0 32.4,0 1.5,0 2.6,-1.1 2.6,-2.6 0,-1.5 -1,-2.6 -2.5,-2.6 z"
   id="path501"
   style="fill:#ffffff" />
</g></g></svg>
