<?xml version="1.0" encoding="UTF-8" standalone="no"?>
<!-- Generator: Adobe Illustrator 25.2.1, SVG Export Plug-In . SVG Version: 6.00 Build 0)  -->

<svg
   width="24px"
   height="24px"
   version="1.1"
   id="Layer_1"
   x="0px"
   y="0px"
   viewBox="0 0 74.4 74.4"
   style="enable-background:new 0 0 74.4 74.4;"
   xml:space="preserve"
   preserveAspectRatio="xMinYMid meet"
   sodipodi:docname="iconLti.svg"
   inkscape:version="1.2.1 (9c6d41e4, 2022-07-14)"
   xmlns:inkscape="http://www.inkscape.org/namespaces/inkscape"
   xmlns:sodipodi="http://sodipodi.sourceforge.net/DTD/sodipodi-0.dtd"
   xmlns="http://www.w3.org/2000/svg"
   xmlns:svg="http://www.w3.org/2000/svg"><defs
   id="defs93"><inkscape:path-effect
     effect="fillet_chamfer"
     id="path-effect11754"
     is_visible="true"
     lpeversion="1"
     nodesatellites_param="F,0,0,1,0,10,0,1 @ F,0,0,1,0,10,0,1 @ F,0,0,1,0,10,0,1 @ F,0,0,1,0,10,0,1"
     unit="px"
     method="auto"
     mode="F"
     radius="10"
     chamfer_steps="1"
     flexible="false"
     use_knot_distance="true"
     apply_no_radius="true"
     apply_with_radius="true"
     only_selected="false"
     hide_knots="false" /><inkscape:path-effect
     effect="fillet_chamfer"
     id="path-effect11738"
     is_visible="true"
     lpeversion="1"
     nodesatellites_param="F,0,0,1,0,0,0,1 @ F,0,0,1,0,0,0,1 @ F,0,0,1,0,0,0,1 @ F,0,0,1,0,0,0,1 @ F,0,0,1,0,0,0,1 @ F,0,0,1,0,0,0,1 @ F,0,0,1,0,0,0,1 @ F,0,0,1,0,0,0,1"
     unit="px"
     method="auto"
     mode="F"
     radius="0"
     chamfer_steps="1"
     flexible="false"
     use_knot_distance="true"
     apply_no_radius="true"
     apply_with_radius="true"
     only_selected="false"
     hide_knots="false" /><inkscape:path-effect
     effect="bspline"
     id="path-effect11734"
     is_visible="true"
     lpeversion="1"
     weight="33.333333"
     steps="2"
     helper_size="0"
     apply_no_weight="true"
     apply_with_weight="true"
     only_selected="false" /></defs><sodipodi:namedview
   id="namedview91"
   pagecolor="#ffffff"
   bordercolor="#000000"
   borderopacity="0.25"
   inkscape:showpageshadow="2"
   inkscape:pageopacity="0.0"
   inkscape:pagecheckerboard="0"
   inkscape:deskcolor="#d1d1d1"
   showgrid="false"
   inkscape:zoom="19.666667"
   inkscape:cx="9.9915253"
   inkscape:cy="10.449152"
   inkscape:window-width="1440"
   inkscape:window-height="855"
   inkscape:window-x="1"
   inkscape:window-y="23"
   inkscape:window-maximized="0"
   inkscape:current-layer="Layer_1" />

<rect
   style="fill:#399be2;fill-opacity:1;stroke-width:3.1"
   id="rect11752"
   width="74.557625"
   height="74.400002"
   x="-2.6028694e-08"
   y="0"
   inkscape:path-effect="#path-effect11754"
   d="m 10,0 h 54.557625 a 10,10 45 0 1 10,10 v 54.400002 a 10,10 135 0 1 -10,10 H 10 A 10,10 45 0 1 -2.6028694e-8,64.400002 V 10 A 10,10 135 0 1 10,0 Z" /><path
   d="m 60.100162,38.205541 c 0.769457,0.699516 2.028583,0.559615 2.588188,-0.209848 0.279794,-0.279802 0.48965,-0.769459 0.48965,-1.189166 V 20.438024 c 0,-0.979311 -0.839406,-1.81872 -1.818715,-1.81872 v 0 H 48.348418 c -0.419706,-9.8630723 -14.47983,-9.8630723 -14.899537,0 H 20.438024 c -0.979311,0 -1.81872,0.839409 -1.81872,1.81872 v 0 13.010857 c -9.8630723,0.419707 -9.8630723,14.479831 0,14.899537 v 13.010867 c 0,0.979309 0.839409,1.818715 1.81872,1.818715 v 0 h 16.368503 c 0.979321,0 1.81872,-0.909357 1.81872,-1.95862 0,-0.489658 -0.139899,-0.839411 -0.489653,-1.18916 -3.217739,-3.777352 2.098528,-8.534011 5.456164,-5.036474 1.329066,1.399024 1.329066,3.5675 0,5.036474 -0.699505,0.769457 -0.629558,1.958616 0.139903,2.588178 0.279804,0.279798 0.769457,0.489655 1.259122,0.489655 h 16.368502 c 0.979309,0 1.818715,-0.83941 1.818715,-1.81872 v 0 -16.368509 c 0,-0.979309 -0.909357,-1.818715 -1.95862,-1.818715 -0.489658,0 -0.839411,0.139895 -1.18916,0.489649 -1.538921,1.399025 -3.847303,1.259123 -5.246325,-0.209853 v 0 c -3.007883,-3.497535 1.81873,-8.254191 5.316267,-5.176364 z m -2.448285,10.142877 c 0.629564,0 1.259123,-0.06993 1.818732,-0.209857 V 59.540553 H 48.068615 c 0.979312,-3.987201 -1.399019,-8.044344 -5.316263,-9.093607 -3.987196,-0.979317 -8.044352,1.39902 -9.093614,5.316263 -0.279804,1.25912 -0.279804,2.518232 0,3.777344 H 22.256749 V 46.249889 c 0,-0.979308 -0.839414,-1.818714 -1.818725,-1.818714 v 0 c -0.629556,0.139897 -1.259112,0.209851 -1.81872,0.279797 -4.966509,-0.1399 -4.966509,-7.34484 0,-7.414791 0.489653,0 0.839409,0.06996 1.259112,0.209852 0.979312,0.279815 2.028578,-0.139901 2.378333,-1.189163 0.06997,-0.139903 0.06997,-0.419704 0.06997,-0.629551 v -13.36062 h 13.360618 c 0.979308,0 1.818714,-0.83941 1.818714,-1.818721 0,-0.209853 0,-0.419709 -0.06993,-0.629562 -0.699506,-1.958622 0.279805,-4.057147 2.308379,-4.686703 1.958626,-0.699511 4.057152,0.2798 4.686713,2.308377 0.139899,0.419704 0.209849,0.769459 0.209849,1.259111 v 0 c 0,0.419711 -0.06995,0.839415 -0.209849,1.259119 -0.279806,0.979311 0.139899,2.028575 1.189159,2.37833 0.209853,0.06996 0.419702,0.06996 0.629563,0.06996 h 13.360594 v 11.401985 c -3.987195,-0.979312 -8.044352,1.399019 -9.023663,5.386218 -0.979313,3.987202 1.399018,8.044354 5.386216,9.023663 0.489653,0 1.049265,0.209852 1.678821,0.06993 z"
   id="path491"
   style="fill:#ffffff;stroke-width:0.699508" /></svg>
