<?xml version="1.0" encoding="UTF-8" standalone="no"?>
<!-- Generator: Adobe Illustrator 25.2.1, SVG Export Plug-In . SVG Version: 6.00 Build 0)  -->

<svg
   width="24px"
   height="24px"
   version="1.1"
   id="Layer_1"
   x="0px"
   y="0px"
   viewBox="0 0 74.4 74.4"
   style="enable-background:new 0 0 74.4 74.4;"
   xml:space="preserve"
   preserveAspectRatio="xMinYMid meet"
   sodipodi:docname="icon.svg"
   inkscape:version="1.2.1 (9c6d41e4, 2022-07-14)"
   xmlns:inkscape="http://www.inkscape.org/namespaces/inkscape"
   xmlns:sodipodi="http://sodipodi.sourceforge.net/DTD/sodipodi-0.dtd"
   xmlns="http://www.w3.org/2000/svg"
   xmlns:svg="http://www.w3.org/2000/svg"><defs
   id="defs93"><inkscape:path-effect
     effect="fillet_chamfer"
     id="path-effect11754"
     is_visible="true"
     lpeversion="1"
     nodesatellites_param="F,0,0,1,0,10,0,1 @ F,0,0,1,0,10,0,1 @ F,0,0,1,0,10,0,1 @ F,0,0,1,0,10,0,1"
     unit="px"
     method="auto"
     mode="F"
     radius="10"
     chamfer_steps="1"
     flexible="false"
     use_knot_distance="true"
     apply_no_radius="true"
     apply_with_radius="true"
     only_selected="false"
     hide_knots="false" /><inkscape:path-effect
     effect="fillet_chamfer"
     id="path-effect11738"
     is_visible="true"
     lpeversion="1"
     nodesatellites_param="F,0,0,1,0,0,0,1 @ F,0,0,1,0,0,0,1 @ F,0,0,1,0,0,0,1 @ F,0,0,1,0,0,0,1 @ F,0,0,1,0,0,0,1 @ F,0,0,1,0,0,0,1 @ F,0,0,1,0,0,0,1 @ F,0,0,1,0,0,0,1"
     unit="px"
     method="auto"
     mode="F"
     radius="0"
     chamfer_steps="1"
     flexible="false"
     use_knot_distance="true"
     apply_no_radius="true"
     apply_with_radius="true"
     only_selected="false"
     hide_knots="false" /><inkscape:path-effect
     effect="bspline"
     id="path-effect11734"
     is_visible="true"
     lpeversion="1"
     weight="33.333333"
     steps="2"
     helper_size="0"
     apply_no_weight="true"
     apply_with_weight="true"
     only_selected="false" /><style
     id="style204">.cls-1{fill:#336;}.cls-2{fill:#fff;}</style></defs><sodipodi:namedview
   id="namedview91"
   pagecolor="#ffffff"
   bordercolor="#000000"
   borderopacity="0.25"
   inkscape:showpageshadow="2"
   inkscape:pageopacity="0.0"
   inkscape:pagecheckerboard="0"
   inkscape:deskcolor="#d1d1d1"
   showgrid="false"
   inkscape:zoom="19.666667"
   inkscape:cx="9.2542371"
   inkscape:cy="10.5"
   inkscape:window-width="1440"
   inkscape:window-height="855"
   inkscape:window-x="0"
   inkscape:window-y="121"
   inkscape:window-maximized="0"
   inkscape:current-layer="Layer_1" />

<rect
   style="fill:#399be2;fill-opacity:1;stroke-width:3.1"
   id="rect11752"
   width="74.557625"
   height="74.400002"
   x="-2.6028694e-08"
   y="0"
   inkscape:path-effect="#path-effect11754"
   d="m 10,0 h 54.557625 a 10,10 45 0 1 10,10 v 54.400002 a 10,10 135 0 1 -10,10 H 10 A 10,10 45 0 1 -2.6028694e-8,64.400002 V 10 A 10,10 135 0 1 10,0 Z" /><g
   id="g219"
   transform="matrix(1.6172789,0,0,1.6172789,-1.7602489,-1.2427202)"><circle
     class="cls-1"
     cx="24.09"
     cy="23.77"
     r="23.959999"
     id="circle210"
     style="display:none" /><path
     id="path1"
     class="cls-2"
     d="m 25.597796,26.354713 -0.346668,0.244706 -0.642354,0.469022 -0.224314,0.173332 0.672942,5.709814 1.019609,-1.661964 2.161573,1.01961 z m 4.771771,-3.507456 -0.193726,0.152942 -0.652549,0.479216 2.84471,3.854123 0.265098,-1.335687 1.814905,-0.49961 z m -11.215704,-2.630592 -0.265098,0.193725 -3.894908,2.763142 c 1.570199,0.438432 3.374908,1.77412 3.9153,5.648636 l 3.283142,-2.345102 0.152942,-0.09177 v -0.06117 h 0.112157 l 0.346667,-0.244706 0.193726,-0.152942 v -0.09177 A 5.6282441,5.6282441 0 0 0 19.317,20.318622 Z m 3.823536,-2.701965 -0.36706,0.244707 c -0.876864,0.611765 -1.733336,1.203138 -2.55922,1.794512 h -0.06117 l 0.13255,0.07138 a 6.5662848,6.5662848 0 0 1 3.874515,5.403929 v 0.132549 l 0.723923,-0.520001 1.661963,-1.203138 0.152942,-0.112158 v -0.19373 c 0.265096,-3.150593 -2.161574,-4.924714 -3.436086,-5.607852 z m 3.935692,-2.681574 -0.132549,0.09177 -2.385886,1.621179 -0.550589,0.377255 v 0 a 7.0251089,7.0251089 0 0 1 3.609417,5.577264 v 0.112157 l 0.530197,-0.377255 c 0.611765,-0.458825 1.223531,-0.897257 1.835297,-1.335689 L 29.971919,20.78765 V 20.69588 C 30.62447,17.830777 28.238584,15.771167 26.99466,14.914695 Z m 6.780403,-3.935692 a 2.0392189,2.0392189 0 0 0 -1.019609,0.244708 c -1.20314,0.683137 -2.885495,1.753727 -4.771772,3.058827 l -0.193727,0.13255 0.152942,0.112156 c 1.274512,1.01961 3.21177,2.865103 3.170985,5.444714 v 0.193726 l 0.530197,-0.397647 c 1.865886,-1.396865 3.507457,-2.650984 4.680008,-3.589026 1.509021,-1.203138 0.530197,-2.916082 0.193725,-3.415691 a 3.6502018,3.6502018 0 0 0 -2.742749,-1.77412 z m 0.06118,-1.886277 a 5.618048,5.618048 0 0 1 4.272162,2.559221 c 1.427455,2.120787 1.20314,4.48628 -0.57098,5.913734 -1.274512,1.019609 -3.058828,2.406277 -5.098047,3.935692 l -0.326275,0.224314 7.004716,4.527065 -4.730987,1.274513 -0.876864,4.353732 -5.363146,-7.249424 h -0.06117 l -0.744314,0.530198 -0.07138,0.06117 4.771773,10.991388 -5.200009,-2.436866 -2.936474,4.83295 -1.182747,-10.043153 -0.570982,0.397647 c -1.223531,0.876863 -2.365493,1.682356 -3.36471,2.385886 v 0 l -1.376473,1.01961 a 6.3113824,6.3113824 0 0 1 -3.62981,1.335688 3.9458885,3.9458885 0 0 1 -1.753728,-0.438433 5.5874597,5.5874597 0 0 1 -2.7529455,-4.700398 3.0588284,3.0588284 0 0 1 1.0196085,-2.865104 0.93609997,0.93609997 0 1 1 1.01961,1.5702 c -0.305882,0.265097 -0.418039,2.212552 0.652551,3.568632 1.07059,1.35608 2.426669,1.243924 4.312948,-0.07138 0.305882,-0.214118 0.611765,-0.438433 0.958432,-0.672942 -0.346667,-5.322362 -2.956868,-5.271381 -4.221183,-5.230597 h -0.265099 a 1.0196095,1.0196095 0 0 1 -1.019609,-0.723923 1.0196095,1.0196095 0 0 1 0.469019,-1.07059 C 12.669147,22.592349 26.495052,12.569589 31.776628,9.5515449 a 3.8643198,3.8643198 0 0 1 1.967846,-0.530197 z"
     style="stroke-width:1.01961" /></g></svg>
