<?xml version="1.0" encoding="UTF-8" standalone="no"?>
<!-- Generator: Adobe Illustrator 25.2.1, SVG Export Plug-In . SVG Version: 6.00 Build 0)  -->

<svg
   width="24px"
   height="24px"
   version="1.1"
   id="Layer_1"
   x="0px"
   y="0px"
   viewBox="0 0 74.4 74.4"
   style="enable-background:new 0 0 74.4 74.4;"
   xml:space="preserve"
   preserveAspectRatio="xMinYMid meet"
   sodipodi:docname="iconBook.svg"
   inkscape:version="1.2.1 (9c6d41e4, 2022-07-14)"
   xmlns:inkscape="http://www.inkscape.org/namespaces/inkscape"
   xmlns:sodipodi="http://sodipodi.sourceforge.net/DTD/sodipodi-0.dtd"
   xmlns="http://www.w3.org/2000/svg"
   xmlns:svg="http://www.w3.org/2000/svg"><defs
   id="defs93"><inkscape:path-effect
     effect="fillet_chamfer"
     id="path-effect11754"
     is_visible="true"
     lpeversion="1"
     nodesatellites_param="F,0,0,1,0,10,0,1 @ F,0,0,1,0,10,0,1 @ F,0,0,1,0,10,0,1 @ F,0,0,1,0,10,0,1"
     unit="px"
     method="auto"
     mode="F"
     radius="10"
     chamfer_steps="1"
     flexible="false"
     use_knot_distance="true"
     apply_no_radius="true"
     apply_with_radius="true"
     only_selected="false"
     hide_knots="false" /><inkscape:path-effect
     effect="fillet_chamfer"
     id="path-effect11738"
     is_visible="true"
     lpeversion="1"
     nodesatellites_param="F,0,0,1,0,0,0,1 @ F,0,0,1,0,0,0,1 @ F,0,0,1,0,0,0,1 @ F,0,0,1,0,0,0,1 @ F,0,0,1,0,0,0,1 @ F,0,0,1,0,0,0,1 @ F,0,0,1,0,0,0,1 @ F,0,0,1,0,0,0,1"
     unit="px"
     method="auto"
     mode="F"
     radius="0"
     chamfer_steps="1"
     flexible="false"
     use_knot_distance="true"
     apply_no_radius="true"
     apply_with_radius="true"
     only_selected="false"
     hide_knots="false" /><inkscape:path-effect
     effect="bspline"
     id="path-effect11734"
     is_visible="true"
     lpeversion="1"
     weight="33.333333"
     steps="2"
     helper_size="0"
     apply_no_weight="true"
     apply_with_weight="true"
     only_selected="false" /></defs><sodipodi:namedview
   id="namedview91"
   pagecolor="#ffffff"
   bordercolor="#000000"
   borderopacity="0.25"
   inkscape:showpageshadow="2"
   inkscape:pageopacity="0.0"
   inkscape:pagecheckerboard="0"
   inkscape:deskcolor="#d1d1d1"
   showgrid="false"
   inkscape:zoom="19.666667"
   inkscape:cx="9.9915253"
   inkscape:cy="10.449152"
   inkscape:window-width="1440"
   inkscape:window-height="855"
   inkscape:window-x="1"
   inkscape:window-y="23"
   inkscape:window-maximized="0"
   inkscape:current-layer="Layer_1" />

<rect
   style="fill:#399be2;fill-opacity:1;stroke-width:3.1"
   id="rect11752"
   width="74.557625"
   height="74.400002"
   x="-2.6028694e-08"
   y="0"
   inkscape:path-effect="#path-effect11754"
   d="m 10,0 h 54.557625 a 10,10 45 0 1 10,10 v 54.400002 a 10,10 135 0 1 -10,10 H 10 A 10,10 45 0 1 -2.6028694e-8,64.400002 V 10 A 10,10 135 0 1 10,0 Z" /><path
   id="book-2-6_1_"
   d="m 62.31,15.996563 c 0,-0.8775 -0.742479,-1.687501 -1.687481,-1.687501 -0.269999,0 -0.472499,0.06749 -0.674999,0.2025 l -4.455005,2.227501 v -2.835002 c 0,-0.877499 -0.742496,-1.687499 -1.754996,-1.687499 -0.270006,0 -0.472506,0.06749 -0.675006,0.135002 l -15.929994,7.964998 -15.930018,-7.8975 c -0.810001,-0.405 -1.822501,-0.06748 -2.2275,0.742502 -0.134999,0.134997 -0.134999,0.405 -0.2025,0.6075 v 2.835 l -4.319999,-2.160002 c -0.81,-0.405 -1.890004,-0.06749 -2.2275,0.742502 C 12.09,15.389063 12.09,15.659063 12.09,15.861563 v 33.142514 c 0,0.6075 0.337502,1.147495 0.877498,1.484985 L 36.39,62.031562 c 0.472497,0.2025 1.0125,0.2025 1.552519,0 l 23.422502,-11.5425 c 0.539979,-0.269985 0.877498,-0.81 0.877498,-1.484985 z M 36.5925,54.336562 c 0.269997,0.06735 0.6075,0.06735 0.877498,0 0.06734,0 0.135002,-0.06735 0.2025,-0.06735 v 0 c 0,0 16.672521,-8.234999 16.740002,-8.234999 0.540019,-0.270001 0.877515,-0.810001 0.877515,-1.485001 v -24.03015 l 3.510004,-1.754998 V 47.721569 L 36.9975,58.521577 15.667502,47.181577 V 19.101562 l 3.375,1.4175 v 24.030015 c 0,0.6075 0.337498,1.14749 0.8775,1.484985 0.06748,0 16.267498,8.235015 16.334995,8.235015 v 0 c 0.2025,0 0.270022,0 0.337503,0.06735 z m 2.362519,-4.522485 V 23.556565 L 51.78,17.211564 V 43.536577 Z M 22.552502,43.401562 V 17.144064 L 35.3775,23.489068 v 26.189994 z"
   style="stroke-width:0.674985;fill:#ffffff" /></svg>
