<?xml version="1.0" encoding="UTF-8" standalone="no"?>
<!-- Generator: Adobe Illustrator 25.2.1, SVG Export Plug-In . SVG Version: 6.00 Build 0)  -->

<svg
   width="24px"
   height="24px"
   version="1.1"
   id="Layer_1"
   x="0px"
   y="0px"
   viewBox="0 0 74.4 74.4"
   style="enable-background:new 0 0 74.4 74.4;"
   xml:space="preserve"
   preserveAspectRatio="xMinYMid meet"
   sodipodi:docname="icon.svg"
   inkscape:version="1.2.1 (9c6d41e4, 2022-07-14)"
   xmlns:inkscape="http://www.inkscape.org/namespaces/inkscape"
   xmlns:sodipodi="http://sodipodi.sourceforge.net/DTD/sodipodi-0.dtd"
   xmlns="http://www.w3.org/2000/svg"
   xmlns:svg="http://www.w3.org/2000/svg"><defs
   id="defs93"><inkscape:path-effect
     effect="fillet_chamfer"
     id="path-effect11754"
     is_visible="true"
     lpeversion="1"
     nodesatellites_param="F,0,0,1,0,10,0,1 @ F,0,0,1,0,10,0,1 @ F,0,0,1,0,10,0,1 @ F,0,0,1,0,10,0,1"
     unit="px"
     method="auto"
     mode="F"
     radius="10"
     chamfer_steps="1"
     flexible="false"
     use_knot_distance="true"
     apply_no_radius="true"
     apply_with_radius="true"
     only_selected="false"
     hide_knots="false" /><inkscape:path-effect
     effect="fillet_chamfer"
     id="path-effect11738"
     is_visible="true"
     lpeversion="1"
     nodesatellites_param="F,0,0,1,0,0,0,1 @ F,0,0,1,0,0,0,1 @ F,0,0,1,0,0,0,1 @ F,0,0,1,0,0,0,1 @ F,0,0,1,0,0,0,1 @ F,0,0,1,0,0,0,1 @ F,0,0,1,0,0,0,1 @ F,0,0,1,0,0,0,1"
     unit="px"
     method="auto"
     mode="F"
     radius="0"
     chamfer_steps="1"
     flexible="false"
     use_knot_distance="true"
     apply_no_radius="true"
     apply_with_radius="true"
     only_selected="false"
     hide_knots="false" /><inkscape:path-effect
     effect="bspline"
     id="path-effect11734"
     is_visible="true"
     lpeversion="1"
     weight="33.333333"
     steps="2"
     helper_size="0"
     apply_no_weight="true"
     apply_with_weight="true"
     only_selected="false" /><style
     id="style204">.cls-1{fill:#336;}.cls-2{fill:#fff;}</style><style
     id="style577">.cls-1{fill:#06c;}.cls-2{fill:#fff;}</style><style
     id="style766">.cls-1{fill:#06c;}.cls-2{fill:#fff;}</style></defs><sodipodi:namedview
   id="namedview91"
   pagecolor="#ffffff"
   bordercolor="#000000"
   borderopacity="0.25"
   inkscape:showpageshadow="2"
   inkscape:pageopacity="0.0"
   inkscape:pagecheckerboard="0"
   inkscape:deskcolor="#d1d1d1"
   showgrid="false"
   inkscape:zoom="19.666667"
   inkscape:cx="9.2542371"
   inkscape:cy="10.5"
   inkscape:window-width="1440"
   inkscape:window-height="855"
   inkscape:window-x="0"
   inkscape:window-y="121"
   inkscape:window-maximized="0"
   inkscape:current-layer="Layer_1" />

<rect
   style="fill:#399be2;fill-opacity:1;stroke-width:3.1"
   id="rect11752"
   width="74.557625"
   height="74.400002"
   x="-2.6028694e-08"
   y="0"
   d="m 10,0 h 54.557625 a 10,10 45 0 1 10,10 v 54.400002 a 10,10 135 0 1 -10,10 H 10 A 10,10 45 0 1 -2.6028694e-8,64.400002 V 10 A 10,10 135 0 1 10,0 Z"
   inkscape:path-effect="#path-effect11754" /><g
   id="g812"
   transform="matrix(2.125274,0,0,2.125274,-13.787271,-13.597219)"><circle
     class="cls-1"
     cx="24"
     cy="23.91"
     r="24"
     id="circle772"
     style="display:none" /><path
     class="cls-2"
     d="m 28.61,18.6 h -3.56 a 2.6,2.6 0 0 0 -2.36,2 c -0.08,0.47 -0.15,1 -0.24,1.42 -0.34,1.8 -0.67,3.58 -1,5.38 -0.28,1.56 0.41,2.46 2,2.46 2.18,0 4.37,0 6.54,0 a 2.66,2.66 0 0 0 2.78,-2.38 c 0.38,-2.21 0.77,-4.42 1.13,-6.64 0.24,-1.42 -0.45,-2.23 -1.91,-2.23 C 30.82,18.6 29.72,18.6 28.61,18.6 Z m -11.19,3.75 v 0 c 0.34,0 0.66,0 1,0 0.79,0 1.09,-0.24 1.24,-1 0.15,-0.76 0.28,-1.48 0.39,-2.23 0.09,-0.6 -0.15,-0.9 -0.75,-0.92 -0.77,0 -1.56,0 -2.34,0 a 1,1 0 0 0 -1,0.83 q -0.25,1.27 -0.45,2.53 a 0.65,0.65 0 0 0 0.67,0.83 c 0.38,-0.02 0.82,-0.04 1.24,-0.04 z m -0.34,2.31 v 0 c -0.39,0 -0.79,0 -1.16,0 a 1,1 0 0 0 -1.11,0.9 c -0.17,0.79 -0.3,1.56 -0.41,2.34 -0.09,0.64 0.17,0.92 0.81,0.94 0.64,0.02 1.48,0 2.21,0 a 1.05,1.05 0 0 0 1.14,-1 c 0.15,-0.79 0.3,-1.57 0.41,-2.36 0.09,-0.56 -0.15,-0.84 -0.73,-0.88 z m 13.13,6.56 H 29 a 1,1 0 0 0 -1.05,0.84 c -0.17,0.82 -0.32,1.65 -0.43,2.47 -0.07,0.56 0.17,0.84 0.75,0.86 0.79,0 1.59,0 2.38,0 a 0.94,0.94 0 0 0 1,-0.77 c 0.19,-0.88 0.34,-1.74 0.47,-2.64 0.07,-0.49 -0.21,-0.77 -0.71,-0.77 z m -8.85,-16 c 0.39,-0.06 1,0.21 1.18,-0.47 a 6.41,6.41 0 0 0 0.22,-1.31 c 0,-0.17 -0.19,-0.49 -0.3,-0.49 a 7.37,7.37 0 0 0 -1.58,0 c -0.15,0 -0.34,0.24 -0.41,0.41 a 2.69,2.69 0 0 0 -0.13,0.67 c -0.2,1.16 -0.2,1.16 1.02,1.16 z m -4.45,15.89 a 1.81,1.81 0 0 0 -0.64,0 1.09,1.09 0 0 0 -0.58,0.43 8,8 0 0 0 -0.26,1.37 q -0.08,0.51 0.45,0.51 h 1.22 a 0.6,0.6 0 0 0 0.66,-0.58 c 0,-0.21 0.08,-0.41 0.11,-0.64 0.19,-1.09 0.19,-1.09 -0.96,-1.09 z m 7.18,4.33 c 1.16,0 1.16,0 1.35,-1.16 a 2.94,2.94 0 0 0 0.09,-0.69 c 0,-0.15 -0.13,-0.41 -0.21,-0.41 a 6.26,6.26 0 0 0 -1.78,0.06 c -0.22,0.06 -0.34,0.64 -0.43,1 -0.23,1.2 -0.22,1.2 0.98,1.2 z M 12.69,19.26 c 0.84,0 1.07,-0.26 1.07,-1 0,-0.45 -0.36,-0.34 -0.6,-0.34 -0.62,0 -0.88,0.26 -0.83,1 0.03,0.15 0.33,0.3 0.36,0.34 z m 11,-2.68 c 0.82,0 1,-0.19 1,-0.9 0,-0.47 -0.28,-0.43 -0.58,-0.43 -0.62,0 -0.84,0.22 -0.79,0.94 0.01,0.18 0.31,0.33 0.34,0.39 z"
     id="path774" /><path
     class="cls-2"
     d="m 35.66,13.33 c -0.15,0.69 -0.32,1.39 -0.45,2.1 -0.17,0.88 -0.47,1.14 -1.39,1.14 -0.66,0 -1.33,0 -2,0 -0.67,0 -0.92,-0.28 -0.82,-1 0.1,-0.72 0.26,-1.58 0.41,-2.34 a 1,1 0 0 1 1.09,-0.86 c 0.69,0 1.41,0 2.1,0 a 1.11,1.11 0 0 1 1.05,0.49 z"
     id="path776" /><path
     class="cls-2"
     d="M 28.61,18.6 H 32 a 1.72,1.72 0 0 1 1.91,2.23 l -1.12,6.64 A 2.64,2.64 0 0 1 30,29.85 c -2.18,0 -4.37,0 -6.54,0 -1.54,0 -2.25,-0.92 -2,-2.46 0.34,-1.8 0.67,-3.58 1,-5.38 0.09,-0.47 0.17,-1 0.24,-1.42 a 2.62,2.62 0 0 1 2.36,-2 z"
     id="path778" /><path
     class="cls-2"
     d="m 17.42,22.35 c -0.43,0 -0.86,0 -1.28,0 a 0.64,0.64 0 0 1 -0.67,-0.83 q 0.2,-1.27 0.45,-2.53 a 1,1 0 0 1 1,-0.83 c 0.77,0 1.56,0 2.34,0 0.6,0 0.84,0.32 0.75,0.92 -0.09,0.6 -0.24,1.5 -0.39,2.23 -0.15,0.73 -0.45,1 -1.24,1 -0.36,0 -0.68,0 -1,0 z"
     id="path780" /><path
     class="cls-2"
     d="m 17.08,24.66 c 0.39,0 0.79,0 1.16,0 0.56,0 0.81,0.32 0.73,0.88 -0.13,0.79 -0.26,1.57 -0.41,2.36 a 1.08,1.08 0 0 1 -1.14,1 c -0.73,0 -1.48,0 -2.21,0 -0.73,0 -0.88,-0.3 -0.81,-0.94 0.11,-0.79 0.24,-1.57 0.41,-2.34 a 1,1 0 0 1 1.11,-0.9 c 0.39,0 0.77,0 1.16,0 z"
     id="path782" /><path
     class="cls-2"
     d="m 30.21,31.22 h 1.22 c 0.51,0 0.79,0.28 0.71,0.77 -0.11,0.88 -0.28,1.76 -0.47,2.64 a 1,1 0 0 1 -1,0.77 c -0.79,0 -1.59,0 -2.38,0 -0.58,0 -0.82,-0.3 -0.75,-0.86 0.11,-0.82 0.24,-1.65 0.43,-2.47 A 1,1 0 0 1 29,31.22 Z"
     id="path784" /><path
     class="cls-2"
     d="m 21.36,15.19 c -1.22,0 -1.22,0 -1,-1.18 a 2.69,2.69 0 0 1 0.13,-0.67 c 0.08,-0.17 0.26,-0.41 0.41,-0.41 a 7.37,7.37 0 0 1 1.58,0 c 0.13,0 0.32,0.34 0.3,0.49 a 6.2,6.2 0 0 1 -0.22,1.31 c -0.21,0.66 -0.81,0.4 -1.2,0.46 z"
     id="path786" /><path
     class="cls-2"
     d="m 16.91,31.11 c 1.14,0 1.14,0 1,1.12 0,0.21 -0.08,0.41 -0.11,0.64 a 0.6,0.6 0 0 1 -0.66,0.58 h -1.26 q -0.53,0 -0.45,-0.51 a 8.4,8.4 0 0 1 0.26,-1.37 1,1 0 0 1 0.58,-0.43 1.47,1.47 0 0 1 0.64,-0.03 z"
     id="path788" /><path
     class="cls-2"
     d="m 24.09,35.44 c -1.2,0 -1.22,0 -1,-1.2 0.08,-0.36 0.21,-0.94 0.43,-1 a 5.65,5.65 0 0 1 1.78,-0.06 c 0.07,0 0.21,0.26 0.21,0.41 a 3.08,3.08 0 0 1 -0.09,0.69 c -0.18,1.16 -0.18,1.16 -1.33,1.16 z"
     id="path790" /><path
     class="cls-2"
     d="m 12.69,19.26 c 0,0 -0.34,-0.17 -0.36,-0.34 -0.06,-0.69 0.21,-1 0.83,-1 0.24,0 0.58,-0.09 0.6,0.34 0.02,0.74 -0.2,1 -1.07,1 z"
     id="path792" /><path
     class="cls-2"
     d="m 23.66,16.58 c -0.06,-0.06 -0.34,-0.21 -0.36,-0.39 -0.06,-0.71 0.17,-0.94 0.79,-0.94 0.28,0 0.6,-0.06 0.58,0.43 -0.03,0.71 -0.18,0.9 -1.01,0.9 z"
     id="path794" /></g></svg>
