<?xml version="1.0" encoding="UTF-8" standalone="no"?>
<!-- Generator: Adobe Illustrator 25.2.1, SVG Export Plug-In . SVG Version: 6.00 Build 0)  -->

<svg
   width="24px"
   height="24px"
   version="1.1"
   id="Layer_1"
   x="0px"
   y="0px"
   viewBox="0 0 74.4 74.4"
   style="enable-background:new 0 0 74.4 74.4;"
   xml:space="preserve"
   preserveAspectRatio="xMinYMid meet"
   sodipodi:docname="iconWorkshop.svg"
   inkscape:version="1.2.1 (9c6d41e4, 2022-07-14)"
   xmlns:inkscape="http://www.inkscape.org/namespaces/inkscape"
   xmlns:sodipodi="http://sodipodi.sourceforge.net/DTD/sodipodi-0.dtd"
   xmlns="http://www.w3.org/2000/svg"
   xmlns:svg="http://www.w3.org/2000/svg"><defs
   id="defs93"><inkscape:path-effect
     effect="fillet_chamfer"
     id="path-effect11754"
     is_visible="true"
     lpeversion="1"
     nodesatellites_param="F,0,0,1,0,10,0,1 @ F,0,0,1,0,10,0,1 @ F,0,0,1,0,10,0,1 @ F,0,0,1,0,10,0,1"
     unit="px"
     method="auto"
     mode="F"
     radius="10"
     chamfer_steps="1"
     flexible="false"
     use_knot_distance="true"
     apply_no_radius="true"
     apply_with_radius="true"
     only_selected="false"
     hide_knots="false" /><inkscape:path-effect
     effect="fillet_chamfer"
     id="path-effect11738"
     is_visible="true"
     lpeversion="1"
     nodesatellites_param="F,0,0,1,0,0,0,1 @ F,0,0,1,0,0,0,1 @ F,0,0,1,0,0,0,1 @ F,0,0,1,0,0,0,1 @ F,0,0,1,0,0,0,1 @ F,0,0,1,0,0,0,1 @ F,0,0,1,0,0,0,1 @ F,0,0,1,0,0,0,1"
     unit="px"
     method="auto"
     mode="F"
     radius="0"
     chamfer_steps="1"
     flexible="false"
     use_knot_distance="true"
     apply_no_radius="true"
     apply_with_radius="true"
     only_selected="false"
     hide_knots="false" /><inkscape:path-effect
     effect="bspline"
     id="path-effect11734"
     is_visible="true"
     lpeversion="1"
     weight="33.333333"
     steps="2"
     helper_size="0"
     apply_no_weight="true"
     apply_with_weight="true"
     only_selected="false" /></defs><sodipodi:namedview
   id="namedview91"
   pagecolor="#ffffff"
   bordercolor="#000000"
   borderopacity="0.25"
   inkscape:showpageshadow="2"
   inkscape:pageopacity="0.0"
   inkscape:pagecheckerboard="0"
   inkscape:deskcolor="#d1d1d1"
   showgrid="false"
   inkscape:zoom="19.666667"
   inkscape:cx="11.008474"
   inkscape:cy="14.516949"
   inkscape:window-width="1440"
   inkscape:window-height="855"
   inkscape:window-x="0"
   inkscape:window-y="23"
   inkscape:window-maximized="0"
   inkscape:current-layer="Layer_1" />

<rect
   style="fill:#eb66a2;fill-opacity:1;stroke-width:3.1"
   id="rect11752"
   width="74.557625"
   height="74.400002"
   x="-2.6028694e-08"
   y="0"
   inkscape:path-effect="#path-effect11754"
   d="m 10,0 h 54.557625 a 10,10 45 0 1 10,10 v 54.400002 a 10,10 135 0 1 -10,10 H 10 A 10,10 45 0 1 -2.6028694e-8,64.400002 V 10 A 10,10 135 0 1 10,0 Z" /><g
   id="Group_12483_1_"
   transform="matrix(0.69583333,0,0,0.69583333,11.245417,11.354762)"
   style="fill:#ffffff">
	<path
   d="M 67.6,56.1 C 62.8,53 57.1,51.5 51.4,51.6 46.5,51.5 41.6,52.7 37.2,54.9 32.8,52.7 27.9,51.5 23,51.6 17.3,51.5 11.6,53 6.8,56.1 2.4,59 0.1,63 0.1,67.3 v 4.2 c 0,1.5 1.1,2.7 2.7,2.8 h 69 c 1.6,-0.1 2.7,-1.3 2.7,-2.8 V 67.3 C 74.4,63 72,59 67.6,56.1 Z M 40.7,69.2 H 5.5 v -1.5 c 0.3,-5.6 6.2,-8.5 10.7,-9.9 6.5,-1.9 13.4,-0.9 19.5,2.4 2.6,1.5 5,4.2 5,7.4 z m 28.4,0 h -23 c 0.3,-4 -1,-7.8 -3.6,-10.7 7,-2.7 15,-2 21.6,1.7 2.6,1.5 5,4.2 5,7.4 z"
   id="path585"
   style="fill:#ffffff" />
	<path
   d="m 22.9,48.5 c 6.5,0 11.7,-5.1 11.7,-11.6 C 34,21.6 11.7,21.6 11,36.9 c 0,6.3 5.3,11.6 11.9,11.6 z M 16.3,36.9 c 0.1,-3.5 3.2,-6.2 6.8,-6.1 3.4,0.1 6.1,2.8 6.3,6.1 -0.4,8.4 -12.8,8.4 -13.1,0 z"
   id="path587"
   style="fill:#ffffff" />
	<path
   d="m 50.8,48.5 c 6.5,0 11.7,-5.1 11.7,-11.6 -0.6,-15.3 -22.9,-15.3 -23.6,0 0.1,6.3 5.3,11.6 11.9,11.6 z m 0,-17.9 c 3.6,0 6.5,2.8 6.5,6.3 -0.3,8.4 -12.7,8.4 -12.9,0 0,-3.5 2.8,-6.3 6.4,-6.3 z"
   id="path589"
   style="fill:#ffffff" />
	<path
   id="Path_565_1_"
   d="m 20.5,0.2 c 1.5,0.5 2.2,2.2 1.7,3.7 L 20.6,7.7 C 31.3,3.5 43.4,3.5 54.1,7.9 L 52.4,4 C 51.8,2.6 52.5,0.9 54,0.3 c 1.5,-0.7 3.1,0.1 3.8,1.5 l 4.1,10 c 0.6,1.4 -0.1,3.1 -1.6,3.7 v 0 l -10.3,4 c -1.5,0.5 -3.1,-0.2 -3.7,-1.6 -0.6,-1.4 0.1,-3.1 1.6,-3.6 l 3.5,-1.7 C 42.3,9 32.2,8.9 23,12.5 l 3.7,1.7 c 1.5,0.7 2,2.4 1.3,3.8 -0.7,1.3 -2.1,2 -3.5,1.4 l -10.3,-4 C 12.7,14.9 12,13.2 12.5,11.8 v 0 l 4.1,-10 C 17.3,0.3 19,-0.4 20.5,0.2 Z"
   style="fill:#ffffff" />
</g></svg>
