<?xml version="1.0" encoding="UTF-8" standalone="no"?>
<!-- Generator: Adobe Illustrator 25.2.1, SVG Export Plug-In . SVG Version: 6.00 Build 0)  -->

<svg
   width="24px"
   height="24px"
   version="1.1"
   id="Layer_1"
   x="0px"
   y="0px"
   viewBox="0 0 74.4 74.4"
   style="enable-background:new 0 0 74.4 74.4;"
   xml:space="preserve"
   preserveAspectRatio="xMinYMid meet"
   sodipodi:docname="iconAssign.svg"
   inkscape:version="1.2.1 (9c6d41e4, 2022-07-14)"
   xmlns:inkscape="http://www.inkscape.org/namespaces/inkscape"
   xmlns:sodipodi="http://sodipodi.sourceforge.net/DTD/sodipodi-0.dtd"
   xmlns="http://www.w3.org/2000/svg"
   xmlns:svg="http://www.w3.org/2000/svg"><defs
   id="defs93"><inkscape:path-effect
     effect="fillet_chamfer"
     id="path-effect11754"
     is_visible="true"
     lpeversion="1"
     nodesatellites_param="F,0,0,1,0,10,0,1 @ F,0,0,1,0,10,0,1 @ F,0,0,1,0,10,0,1 @ F,0,0,1,0,10,0,1"
     unit="px"
     method="auto"
     mode="F"
     radius="10"
     chamfer_steps="1"
     flexible="false"
     use_knot_distance="true"
     apply_no_radius="true"
     apply_with_radius="true"
     only_selected="false"
     hide_knots="false" /><inkscape:path-effect
     effect="fillet_chamfer"
     id="path-effect11738"
     is_visible="true"
     lpeversion="1"
     nodesatellites_param="F,0,0,1,0,0,0,1 @ F,0,0,1,0,0,0,1 @ F,0,0,1,0,0,0,1 @ F,0,0,1,0,0,0,1 @ F,0,0,1,0,0,0,1 @ F,0,0,1,0,0,0,1 @ F,0,0,1,0,0,0,1 @ F,0,0,1,0,0,0,1"
     unit="px"
     method="auto"
     mode="F"
     radius="0"
     chamfer_steps="1"
     flexible="false"
     use_knot_distance="true"
     apply_no_radius="true"
     apply_with_radius="true"
     only_selected="false"
     hide_knots="false" /><inkscape:path-effect
     effect="bspline"
     id="path-effect11734"
     is_visible="true"
     lpeversion="1"
     weight="33.333333"
     steps="2"
     helper_size="0"
     apply_no_weight="true"
     apply_with_weight="true"
     only_selected="false" /></defs><sodipodi:namedview
   id="namedview91"
   pagecolor="#ffffff"
   bordercolor="#000000"
   borderopacity="0.25"
   inkscape:showpageshadow="2"
   inkscape:pageopacity="0.0"
   inkscape:pagecheckerboard="0"
   inkscape:deskcolor="#d1d1d1"
   showgrid="false"
   inkscape:zoom="19.666667"
   inkscape:cx="11.008474"
   inkscape:cy="14.516949"
   inkscape:window-width="1440"
   inkscape:window-height="855"
   inkscape:window-x="0"
   inkscape:window-y="23"
   inkscape:window-maximized="0"
   inkscape:current-layer="Layer_1" />

<rect
   style="fill:#eb66a2;fill-opacity:1;stroke-width:3.1"
   id="rect11752"
   width="74.557625"
   height="74.400002"
   x="-2.6028694e-08"
   y="0"
   inkscape:path-effect="#path-effect11754"
   d="m 10,0 h 54.557625 a 10,10 45 0 1 10,10 v 54.400002 a 10,10 135 0 1 -10,10 H 10 A 10,10 45 0 1 -2.6028694e-8,64.400002 V 10 A 10,10 135 0 1 10,0 Z" /><path
   id="Path_963-6_1_"
   d="m 36.715347,62.955555 c -0.692349,0 -1.315461,-0.553883 -1.315461,-1.246238 v -0.06928 -5.885 H 21.275884 c -1.246237,0 -2.215534,-0.969298 -2.215534,-2.215534 v 0 -39.879529 c 0,-1.246235 0.969297,-2.215529 2.215534,-2.215529 h 23.539993 c 0.553895,0 1.176996,0.207706 1.523173,0.623117 l 8.37747,8.377483 c 0.415425,0.415423 0.62313,0.969298 0.62313,1.523174 v 31.502078 c 0,1.24624 -0.969306,2.215528 -2.215535,2.215528 v 0 H 38.930886 v 5.885002 c 0,0.761587 -0.623129,1.384702 -1.315484,1.384702 z M 51.739406,52.016379 V 26.33008 h -9.000579 c -1.246243,0 -2.215535,-0.969289 -2.215535,-2.146287 v 0 -9.000592 H 22.729819 v 36.902412 h 12.670067 v -5.400352 h -3.531017 c -0.761579,0 -1.384699,-0.62312 -1.384699,-1.384706 0,-0.276942 0.138472,-0.553882 0.276942,-0.830825 l 5.469582,-7.269705 c 0.484653,-0.553885 1.246243,-0.623115 1.869359,-0.207709 0.0693,0.0693 5.538833,7.477414 5.538833,7.477414 0.484642,0.623118 0.346179,1.453943 -0.276951,1.938588 -0.207706,0.138473 -0.484642,0.276943 -0.761579,0.276943 h -3.600245 v 5.400352 z M 44.608169,22.2452 h 6.300417 l -6.300417,-6.300411 c 0,0 0,6.300411 0,6.300411 z"
   style="stroke-width:0.692355;fill:#ffffff" /></svg>
