<?xml version="1.0" encoding="UTF-8" standalone="no"?>
<svg
   width="16"
   height="16"
   fill="currentColor"
   class="bi bi-layout-text-window-reverse"
   viewBox="0 0 16 16"
   version="1.1"
   id="svg6"
   sodipodi:docname="layout-text-window-reverse.svg"
   inkscape:version="1.2.1 (9c6d41e4, 2022-07-14)"
   xmlns:inkscape="http://www.inkscape.org/namespaces/inkscape"
   xmlns:sodipodi="http://sodipodi.sourceforge.net/DTD/sodipodi-0.dtd"
   xmlns="http://www.w3.org/2000/svg"
   xmlns:svg="http://www.w3.org/2000/svg">
  <defs
     id="defs10" />
  <sodipodi:namedview
     id="namedview8"
     pagecolor="#ffffff"
     bordercolor="#000000"
     borderopacity="0.25"
     inkscape:showpageshadow="2"
     inkscape:pageopacity="0.0"
     inkscape:pagecheckerboard="0"
     inkscape:deskcolor="#d1d1d1"
     showgrid="false"
     inkscape:zoom="14.75"
     inkscape:cx="5.7966102"
     inkscape:cy="8"
     inkscape:window-width="1423"
     inkscape:window-height="688"
     inkscape:window-x="0"
     inkscape:window-y="23"
     inkscape:window-maximized="0"
     inkscape:current-layer="svg6" />
  <path
     d="M13 6.5a.5.5 0 0 0-.5-.5h-5a.5.5 0 0 0 0 1h5a.5.5 0 0 0 .5-.5zm0 3a.5.5 0 0 0-.5-.5h-5a.5.5 0 0 0 0 1h5a.5.5 0 0 0 .5-.5zm-.5 2.5a.5.5 0 0 1 0 1h-5a.5.5 0 0 1 0-1h5z"
     id="path2"
     style="fill:#ffffff" />
  <path
     d="M14 0a2 2 0 0 1 2 2v12a2 2 0 0 1-2 2H2a2 2 0 0 1-2-2V2a2 2 0 0 1 2-2h12zM2 1a1 1 0 0 0-1 1v1h14V2a1 1 0 0 0-1-1H2zM1 4v10a1 1 0 0 0 1 1h2V4H1zm4 0v11h9a1 1 0 0 0 1-1V4H5z"
     id="path4"
     style="fill:#ffffff" />
</svg>
