<?xml version="1.0" encoding="UTF-8" standalone="no"?>
<!-- Generator: Adobe Illustrator 15.1.0, SVG Export Plug-In . SVG Version: 6.00 Build 0)  -->

<svg
   version="1.1"
   id="Layer_1"
   x="0px"
   y="0px"
   width="142.64558"
   height="24.664759"
   viewBox="0 0 142.64558 24.664759"
   enable-background="new 0 0 140 83"
   xml:space="preserve"
   sodipodi:docname="warwick-logo-title-only.svg"
   inkscape:version="1.2.1 (9c6d41e410, 2022-07-14)"
   xmlns:inkscape="http://www.inkscape.org/namespaces/inkscape"
   xmlns:sodipodi="http://sodipodi.sourceforge.net/DTD/sodipodi-0.dtd"
   xmlns="http://www.w3.org/2000/svg"
   xmlns:svg="http://www.w3.org/2000/svg"><defs
   id="defs23" /><sodipodi:namedview
   id="namedview21"
   pagecolor="#ffffff"
   bordercolor="#000000"
   borderopacity="0.25"
   inkscape:showpageshadow="2"
   inkscape:pageopacity="0.0"
   inkscape:pagecheckerboard="0"
   inkscape:deskcolor="#d1d1d1"
   showgrid="false"
   inkscape:zoom="5.8314562"
   inkscape:cx="71.165758"
   inkscape:cy="-17.748569"
   inkscape:window-width="1920"
   inkscape:window-height="1001"
   inkscape:window-x="-9"
   inkscape:window-y="-9"
   inkscape:window-maximized="1"
   inkscape:current-layer="g18" />
<g
   id="g18"
   transform="translate(1.185935,-60.20525)">
	
	<g
   id="g16">
		<path
   fill="#204f79"
   d="M 137.1,82.3 H 140 L 128.8,71.7 139.4,61.1 h -2.8 l -10.8,10.6 z m -42.1,0 h 2 V 61.2 h -2 z m 0,0 h 2 V 61.2 h -2 z m 0,0 h 2 V 61.2 h -2 z m -73.7,0 6.2,-21.1 H 25.4 L 20,79.9 15,63 H 12.4 L 7.4,79.9 2.1,61.2 H 0 l 6.2,21.1 h 2.5 l 5.1,-17 5,17 z"
   id="path4" />
		<rect
   x="122.7"
   y="61.200001"
   fill="#204f79"
   width="2"
   height="21.1"
   id="rect6" />
		<path
   fill="#204f79"
   d="m 30.7,74.9 5,-11.6 5,11.6 z m 5.9,-13.7 h -1.9 l -9.4,21.1 h 2.1 l 2.4,-5.6 h 11.7 l 2.4,5.6 H 46 Z"
   id="path8" />
		<polygon
   fill="#204f79"
   points="89.5,61.2 84.1,79.9 79.2,63 76.5,63 71.5,79.9 66.1,61.2 64.1,61.2 70.3,82.3 72.7,82.3 77.9,65.3 82.9,82.3 85.4,82.3 91.6,61.2 "
   id="polygon10" />
		<path
   fill="#204f79"
   d="m 111.7,81.1 c -5.7,0 -9.2,-4.1 -9.2,-9.3 0,0 0,0 0,0 0,-5.3 3.5,-9.4 9.2,-9.4 2.2,0 4.9,1 6.4,3.3 l 1.7,-1.2 c -2.1,-2.7 -4.9,-3.9 -8,-3.9 -6.6,0 -11.2,4.7 -11.2,11.2 0,6.5 4.6,11.1 11.2,11.1 3.2,0 6,-1.1 8,-3.9 l -1.7,-1.2 c -1.5,2.2 -4.2,3.3 -6.4,3.3"
   id="path12" />
		<path
   fill="#204f79"
   d="M 56.7,72.5 C 59,72.1 62,70.8 62,66.9 62,61.3 56.4,61.2 54.7,61.2 h -6.1 v 21.1 h 2 V 63 h 4.3 c 4.2,0 5,2.5 5,3.9 0,1.5 -0.8,3.9 -5,4 h -2.3 v 1.8 h 2 l 5.8,9.7 h 2.3 z"
   id="path14" />
	</g>
</g>
</svg>
