<?xml version="1.0" encoding="UTF-8" standalone="no"?>
<!-- Generator: Adobe Illustrator 25.2.1, SVG Export Plug-In . SVG Version: 6.00 Build 0)  -->

<svg
   width="24px"
   height="24px"
   version="1.1"
   id="Layer_1"
   x="0px"
   y="0px"
   viewBox="0 0 74.4 74.4"
   style="enable-background:new 0 0 74.4 74.4;"
   xml:space="preserve"
   preserveAspectRatio="xMinYMid meet"
   sodipodi:docname="icon.svg"
   inkscape:version="1.2.1 (9c6d41e4, 2022-07-14)"
   xmlns:inkscape="http://www.inkscape.org/namespaces/inkscape"
   xmlns:sodipodi="http://sodipodi.sourceforge.net/DTD/sodipodi-0.dtd"
   xmlns="http://www.w3.org/2000/svg"
   xmlns:svg="http://www.w3.org/2000/svg"><defs
   id="defs93"><inkscape:path-effect
     effect="fillet_chamfer"
     id="path-effect11754"
     is_visible="true"
     lpeversion="1"
     nodesatellites_param="F,0,0,1,0,10,0,1 @ F,0,0,1,0,10,0,1 @ F,0,0,1,0,10,0,1 @ F,0,0,1,0,10,0,1"
     unit="px"
     method="auto"
     mode="F"
     radius="10"
     chamfer_steps="1"
     flexible="false"
     use_knot_distance="true"
     apply_no_radius="true"
     apply_with_radius="true"
     only_selected="false"
     hide_knots="false" /><inkscape:path-effect
     effect="fillet_chamfer"
     id="path-effect11738"
     is_visible="true"
     lpeversion="1"
     nodesatellites_param="F,0,0,1,0,0,0,1 @ F,0,0,1,0,0,0,1 @ F,0,0,1,0,0,0,1 @ F,0,0,1,0,0,0,1 @ F,0,0,1,0,0,0,1 @ F,0,0,1,0,0,0,1 @ F,0,0,1,0,0,0,1 @ F,0,0,1,0,0,0,1"
     unit="px"
     method="auto"
     mode="F"
     radius="0"
     chamfer_steps="1"
     flexible="false"
     use_knot_distance="true"
     apply_no_radius="true"
     apply_with_radius="true"
     only_selected="false"
     hide_knots="false" /><inkscape:path-effect
     effect="bspline"
     id="path-effect11734"
     is_visible="true"
     lpeversion="1"
     weight="33.333333"
     steps="2"
     helper_size="0"
     apply_no_weight="true"
     apply_with_weight="true"
     only_selected="false" /></defs><sodipodi:namedview
   id="namedview91"
   pagecolor="#ffffff"
   bordercolor="#000000"
   borderopacity="0.25"
   inkscape:showpageshadow="2"
   inkscape:pageopacity="0.0"
   inkscape:pagecheckerboard="0"
   inkscape:deskcolor="#d1d1d1"
   showgrid="false"
   inkscape:zoom="19.666667"
   inkscape:cx="9.8135592"
   inkscape:cy="10.423729"
   inkscape:window-width="1440"
   inkscape:window-height="900"
   inkscape:window-x="0"
   inkscape:window-y="278"
   inkscape:window-maximized="0"
   inkscape:current-layer="Layer_1" />

<rect
   style="fill:#f7634d;fill-opacity:1;stroke-width:3.1"
   id="rect11752"
   width="74.557625"
   height="74.400002"
   x="-2.6028694e-08"
   y="0"
   inkscape:path-effect="#path-effect11754"
   d="m 10,0 h 54.557625 a 10,10 45 0 1 10,10 v 54.400002 a 10,10 135 0 1 -10,10 H 10 A 10,10 45 0 1 -2.6028694e-8,64.400002 V 10 A 10,10 135 0 1 10,0 Z" /><g
   fill="#ffffff"
   stroke-linejoin="round"
   stroke-linecap="round"
   stroke-miterlimit="10"
   id="g1227"
   transform="matrix(0.5444012,0,0,0.5444012,10.253902,7.5142363)"><path
     d="m 2.6,23.7 v 46.9 c 0,5.8 4.4,10.6 9.8,10.6 h 3.5 l 9.3,14.3 c 0.8,0.8 2,0.8 2.8,0 l 9.3,-14.3 h 49.3 c 5.4,0 9.8,-4.7 9.8,-10.6 V 23.7 C 96.4,17.8 92,13 86.6,13 H 12.2 C 6.8,13 2.4,17.8 2.6,23.7 Z"
     stroke="#999999"
     stroke-width="3"
     id="path1223"
     style="fill:#ffffff" /><path
     d="M 30.8,47.8 H 69.2 M 30.8,32.2 H 69.2 M 30.8,63.8 h 38.4"
     stroke="#4caf50"
     stroke-width="5"
     id="path1225"
     style="fill:#ffffff;fill-opacity:1" /></g><path
   style="fill:#f7634d;fill-opacity:1;stroke-width:0.0508475"
   d="M 7.1392459,17.743013 C 6.5918462,16.901465 6.2660357,16.447547 6.1881376,16.41793 6.1229698,16.393153 5.8709285,16.372657 5.6280457,16.372384 5.2726557,16.371985 5.1368055,16.348725 4.9322033,16.253245 4.6349696,16.114537 4.3350818,15.801344 4.1786455,15.466254 L 4.0677965,15.228813 V 10.677966 6.1271185 L 4.2104822,5.8365539 C 4.3920204,5.4668697 4.7381766,5.1578847 5.0831454,5.0575995 c 0.2272852,-0.066074 1.1426768,-0.074261 6.9959576,-0.062573 6.713455,0.013406 6.735169,0.01378 6.96327,0.1198737 0.303025,0.1409435 0.591196,0.4396102 0.755873,0.7834046 l 0.133957,0.279661 V 10.70339 c 0,4.515136 -2.54e-4,4.525958 -0.108678,4.760461 -0.153559,0.332103 -0.458604,0.650737 -0.755729,0.789394 l -0.254237,0.118643 -4.458554,5.08e-4 c -2.588986,3.05e-4 -4.5101396,0.02011 -4.5815747,0.04727 -0.083677,0.03181 -0.3796286,0.442419 -0.9253947,1.283898 -0.441306,0.680419 -0.8189782,1.25566 -0.8392714,1.278311 -0.020293,0.02265 -0.4115765,-0.534831 -0.8695183,-1.238849 z m 8.6321861,-3.77999 c 0.113121,-0.0973 0.141511,-0.164691 0.141511,-0.335905 0,-0.171214 -0.02839,-0.238602 -0.141511,-0.335904 l -0.14151,-0.121723 H 12.12094 c -3.6076728,0 -3.6416455,0.0018 -3.7930519,0.198984 -0.1124048,0.146403 -0.078254,0.435089 0.068876,0.582218 l 0.1340524,0.134053 h 3.5495525 3.549553 z m -0.116161,-2.723551 c 0.167344,-0.06362 0.303935,-0.32774 0.260352,-0.503423 -0.01833,-0.0739 -0.08139,-0.185837 -0.14012,-0.248761 l -0.10679,-0.114407 H 12.09052 8.5123265 l -0.1248074,0.124808 c -0.1803468,0.180347 -0.170428,0.447564 0.023824,0.641815 l 0.148631,0.148631 h 3.4836519 c 2.095124,0 3.534668,-0.0194 3.611645,-0.04866 z m 0.03399,-2.749454 c 0.14901,-0.07975 0.2631,-0.338019 0.225314,-0.510059 C 15.896671,7.8984427 15.82349,7.785706 15.75195,7.7294331 15.624433,7.629128 15.552061,7.6271185 12.067103,7.6271185 H 8.5123265 L 8.3875191,7.7519259 c -0.1803468,0.1803469 -0.170428,0.4475642 0.023824,0.6418158 l 0.148631,0.148631 h 3.5157289 c 2.314061,0 3.549165,-0.017895 3.613554,-0.052355 z"
   id="path1445"
   transform="scale(3.1)" /><path
   style="fill:#ffffff;fill-opacity:1;stroke-width:0.0508475"
   d="m 8.4383666,8.3667179 c -0.1651193,-0.1651193 -0.1651193,-0.3988252 0,-0.5639445 L 8.563174,7.677966 l 3.523498,0.00162 c 2.689602,0.00123 3.542591,0.016277 3.604175,0.063559 0.22934,0.1760822 0.233184,0.4707134 0.0084,0.6474922 -0.125103,0.098406 -0.214565,0.1008907 -3.63219,0.1008907 H 8.563174 Z"
   id="path1447"
   transform="scale(3.1)" /><path
   style="fill:#ffffff;fill-opacity:1;stroke-width:0.0508475"
   d="M 8.5423727,11.178573 C 8.2929941,11.042173 8.2415224,10.78326 8.4189446,10.557705 L 8.52433,10.423729 h 3.526049 c 1.939327,0 3.563089,0.01421 3.60836,0.03158 0.123947,0.04756 0.238102,0.304132 0.201032,0.451831 -0.01772,0.0706 -0.08993,0.173762 -0.160478,0.229252 -0.125115,0.09842 -0.213235,0.100853 -3.591744,0.09934 -2.408599,-0.0011 -3.4944549,-0.01849 -3.5651763,-0.05717 z"
   id="path1451"
   transform="scale(3.1)" /><path
   style="fill:#ffffff;fill-opacity:1;stroke-width:0.0508475"
   d="M 8.4383666,13.909091 C 8.2868605,13.757585 8.275439,13.532926 8.4107462,13.365802 l 0.097187,-0.12004 3.5412988,-0.01373 3.541299,-0.01373 0.14965,0.149649 c 0.184166,0.184167 0.188504,0.306883 0.01801,0.509503 l -0.131639,0.156444 h -3.53169 -3.5316889 z"
   id="path1453"
   transform="scale(3.1)" /><path
   style="fill:#ffffff;fill-opacity:1;stroke-width:0.0508475"
   d="M 7.6893738,19.436173 C 7.606603,19.384144 7.2276028,18.85332 6.7728815,18.152542 L 5.9975239,16.957627 5.5665585,16.926724 C 5.0244681,16.887854 4.7977375,16.818375 4.4493758,16.584381 4.1233056,16.36536 3.8324007,16.000154 3.6733666,15.610169 L 3.559322,15.330508 V 10.652542 5.9745762 L 3.7216847,5.6318261 C 3.9218229,5.2093311 4.2733788,4.8484352 4.678615,4.649472 L 4.9830508,4.4999999 h 6.9925942 6.992595 l 0.334778,0.1648108 c 0.417283,0.2054278 0.759877,0.5631328 0.975711,1.0187487 l 0.161949,0.3418642 v 4.6779664 4.677966 l -0.15957,0.336782 c -0.187142,0.394975 -0.438554,0.689164 -0.771583,0.902868 -0.492549,0.316068 -0.409102,0.311044 -5.193937,0.312731 l -4.3494865,0.0015 -0.7881356,1.222589 c -0.5151284,0.799089 -0.8356976,1.247698 -0.925441,1.295077 -0.1840584,0.09717 -0.3917326,0.09099 -0.5631511,-0.01676 z M 8.8413517,17.81974 c 0.4440997,-0.685826 0.8553346,-1.280494 0.9138564,-1.321484 0.09153,-0.06411 0.7359959,-0.07453 4.6105289,-0.07453 h 4.504126 l 0.261956,-0.130539 c 0.314993,-0.156967 0.540957,-0.402865 0.718972,-0.782396 l 0.13226,-0.281981 V 10.70339 6.177966 L 19.840467,5.8728813 C 19.666651,5.5009685 19.454338,5.2715539 19.118644,5.0929173 L 18.864406,4.957627 12.10513,4.9440039 C 4.633214,4.9289445 5.0396037,4.9122465 4.5923611,5.2526932 4.4449782,5.3648828 4.3144212,5.5342594 4.1949152,5.7683146 L 4.0169491,6.1168654 v 4.5559736 4.555974 l 0.13226,0.281981 c 0.1780143,0.379531 0.4039785,0.625429 0.7189717,0.782396 0.226445,0.112843 0.3279976,0.130539 0.7491329,0.130539 0.3328169,0 0.5189558,0.02231 0.587474,0.0704 0.055163,0.03872 0.4654872,0.633639 0.9118309,1.322034 0.4463436,0.688396 0.8353267,1.251382 0.8644068,1.25108 0.02908,-3.05e-4 0.4162269,-0.56168 0.8603263,-1.247507 z"
   id="path1455"
   transform="scale(3.1)" /></svg>
