<?xml version="1.0" encoding="UTF-8" standalone="no"?>
<!-- Generator: Adobe Illustrator 25.2.1, SVG Export Plug-In . SVG Version: 6.00 Build 0)  -->

<svg
   width="24px"
   height="24px"
   version="1.1"
   id="Layer_1"
   x="0px"
   y="0px"
   viewBox="0 0 74.4 74.4"
   style="enable-background:new 0 0 74.4 74.4;"
   xml:space="preserve"
   preserveAspectRatio="xMinYMid meet"
   sodipodi:docname="icon.svg"
   inkscape:version="1.2.1 (9c6d41e4, 2022-07-14)"
   xmlns:inkscape="http://www.inkscape.org/namespaces/inkscape"
   xmlns:sodipodi="http://sodipodi.sourceforge.net/DTD/sodipodi-0.dtd"
   xmlns="http://www.w3.org/2000/svg"
   xmlns:svg="http://www.w3.org/2000/svg"><defs
   id="defs93"><inkscape:path-effect
     effect="fillet_chamfer"
     id="path-effect11754"
     is_visible="true"
     lpeversion="1"
     nodesatellites_param="F,0,0,1,0,10,0,1 @ F,0,0,1,0,10,0,1 @ F,0,0,1,0,10,0,1 @ F,0,0,1,0,10,0,1"
     unit="px"
     method="auto"
     mode="F"
     radius="10"
     chamfer_steps="1"
     flexible="false"
     use_knot_distance="true"
     apply_no_radius="true"
     apply_with_radius="true"
     only_selected="false"
     hide_knots="false" /><inkscape:path-effect
     effect="fillet_chamfer"
     id="path-effect11738"
     is_visible="true"
     lpeversion="1"
     nodesatellites_param="F,0,0,1,0,0,0,1 @ F,0,0,1,0,0,0,1 @ F,0,0,1,0,0,0,1 @ F,0,0,1,0,0,0,1 @ F,0,0,1,0,0,0,1 @ F,0,0,1,0,0,0,1 @ F,0,0,1,0,0,0,1 @ F,0,0,1,0,0,0,1"
     unit="px"
     method="auto"
     mode="F"
     radius="0"
     chamfer_steps="1"
     flexible="false"
     use_knot_distance="true"
     apply_no_radius="true"
     apply_with_radius="true"
     only_selected="false"
     hide_knots="false" /><inkscape:path-effect
     effect="bspline"
     id="path-effect11734"
     is_visible="true"
     lpeversion="1"
     weight="33.333333"
     steps="2"
     helper_size="0"
     apply_no_weight="true"
     apply_with_weight="true"
     only_selected="false" /><style
     id="style306">.cls-1{fill:#8cc63f;}.cls-2{fill:#fff;}</style><style
     id="style539">.cls-1{fill:#8cc63f;}.cls-2{fill:#fff;}</style><style
     id="style625">.cls-1{fill:#06c;}.cls-2{fill:#fff;}</style><style
     id="style841">.cls-1{fill:#06c;}.cls-2{fill:#fff;}</style></defs><sodipodi:namedview
   id="namedview91"
   pagecolor="#ffffff"
   bordercolor="#000000"
   borderopacity="0.25"
   inkscape:showpageshadow="2"
   inkscape:pageopacity="0.0"
   inkscape:pagecheckerboard="0"
   inkscape:deskcolor="#d1d1d1"
   showgrid="false"
   inkscape:zoom="19.666667"
   inkscape:cx="10.830508"
   inkscape:cy="14.516949"
   inkscape:window-width="1440"
   inkscape:window-height="855"
   inkscape:window-x="1"
   inkscape:window-y="121"
   inkscape:window-maximized="0"
   inkscape:current-layer="Layer_1" />

<rect
   style="fill:#eb66a2;fill-opacity:1;stroke-width:3.1"
   id="rect11752"
   width="74.557625"
   height="74.400002"
   x="-2.6028694e-08"
   y="0"
   inkscape:path-effect="#path-effect11754"
   d="m 10,0 h 54.557625 a 10,10 45 0 1 10,10 v 54.400002 a 10,10 135 0 1 -10,10 H 10 A 10,10 45 0 1 -2.6028694e-8,64.400002 V 10 A 10,10 135 0 1 10,0 Z" /><g
   id="g856"
   transform="matrix(3.1,0,0,3.1,-40.825424,-29.397458)"><circle
     class="cls-1"
     cx="24"
     cy="24"
     r="24"
     id="circle847"
     style="display:none" /><path
     id="path1"
     class="cls-2"
     d="m 25.234351,18.255158 a 0.52252674,0.52252674 0 0 1 0.359588,0.146082 0.51690818,0.51690818 0 0 1 0,0.724797 l -4.022894,4.022892 -1.927169,-1.927168 a 0.51128959,0.51128959 0 1 1 0.724797,-0.719177 l 1.202372,1.202375 3.298101,-3.298099 a 0.56185671,0.56185671 0 0 1 0.365205,-0.151702 z m 2.517118,-2.809285 v 10.675278 a 1.5451059,1.5451059 0 0 1 -1.561961,1.539488 h -1.747374 l 2.404746,0.988868 a 0.50005247,0.50005247 0 0 0 0.387682,0 0.52252674,0.52252674 0 0 0 0.286546,-0.297783 l 4.27573,-10.658423 A 0.56185671,0.56185671 0 0 0 31.51591,16.979745 Z m -8.731251,-1.12371 a 0.52814531,0.52814531 0 0 0 -0.561859,0.516906 v 11.282082 a 0.52814531,0.52814531 0 0 0 0.561859,0.516909 h 7.16929 a 0.52814531,0.52814531 0 0 0 0.561857,-0.516909 V 14.805357 a 0.52814531,0.52814531 0 0 0 -0.561857,-0.516906 h -7.16929 z m 0,-1.03382 h 7.16929 a 1.5563431,1.5563431 0 0 1 1.432735,0.938301 v 0.0618 l 4.281348,1.719281 a 1.5731989,1.5731989 0 0 1 0.854022,2.03392 L 28.470646,28.716926 A 1.5226316,1.5226316 0 0 1 27.627861,29.570948 1.4608275,1.4608275 0 0 1 27.026675,29.694556 1.635003,1.635003 0 0 1 26.4592,29.587803 L 21.75084,27.6494 H 19.020218 A 1.5507245,1.5507245 0 0 1 17.469492,26.121151 V 14.805357 a 1.5507245,1.5507245 0 0 1 1.550726,-1.533868 z"
     style="stroke-width:0.561855" /></g></svg>
