<?xml version="1.0" encoding="UTF-8" standalone="no"?>
<!-- Generator: Adobe Illustrator 25.2.1, SVG Export Plug-In . SVG Version: 6.00 Build 0)  -->

<svg
   width="24px"
   height="24px"
   version="1.1"
   id="Layer_1"
   x="0px"
   y="0px"
   viewBox="0 0 74.4 74.4"
   style="enable-background:new 0 0 74.4 74.4;"
   xml:space="preserve"
   preserveAspectRatio="xMinYMid meet"
   sodipodi:docname="icon.svg"
   inkscape:version="1.2.1 (9c6d41e4, 2022-07-14)"
   xmlns:inkscape="http://www.inkscape.org/namespaces/inkscape"
   xmlns:sodipodi="http://sodipodi.sourceforge.net/DTD/sodipodi-0.dtd"
   xmlns="http://www.w3.org/2000/svg"
   xmlns:svg="http://www.w3.org/2000/svg"><defs
   id="defs93"><inkscape:path-effect
     effect="fillet_chamfer"
     id="path-effect11754"
     is_visible="true"
     lpeversion="1"
     nodesatellites_param="F,0,0,1,0,10,0,1 @ F,0,0,1,0,10,0,1 @ F,0,0,1,0,10,0,1 @ F,0,0,1,0,10,0,1"
     unit="px"
     method="auto"
     mode="F"
     radius="10"
     chamfer_steps="1"
     flexible="false"
     use_knot_distance="true"
     apply_no_radius="true"
     apply_with_radius="true"
     only_selected="false"
     hide_knots="false" /><inkscape:path-effect
     effect="fillet_chamfer"
     id="path-effect11738"
     is_visible="true"
     lpeversion="1"
     nodesatellites_param="F,0,0,1,0,0,0,1 @ F,0,0,1,0,0,0,1 @ F,0,0,1,0,0,0,1 @ F,0,0,1,0,0,0,1 @ F,0,0,1,0,0,0,1 @ F,0,0,1,0,0,0,1 @ F,0,0,1,0,0,0,1 @ F,0,0,1,0,0,0,1"
     unit="px"
     method="auto"
     mode="F"
     radius="0"
     chamfer_steps="1"
     flexible="false"
     use_knot_distance="true"
     apply_no_radius="true"
     apply_with_radius="true"
     only_selected="false"
     hide_knots="false" /><inkscape:path-effect
     effect="bspline"
     id="path-effect11734"
     is_visible="true"
     lpeversion="1"
     weight="33.333333"
     steps="2"
     helper_size="0"
     apply_no_weight="true"
     apply_with_weight="true"
     only_selected="false" /><style
     id="style204">.cls-1{fill:#336;}.cls-2{fill:#fff;}</style><style
     id="style577">.cls-1{fill:#06c;}.cls-2{fill:#fff;}</style><style
     id="style766">.cls-1{fill:#06c;}.cls-2{fill:#fff;}</style><style
     id="style1038">.cls-1{fill:#fff;}.cls-2{fill:#98ca00;}</style><style
     id="style1258">.cls-1{fill:#9c0;}.cls-2{fill:#fff;}</style></defs><sodipodi:namedview
   id="namedview91"
   pagecolor="#ffffff"
   bordercolor="#000000"
   borderopacity="0.25"
   inkscape:showpageshadow="2"
   inkscape:pageopacity="0.0"
   inkscape:pagecheckerboard="0"
   inkscape:deskcolor="#d1d1d1"
   showgrid="false"
   inkscape:zoom="19.666667"
   inkscape:cx="9.2542371"
   inkscape:cy="10.5"
   inkscape:window-width="1440"
   inkscape:window-height="855"
   inkscape:window-x="0"
   inkscape:window-y="121"
   inkscape:window-maximized="0"
   inkscape:current-layer="Layer_1" />

<rect
   style="fill:#399be2;fill-opacity:1;stroke-width:3.1"
   id="rect11752"
   width="74.557625"
   height="74.400002"
   x="-2.6028694e-08"
   y="0"
   d="m 10,0 h 54.557625 a 10,10 45 0 1 10,10 v 54.400002 a 10,10 135 0 1 -10,10 H 10 A 10,10 45 0 1 -2.6028694e-8,64.400002 V 10 A 10,10 135 0 1 10,0 Z"
   inkscape:path-effect="#path-effect11754" /><g
   id="g1277"
   transform="matrix(2.3157639,0,0,2.3157639,-21.548074,-19.606943)"><circle
     class="cls-1"
     cx="24.120001"
     cy="24"
     r="24"
     id="circle1264"
     style="display:none" /><path
     class="cls-2"
     d="m 24.55,25.29 c 0.53,-1.93 1,-3.79 1.52,-5.66 0.19,-0.73 0.39,-1.44 0.58,-2.17 0.13,-0.58 0.47,-0.75 1,-0.6 2.61,0.71 5.19,1.41 7.8,2.1 a 0.69,0.69 0 0 1 0.58,0.94 c -0.9,3.28 -1.67,6.58 -2.74,9.81 a 9.93,9.93 0 0 1 -6.11,6.56 8.86,8.86 0 0 1 -11.72,-6.94 12.93,12.93 0 0 1 0.17,-5.23 c 0.21,-0.92 0.36,-1 1.26,-0.79 l 6.79,1.82 c 0.27,0.07 0.55,0.09 0.87,0.16 z"
     id="path1266" /><path
     class="cls-2"
     d="m 26.22,15.32 c -0.24,0.9 -0.53,1.91 -0.79,2.92 -0.45,1.67 -0.9,3.34 -1.33,5 a 0.72,0.72 0 0 1 -1,0.6 l -7.65,-2.06 c -0.83,-0.22 -0.9,-0.39 -0.69,-1.2 0.67,-2.53 1.37,-5.06 2,-7.59 0.15,-0.58 0.39,-0.83 1,-0.66 2.57,0.71 5.16,1.41 7.72,2.1 0.44,0.1 0.79,0.23 0.74,0.89 z"
     id="path1268" /></g></svg>
