<?xml version="1.0" encoding="UTF-8" standalone="no"?>
<!-- Generator: Adobe Illustrator 25.2.1, SVG Export Plug-In . SVG Version: 6.00 Build 0)  -->

<svg
   width="24px"
   height="24px"
   version="1.1"
   id="Layer_1"
   x="0px"
   y="0px"
   viewBox="0 0 74.4 74.4"
   style="enable-background:new 0 0 74.4 74.4;"
   xml:space="preserve"
   preserveAspectRatio="xMinYMid meet"
   sodipodi:docname="icon.svg"
   inkscape:version="1.2.1 (9c6d41e4, 2022-07-14)"
   xmlns:inkscape="http://www.inkscape.org/namespaces/inkscape"
   xmlns:sodipodi="http://sodipodi.sourceforge.net/DTD/sodipodi-0.dtd"
   xmlns="http://www.w3.org/2000/svg"
   xmlns:svg="http://www.w3.org/2000/svg"><defs
   id="defs93"><inkscape:path-effect
     effect="fillet_chamfer"
     id="path-effect11754"
     is_visible="true"
     lpeversion="1"
     nodesatellites_param="F,0,0,1,0,10,0,1 @ F,0,0,1,0,10,0,1 @ F,0,0,1,0,10,0,1 @ F,0,0,1,0,10,0,1"
     unit="px"
     method="auto"
     mode="F"
     radius="10"
     chamfer_steps="1"
     flexible="false"
     use_knot_distance="true"
     apply_no_radius="true"
     apply_with_radius="true"
     only_selected="false"
     hide_knots="false" /><inkscape:path-effect
     effect="fillet_chamfer"
     id="path-effect11738"
     is_visible="true"
     lpeversion="1"
     nodesatellites_param="F,0,0,1,0,0,0,1 @ F,0,0,1,0,0,0,1 @ F,0,0,1,0,0,0,1 @ F,0,0,1,0,0,0,1 @ F,0,0,1,0,0,0,1 @ F,0,0,1,0,0,0,1 @ F,0,0,1,0,0,0,1 @ F,0,0,1,0,0,0,1"
     unit="px"
     method="auto"
     mode="F"
     radius="0"
     chamfer_steps="1"
     flexible="false"
     use_knot_distance="true"
     apply_no_radius="true"
     apply_with_radius="true"
     only_selected="false"
     hide_knots="false" /><inkscape:path-effect
     effect="bspline"
     id="path-effect11734"
     is_visible="true"
     lpeversion="1"
     weight="33.333333"
     steps="2"
     helper_size="0"
     apply_no_weight="true"
     apply_with_weight="true"
     only_selected="false" /></defs><sodipodi:namedview
   id="namedview91"
   pagecolor="#ffffff"
   bordercolor="#000000"
   borderopacity="0.25"
   inkscape:showpageshadow="2"
   inkscape:pageopacity="0.0"
   inkscape:pagecheckerboard="0"
   inkscape:deskcolor="#d1d1d1"
   showgrid="false"
   inkscape:zoom="19.666667"
   inkscape:cx="9.8135592"
   inkscape:cy="10.423729"
   inkscape:window-width="1440"
   inkscape:window-height="900"
   inkscape:window-x="0"
   inkscape:window-y="278"
   inkscape:window-maximized="0"
   inkscape:current-layer="Layer_1" />

<rect
   style="fill:#f7634d;fill-opacity:1;stroke-width:3.1"
   id="rect11752"
   width="74.557625"
   height="74.400002"
   x="-2.6028694e-08"
   y="0"
   inkscape:path-effect="#path-effect11754"
   d="m 10,0 h 54.557625 a 10,10 45 0 1 10,10 v 54.400002 a 10,10 135 0 1 -10,10 H 10 A 10,10 45 0 1 -2.6028694e-8,64.400002 V 10 A 10,10 135 0 1 10,0 Z" /><path
   d="m 60.736813,27.8136 -16.7381,16.647 -12.223301,4.5249 4.5958,-12.1069 16.7381,-16.647 c 1.685401,-1.6753 4.413501,-1.6753 6.099,0 l 1.5235,1.5184 c 1.6905,1.6753 1.6905,4.3883 0,6.0636 z m -25.2564,17.4872 7.334,-2.718 0.4099,-0.41 -4.5755,-4.5502 -0.415,0.41 z m 4.696999,-9.1915 4.5755,4.5502 11.4034,-11.3427 -4.5756,-4.5502 z m 19.0461,-12.8763 -1.5235,-1.5184 c -0.8402,-0.8351 -2.206799,-0.8351 -3.047,0 l -1.5437,1.5336 4.5755,4.5502 1.5437,-1.5336 c 0.8352,-0.8351 0.8352,-2.1916 -0.01,-3.0318 z M 19.946913,50.0687 v -2.1461 h 10.5986 l -0.8149,2.1461 z m 12.2284,-6.4331 h -12.2284 v -2.146 h 13.0432 z m -12.2284,-15.0122 h 10.7808 v 2.1461 h -10.7808 z m 10.7808,8.5791 h -10.7808 v -2.146 h 10.7808 z m 12.936999,10.7201 v 2.1461 H 33.182513 l 5.7953,-2.1461 z m -5.3904,-31.4516 v 7.8705 c 0,1.1843 0.9667,2.146 2.1561,2.146 h 3.3456 l -2.156099,2.146 h -1.1895 c -2.3839,0 -4.3123,-1.9182 -4.3123,-4.287 V 14.6893 H 16.712612 c -1.189399,0 -2.156099,0.9617 -2.156099,2.1461 v 40.7393 c 0,1.1844 0.9667,2.1461 2.156099,2.1461 h 30.186301 c 1.1895,0 2.156199,-0.9617 2.156199,-2.1461 V 42.4563 l 2.1562,-2.1461 v 17.2595 c 0,2.3687 -1.9284,4.287 -4.3124,4.287 h -30.1863 c -2.3839,0 -4.3123,-1.9183 -4.3123,-4.287 V 16.8303 c 0,-2.3687 1.9284,-4.287 4.3123,-4.287 0,0 8.2805,0 16.1713,0 0.1923,0 0.3846,0 0.577,0 0.3796,0 0.744,0 1.1135,0 h 3.0166 l 9.728,10.4164 -1.5133,1.4982 z"
   id="path880"
   style="stroke-width:0.0506142;fill:#ffffff" /></svg>
