<?xml version="1.0" encoding="UTF-8" standalone="no"?>
<!-- Generator: Adobe Illustrator 25.2.1, SVG Export Plug-In . SVG Version: 6.00 Build 0)  -->

<svg
   width="24px"
   height="24px"
   version="1.1"
   id="Layer_1"
   x="0px"
   y="0px"
   viewBox="0 0 74.4 74.4"
   style="enable-background:new 0 0 74.4 74.4;"
   xml:space="preserve"
   preserveAspectRatio="xMinYMid meet"
   sodipodi:docname="icon.svg"
   inkscape:version="1.2.1 (9c6d41e4, 2022-07-14)"
   xmlns:inkscape="http://www.inkscape.org/namespaces/inkscape"
   xmlns:sodipodi="http://sodipodi.sourceforge.net/DTD/sodipodi-0.dtd"
   xmlns="http://www.w3.org/2000/svg"
   xmlns:svg="http://www.w3.org/2000/svg"><defs
   id="defs93"><inkscape:path-effect
     effect="fillet_chamfer"
     id="path-effect11754"
     is_visible="true"
     lpeversion="1"
     nodesatellites_param="F,0,0,1,0,10,0,1 @ F,0,0,1,0,10,0,1 @ F,0,0,1,0,10,0,1 @ F,0,0,1,0,10,0,1"
     unit="px"
     method="auto"
     mode="F"
     radius="10"
     chamfer_steps="1"
     flexible="false"
     use_knot_distance="true"
     apply_no_radius="true"
     apply_with_radius="true"
     only_selected="false"
     hide_knots="false" /><inkscape:path-effect
     effect="fillet_chamfer"
     id="path-effect11738"
     is_visible="true"
     lpeversion="1"
     nodesatellites_param="F,0,0,1,0,0,0,1 @ F,0,0,1,0,0,0,1 @ F,0,0,1,0,0,0,1 @ F,0,0,1,0,0,0,1 @ F,0,0,1,0,0,0,1 @ F,0,0,1,0,0,0,1 @ F,0,0,1,0,0,0,1 @ F,0,0,1,0,0,0,1"
     unit="px"
     method="auto"
     mode="F"
     radius="0"
     chamfer_steps="1"
     flexible="false"
     use_knot_distance="true"
     apply_no_radius="true"
     apply_with_radius="true"
     only_selected="false"
     hide_knots="false" /><inkscape:path-effect
     effect="bspline"
     id="path-effect11734"
     is_visible="true"
     lpeversion="1"
     weight="33.333333"
     steps="2"
     helper_size="0"
     apply_no_weight="true"
     apply_with_weight="true"
     only_selected="false" /><style
     id="style643">.cls-1{fill:#909;}.cls-2{fill:#fff;}</style><style
     id="style789">.cls-1{fill:#9c0;}.cls-2{fill:#fff;}</style></defs><sodipodi:namedview
   id="namedview91"
   pagecolor="#ffffff"
   bordercolor="#000000"
   borderopacity="0.25"
   inkscape:showpageshadow="2"
   inkscape:pageopacity="0.0"
   inkscape:pagecheckerboard="0"
   inkscape:deskcolor="#d1d1d1"
   showgrid="false"
   inkscape:zoom="19.666667"
   inkscape:cx="9.8135592"
   inkscape:cy="10.5"
   inkscape:window-width="1440"
   inkscape:window-height="855"
   inkscape:window-x="0"
   inkscape:window-y="121"
   inkscape:window-maximized="0"
   inkscape:current-layer="Layer_1" />

<rect
   style="fill:#11a676;fill-opacity:1;stroke-width:3.1"
   id="rect11752"
   width="74.557625"
   height="74.400002"
   x="-2.6028694e-08"
   y="0"
   inkscape:path-effect="#path-effect11754"
   d="m 10,0 h 54.557625 a 10,10 45 0 1 10,10 v 54.400002 a 10,10 135 0 1 -10,10 H 10 A 10,10 45 0 1 -2.6028694e-8,64.400002 V 10 A 10,10 135 0 1 10,0 Z" /><g
   id="g804"
   transform="matrix(3.1,0,0,3.1,-44.380964,-41.850001)"><circle
     class="cls-1"
     cx="24.129999"
     cy="24"
     r="24"
     id="circle795"
     style="display:none" /><path
     id="path1"
     class="cls-2"
     d="m 19.603802,29.231819 2.328762,2.392803 v -2.392803 z m 6.898957,-2.846911 -0.12226,0.12226 -0.326026,1.845544 1.822256,-0.523972 0.06404,-0.06404 z m 3.132186,-3.056501 -2.369516,2.328762 1.438011,1.37397 2.328762,-2.293831 z m 2.258899,-2.229789 -1.507874,1.484585 1.397258,1.420545 1.531161,-1.496229 z M 19.330172,18.60102 a 0.47739623,0.47739623 0 0 0 -0.33767,0.139726 0.43082099,0.43082099 0 0 0 -0.128082,0.308561 v 9.122926 h 4.075333 v 4.255812 h 5.757865 a 0.45410861,0.45410861 0 0 0 0.471574,-0.448286 v -3.935608 l -0.745204,0.73356 -3.720197,1.07123 0.686985,-3.865745 3.778416,-3.708554 V 19.049307 A 0.45410861,0.45410861 0 0 0 28.697618,18.60102 Z m 0,-1.07123 h 9.367446 a 1.5253392,1.5253392 0 0 1 1.536983,1.507873 v 2.183215 l 1.670887,-1.635956 2.910952,2.910953 -4.581839,4.500333 v 4.989372 a 1.5253392,1.5253392 0 0 1 -1.536983,1.507874 h -6.462315 l -4.418826,-4.576018 v -9.897239 a 1.4787639,1.4787639 0 0 1 0.436643,-1.059586 1.5544487,1.5544487 0 0 1 1.077052,-0.454109 z"
     style="stroke-width:0.582191" /></g></svg>
