<?xml version="1.0" encoding="UTF-8" standalone="no"?>
<!-- Generator: Adobe Illustrator 25.2.1, SVG Export Plug-In . SVG Version: 6.00 Build 0)  -->

<svg
   width="24px"
   height="24px"
   version="1.1"
   id="Layer_1"
   x="0px"
   y="0px"
   viewBox="0 0 74.4 74.4"
   style="enable-background:new 0 0 74.4 74.4;"
   xml:space="preserve"
   preserveAspectRatio="xMinYMid meet"
   sodipodi:docname="icon.svg"
   inkscape:version="1.2.1 (9c6d41e4, 2022-07-14)"
   xmlns:inkscape="http://www.inkscape.org/namespaces/inkscape"
   xmlns:sodipodi="http://sodipodi.sourceforge.net/DTD/sodipodi-0.dtd"
   xmlns="http://www.w3.org/2000/svg"
   xmlns:svg="http://www.w3.org/2000/svg"><defs
   id="defs93"><inkscape:path-effect
     effect="fillet_chamfer"
     id="path-effect11754"
     is_visible="true"
     lpeversion="1"
     nodesatellites_param="F,0,0,1,0,10,0,1 @ F,0,0,1,0,10,0,1 @ F,0,0,1,0,10,0,1 @ F,0,0,1,0,10,0,1"
     unit="px"
     method="auto"
     mode="F"
     radius="10"
     chamfer_steps="1"
     flexible="false"
     use_knot_distance="true"
     apply_no_radius="true"
     apply_with_radius="true"
     only_selected="false"
     hide_knots="false" /><inkscape:path-effect
     effect="fillet_chamfer"
     id="path-effect11738"
     is_visible="true"
     lpeversion="1"
     nodesatellites_param="F,0,0,1,0,0,0,1 @ F,0,0,1,0,0,0,1 @ F,0,0,1,0,0,0,1 @ F,0,0,1,0,0,0,1 @ F,0,0,1,0,0,0,1 @ F,0,0,1,0,0,0,1 @ F,0,0,1,0,0,0,1 @ F,0,0,1,0,0,0,1"
     unit="px"
     method="auto"
     mode="F"
     radius="0"
     chamfer_steps="1"
     flexible="false"
     use_knot_distance="true"
     apply_no_radius="true"
     apply_with_radius="true"
     only_selected="false"
     hide_knots="false" /><inkscape:path-effect
     effect="bspline"
     id="path-effect11734"
     is_visible="true"
     lpeversion="1"
     weight="33.333333"
     steps="2"
     helper_size="0"
     apply_no_weight="true"
     apply_with_weight="true"
     only_selected="false" /></defs><sodipodi:namedview
   id="namedview91"
   pagecolor="#ffffff"
   bordercolor="#000000"
   borderopacity="0.25"
   inkscape:showpageshadow="2"
   inkscape:pageopacity="0.0"
   inkscape:pagecheckerboard="0"
   inkscape:deskcolor="#d1d1d1"
   showgrid="false"
   inkscape:zoom="19.666667"
   inkscape:cx="9.9915253"
   inkscape:cy="10.423729"
   inkscape:window-width="1440"
   inkscape:window-height="900"
   inkscape:window-x="0"
   inkscape:window-y="278"
   inkscape:window-maximized="0"
   inkscape:current-layer="Layer_1" />

<rect
   style="fill:#f7634d;fill-opacity:1;stroke-width:3.1"
   id="rect11752"
   width="74.557625"
   height="74.400002"
   x="-2.6028694e-08"
   y="0"
   inkscape:path-effect="#path-effect11754"
   d="m 10,0 h 54.557625 a 10,10 45 0 1 10,10 v 54.400002 a 10,10 135 0 1 -10,10 H 10 A 10,10 45 0 1 -2.6028694e-8,64.400002 V 10 A 10,10 135 0 1 10,0 Z" /><g
   transform="matrix(0.00537751,0,0,-0.00537751,10.31213,37.791724)"
   id="g246"><path
     d="M 362.6,3846.9 C 242.5,3790.7 158.1,3696.1 122.3,3565.7 101.9,3504.4 96.7,2527.9 101.9,541.6 c 7.7,-2914.1 7.7,-2932 61.3,-3001 28.1,-38.3 84.4,-94.6 122.7,-122.7 69,-53.7 84.4,-53.7 3111,-61.3 l 3039.4,-5.1 v 204.5 204.5 H 3471 505.7 l 5.1,2857.9 7.7,2855.4 4493.9,7.7 4491.4,5.1 v -2863 -2863 H 9197 8890.3 v -207.1 -204.5 l 380.9,7.7 c 416.7,7.7 455,20.4 575.2,184.1 53.7,69 53.7,79.2 53.7,3082.8 0,3003.6 0,3013.8 -53.7,3082.9 -28.1,38.3 -84.4,94.6 -122.7,122.7 l -69,53.7 -4593.6,5.1 c -4427.6,7.4 -4596.3,4.9 -4698.5,-41.1 z"
     id="path232" /><path
     d="m 1323.7,2668.4 v -204.5 h 3681 3681 v 204.5 204.5 h -3681 -3681 z"
     id="path234" /><path
     d="m 1323.7,1441.4 v -204.5 h 3681 3681 v 204.5 204.5 h -3681 -3681 z"
     id="path236" /><path
     d="m 7548.2,597.9 c -28.1,-10.2 -92,-63.9 -140.6,-115 l -89.5,-92 -173.8,15.3 c -135.5,15.3 -184.1,10.2 -235.2,-23 -92,-61.3 -143.1,-148.3 -161,-288.9 -17.9,-115 -25.6,-127.8 -153.4,-194.3 -74.1,-40.9 -153.4,-99.7 -173.8,-135.5 -58.8,-89.5 -48.6,-237.8 25.6,-368.1 l 63.9,-109.9 -66.5,-127.8 c -117.6,-235.2 -76.7,-373.2 150.8,-495.9 130.4,-69 135.5,-76.7 153.4,-207.1 38.3,-253.1 143.1,-329.8 406.4,-301.6 l 155.9,17.9 127.8,-120.1 c 120.2,-112.5 132.9,-117.6 242.9,-104.8 92,10.2 138,33.2 222.4,117.6 l 107.3,104.8 184.1,-15.3 181.5,-17.9 89.5,89.5 c 71.6,71.6 89.5,115 104.8,230.1 17.9,140.6 20.4,143.1 148.3,201.9 222.4,104.8 281.2,288.9 158.5,498.5 l -66.5,112.3 66.5,125.3 c 117.6,232.6 69,386 -153.4,495.9 -132.9,63.9 -135.5,66.5 -153.4,209.6 -12.8,107.4 -35.8,166.1 -89.5,224.9 -69,79.2 -79.2,81.8 -278.6,81.8 -194.3,0 -207.1,5.1 -288.9,79.2 -140.5,135.6 -240.2,166.2 -365.5,112.6 z m 475.5,-613.5 c 143.2,0 150.8,-2.5 163.6,-69 28.1,-135.5 99.7,-242.9 196.8,-296.5 63.9,-35.8 94.6,-69 86.9,-94.6 -76.7,-232.6 -79.2,-255.6 -30.7,-388.6 43.4,-127.8 43.4,-130.4 -2.6,-155.9 -102.2,-58.8 -209.6,-194.3 -237.7,-301.6 l -28.1,-112.5 -132.9,7.7 c -117.6,7.7 -150.8,-2.5 -265.9,-79.2 -132.9,-89.5 -132.9,-89.5 -178.9,-38.3 -79.2,86.9 -184.1,127.8 -319.5,120.2 l -130.4,-7.7 -30.7,120.2 c -33.2,135.5 -109.9,227.5 -219.8,273.5 -84.4,35.8 -86.9,40.9 -35.8,127.8 48.6,84.3 48.6,288.8 0,380.9 -35.8,71.6 -33.2,74.1 58.8,132.9 115,76.7 209.6,212.2 209.6,304.2 0,69 2.5,71.6 178.9,81.8 161,7.7 189.2,17.9 258.2,89.5 l 81.8,79.2 112.5,-86.9 c 99.7,-76.9 133,-87.1 265.9,-87.1 z"
     id="path238" /><path
     d="M 1323.7,214.4 V 9.9 H 3471 5618.3 V 214.4 418.9 H 3471 1323.7 Z"
     id="path240" /><path
     d="m 1323.7,-1012.6 v -204.5 H 3471 5618.3 v 204.5 204.5 H 3471 1323.7 Z"
     id="path242" /><path
     d="m 6691.9,-2853.1 c 0,-449.9 7.7,-818 15.3,-818 7.7,0 219.9,166.2 470.4,370.7 250.5,204.5 467.8,370.7 483.1,370.7 12.8,0 217.3,-155.9 455,-347.6 235.2,-191.7 444.8,-360.4 462.7,-375.8 23,-17.9 30.7,143.1 30.7,797.5 v 820.6 h -204.5 -204.5 v -396.2 -396.2 l -268.4,219.8 c -189.2,153.4 -278.6,212.2 -301.6,194.3 -17.9,-12.8 -140.6,-112.5 -273.5,-219.9 l -242.9,-196.8 -7.7,398.8 -7.7,396.2 h -202 -204.5 v -818.1 z"
     id="path244" /></g><path
   style="fill:#ffffff;stroke-width:0.0508475"
   d="M 7.0814534,16.729925 3.8917205,16.70339 3.7255212,16.537172 3.559322,16.370954 V 11.163811 5.9566675 l 0.10701,-0.143588 C 3.7251875,5.7341061 3.8477883,5.6258981 3.9387781,5.5726174 4.0997553,5.4783543 4.3195704,5.475994 12.09448,5.4850424 l 7.990265,0.0093 0.177967,0.1774025 0.177966,0.1774025 v 5.2287386 c 0,5.683494 0.01288,5.425257 -0.277863,5.572232 -0.0709,0.03584 -0.409214,0.08103 -0.751798,0.10042 l -0.622882,0.03525 v -0.333572 -0.333571 h 0.533899 0.533898 v -5.01687 -5.0168703 l -5.423676,0.033819 c -2.983021,0.018601 -6.5067497,0.033819 -7.8305079,0.033819 H 4.1949152 v 4.9830503 4.983051 h 5.1355931 5.1355927 v 0.330508 0.330509 l -2.097457,-0.0116 c -1.153602,-0.0064 -3.5328377,-0.02354 -5.2871906,-0.03813 z"
   id="path516"
   transform="scale(3.1)" /><path
   style="fill:#ffffff;stroke-width:0.0508475"
   d="M 5.6694914,7.5508473 V 7.2203389 h 6.3559326 6.355932 V 7.5508473 7.8813558 H 12.025424 5.6694914 Z"
   id="path518"
   transform="scale(3.1)" /><path
   style="fill:#ffffff;stroke-width:0.0508475"
   d="M 5.6694914,9.6864405 V 9.355932 h 6.3559326 6.355932 V 9.6864405 10.016949 H 12.025424 5.6694914 Z"
   id="path520"
   transform="scale(3.1)" /><path
   style="fill:#ffffff;stroke-width:0.0508475"
   d="m 5.6694914,11.822034 v -0.330509 h 3.6864406 3.686441 v 0.330509 0.330508 H 9.355932 5.6694914 Z"
   id="path522"
   transform="scale(3.1)" /><path
   style="fill:#ffffff;stroke-width:0.0508475"
   d="m 5.6694914,13.957627 v -0.330509 h 3.6864406 3.686441 v 0.330509 0.330508 H 9.355932 5.6694914 Z"
   id="path524"
   transform="scale(3.1)" /><path
   style="fill:#ffffff;stroke-width:0.0508475"
   d="m 16.245762,15.533898 c -0.166128,-0.171401 -0.18619,-0.177966 -0.543872,-0.177966 -0.434308,0 -0.53588,-0.06766 -0.625676,-0.41681 -0.03095,-0.120331 -0.06089,-0.23634 -0.06654,-0.257799 -0.0056,-0.02146 -0.12425,-0.125166 -0.263564,-0.230459 -0.340691,-0.257494 -0.382033,-0.389501 -0.23391,-0.746875 l 0.116162,-0.28026 -0.116162,-0.280261 c -0.149981,-0.361857 -0.10518,-0.501026 0.23443,-0.728221 0.180094,-0.120482 0.264987,-0.216061 0.293554,-0.330509 0.125771,-0.503871 0.267188,-0.620471 0.693965,-0.572186 0.265862,0.03008 0.297444,0.02236 0.412469,-0.100753 0.146629,-0.156944 0.360384,-0.276206 0.495049,-0.276206 0.05273,0 0.196877,0.07768 0.320322,0.17263 0.192905,0.14837 0.272274,0.175478 0.564789,0.192904 0.462637,0.02756 0.551531,0.11522 0.672853,0.663509 0.02109,0.0953 0.09364,0.171271 0.230021,0.240844 0.366833,0.187145 0.444036,0.443464 0.257415,0.854641 -0.09797,0.215861 -0.09796,0.219166 9.27e-4,0.381356 0.120193,0.197126 0.129334,0.48065 0.0205,0.636025 -0.0438,0.06253 -0.167981,0.158762 -0.275964,0.213851 -0.196242,0.100115 -0.217646,0.13417 -0.28051,0.446305 -0.01844,0.09156 -0.09001,0.233594 -0.159036,0.315632 -0.121114,0.143935 -0.13694,0.148092 -0.451879,0.118682 -0.321341,-0.03001 -0.329528,-0.02762 -0.531347,0.154708 -0.282846,0.255535 -0.521145,0.257786 -0.764006,0.0072 z m 0.559322,-0.697162 c 0.09984,-0.06285 0.299419,-0.124154 0.454613,-0.13964 0.260713,-0.02602 0.279088,-0.03707 0.319033,-0.192017 0.02331,-0.09043 0.133354,-0.260041 0.244539,-0.37692 0.210909,-0.221712 0.235296,-0.305555 0.15234,-0.523748 -0.0337,-0.08864 -0.03089,-0.213009 0.0087,-0.384459 l 0.0585,-0.253436 -0.204893,-0.190885 c -0.11269,-0.104987 -0.231869,-0.273929 -0.26484,-0.375426 -0.05758,-0.177252 -0.07077,-0.185438 -0.334023,-0.207269 -0.197675,-0.01639 -0.325735,-0.06213 -0.459396,-0.16408 l -0.185321,-0.141351 -0.11529,0.108309 c -0.13006,0.122186 -0.384677,0.207576 -0.618952,0.207576 -0.139003,0 -0.164515,0.02328 -0.216806,0.197805 -0.03514,0.117291 -0.143146,0.273588 -0.265343,0.383986 l -0.20608,0.186181 0.05941,0.265483 c 0.05,0.223445 0.04646,0.296476 -0.02237,0.461207 -0.04498,0.107648 -0.08178,0.201329 -0.08178,0.20818 0,0.0069 0.09045,0.07231 0.200992,0.145467 0.149916,0.09921 0.224015,0.197835 0.291596,0.388113 l 0.0906,0.255103 h 0.264891 c 0.209216,0 0.294876,0.02638 0.407556,0.125512 0.175931,0.154777 0.200847,0.155739 0.422327,0.01631 z"
   id="path526"
   transform="scale(3.1)" /><path
   style="fill:#ffffff;stroke-width:0.0508475"
   d="m 14.974576,17.143474 v -1.380762 h 0.329074 0.329073 l 0.01415,0.691839 0.01415,0.69184 0.440589,-0.361331 c 0.242323,-0.198732 0.471137,-0.360824 0.508474,-0.360204 0.03734,6.2e-4 0.262377,0.158164 0.500089,0.350098 l 0.432204,0.348971 0.01415,-0.680607 0.01415,-0.680606 h 0.329074 0.329073 v 1.372268 1.372269 L 17.4395,17.871116 c -0.683212,-0.550613 -0.802876,-0.62888 -0.890118,-0.58219 -0.08728,0.04671 -1.235409,0.941806 -1.48581,1.158356 -0.08445,0.07303 -0.08898,0.0066 -0.08898,-1.303808 z"
   id="path528"
   transform="scale(3.1)" /></svg>
