<?xml version="1.0" encoding="UTF-8" standalone="no"?>
<!-- Generator: Adobe Illustrator 25.2.1, SVG Export Plug-In . SVG Version: 6.00 Build 0)  -->

<svg
   width="24px"
   height="24px"
   version="1.1"
   id="Layer_1"
   x="0px"
   y="0px"
   viewBox="0 0 74.4 74.4"
   style="enable-background:new 0 0 74.4 74.4;"
   xml:space="preserve"
   preserveAspectRatio="xMinYMid meet"
   sodipodi:docname="iconLesson.svg"
   inkscape:version="1.2.1 (9c6d41e4, 2022-07-14)"
   xmlns:inkscape="http://www.inkscape.org/namespaces/inkscape"
   xmlns:sodipodi="http://sodipodi.sourceforge.net/DTD/sodipodi-0.dtd"
   xmlns="http://www.w3.org/2000/svg"
   xmlns:svg="http://www.w3.org/2000/svg"><defs
   id="defs93"><inkscape:path-effect
     effect="fillet_chamfer"
     id="path-effect11754"
     is_visible="true"
     lpeversion="1"
     nodesatellites_param="F,0,0,1,0,10,0,1 @ F,0,0,1,0,10,0,1 @ F,0,0,1,0,10,0,1 @ F,0,0,1,0,10,0,1"
     unit="px"
     method="auto"
     mode="F"
     radius="10"
     chamfer_steps="1"
     flexible="false"
     use_knot_distance="true"
     apply_no_radius="true"
     apply_with_radius="true"
     only_selected="false"
     hide_knots="false" /><inkscape:path-effect
     effect="fillet_chamfer"
     id="path-effect11738"
     is_visible="true"
     lpeversion="1"
     nodesatellites_param="F,0,0,1,0,0,0,1 @ F,0,0,1,0,0,0,1 @ F,0,0,1,0,0,0,1 @ F,0,0,1,0,0,0,1 @ F,0,0,1,0,0,0,1 @ F,0,0,1,0,0,0,1 @ F,0,0,1,0,0,0,1 @ F,0,0,1,0,0,0,1"
     unit="px"
     method="auto"
     mode="F"
     radius="0"
     chamfer_steps="1"
     flexible="false"
     use_knot_distance="true"
     apply_no_radius="true"
     apply_with_radius="true"
     only_selected="false"
     hide_knots="false" /><inkscape:path-effect
     effect="bspline"
     id="path-effect11734"
     is_visible="true"
     lpeversion="1"
     weight="33.333333"
     steps="2"
     helper_size="0"
     apply_no_weight="true"
     apply_with_weight="true"
     only_selected="false" /></defs><sodipodi:namedview
   id="namedview91"
   pagecolor="#ffffff"
   bordercolor="#000000"
   borderopacity="0.25"
   inkscape:showpageshadow="2"
   inkscape:pageopacity="0.0"
   inkscape:pagecheckerboard="0"
   inkscape:deskcolor="#d1d1d1"
   showgrid="false"
   inkscape:zoom="19.666667"
   inkscape:cx="9.9915253"
   inkscape:cy="10.449152"
   inkscape:window-width="1440"
   inkscape:window-height="855"
   inkscape:window-x="8"
   inkscape:window-y="23"
   inkscape:window-maximized="0"
   inkscape:current-layer="Layer_1" />

<rect
   style="fill:#399be2;fill-opacity:1;stroke-width:3.1"
   id="rect11752"
   width="74.557625"
   height="74.400002"
   x="-2.6028694e-08"
   y="0"
   inkscape:path-effect="#path-effect11754"
   d="m 10,0 h 54.557625 a 10,10 45 0 1 10,10 v 54.400002 a 10,10 135 0 1 -10,10 H 10 A 10,10 45 0 1 -2.6028694e-8,64.400002 V 10 A 10,10 135 0 1 10,0 Z" /><style
   type="text/css"
   id="style915">
	.st0{fill:none;}
</style><path
   d="m 57.995846,30.07723 v -3.421251 0 c 2.280828,0 4.159154,-1.878339 4.159154,-4.159169 v -5.165418 c 0,-2.280833 -1.878326,-4.159167 -4.159154,-4.159167 h -5.165422 c -2.28083,0 -4.159174,1.878334 -4.159174,4.159167 v 1.274583 H 27.60708 c -0.53666,-4.22625 -4.427496,-6.8425 -8.653746,-6.305833 C 15.0625,12.769725 12.245,15.989725 12.245,19.880559 v 0 c 0,4.29333 3.488334,7.647497 7.781668,7.647497 v 0 0 c 3.555414,0 6.574163,-2.079579 7.446253,-5.433747 h 21.332503 v 0.335418 c 0,2.280831 1.878326,4.159158 4.159172,4.159158 H 54.5075 v 2.817502 c 0,3.287093 -3.42125,5.970419 -6.976659,5.970419 H 27.875422 c -5.76917,0 -10.532088,4.293341 -10.532088,9.592924 v 2.951672 h -0.402499 c -2.280835,0 -4.159167,1.878328 -4.159167,4.159154 v 5.165424 c 0,2.280826 1.878332,4.159172 4.159167,4.159172 h 5.2325 c 2.280833,0 4.159166,-1.878346 4.159166,-4.159172 v -0.805 H 46.92709 c 0.805001,4.092076 4.76291,6.372922 8.855006,5.567922 3.488328,-0.670846 5.769154,-3.82375 5.769154,-7.312096 v 0 c 0,-4.159154 -3.085826,-7.513326 -7.245,-7.513326 v 0 c -3.6225,0 -6.64125,2.21375 -7.37916,5.769172 H 26.26542 v -0.805 c 0,-2.280846 -1.878337,-4.159172 -4.159168,-4.159172 h -1.207501 v -2.61625 c 0,-3.28708 3.421251,-6.44 6.909578,-6.44 H 47.46375 c 5.702096,0.06701 10.532096,-3.555424 10.532096,-8.855 z M 19.8925,23.97264 c -2.280833,0 -4.159166,-1.878331 -4.159166,-4.092081 0,-2.280834 1.878333,-4.159167 4.092084,-4.159167 2.280834,0 4.159165,1.878333 4.159165,4.092083 v 0 c 0.06709,2.415002 -1.811248,4.159165 -4.092083,4.159165 z m 32.870846,-0.872081 c -0.4025,0 -0.603751,-0.268331 -0.603751,-0.603749 v -5.165418 c 0,-0.4025 0.268329,-0.60375 0.603751,-0.60375 h 5.2325 c 0.4025,0 0.60375,0.268333 0.60375,0.60375 v 5.165418 c 0,0.402499 -0.268346,0.603749 -0.60375,0.603749 z M 54.105,50.80598 v 0 c 2.146674,0 3.957924,1.744172 3.957924,3.957922 0,2.146654 -1.744174,3.957904 -3.957924,3.957904 -2.21375,0 -3.957907,-1.744154 -3.957907,-3.957904 v 0 c 0,-2.280846 1.744157,-3.957922 3.957907,-3.957922 z m -32.065832,0.60375 c 0.4025,0 0.670834,0.268326 0.670834,0.60375 v 5.2325 c 0,0.4025 -0.268334,0.60375 -0.670834,0.60375 h -5.232501 c -0.4025,0 -0.670832,-0.268328 -0.670832,-0.60375 v -5.2325 c 0,-0.4025 0.268332,-0.60375 0.670832,-0.60375 z"
   id="path1203"
   style="stroke-width:0.670826;fill:#ffffff" /></svg>
